<svg width="142" height="105" viewBox="0 0 142 105" fill="none" xmlns="http://www.w3.org/2000/svg">
<g filter="url(#filter0_d_3041_110)">
<rect x="3.22852" y="15.3333" width="134.77" height="82.3147" rx="19.3682" fill="#FED718"/>
<rect x="8.07056" y="20.1753" width="125.086" height="72.6306" rx="14.5261" stroke="#FFA600" stroke-width="9.68408"/>
</g>
<path d="M87.2459 53.9162C87.2997 54.8846 87.3535 55.8799 87.4073 56.9021C87.4611 57.9243 87.4073 58.8658 87.2459 59.7266C87.1383 60.5874 86.9231 61.3406 86.6003 61.9862C86.2775 62.578 85.7664 62.9546 85.067 63.116C84.6903 63.2236 83.7757 63.2774 82.3231 63.2774C80.9243 63.2774 79.2296 63.2236 77.239 63.116C77.2928 64.5149 77.3197 65.9406 77.3197 67.3932C77.3735 68.792 77.4273 70.2177 77.4811 71.6703C77.3735 72.1007 77.1852 72.4504 76.9162 72.7194C76.6472 72.9884 76.2437 73.2305 75.7057 73.4457C75.2215 73.6609 74.4952 73.8223 73.5268 73.9299C72.6121 74.0375 71.6437 74.1451 70.6215 74.2527C69.6531 74.3065 68.7385 74.3065 67.8777 74.2527C67.0169 74.1451 66.2637 73.9299 65.6181 73.6071C64.9725 73.2843 64.569 72.7732 64.4076 72.0738C64.3 71.5896 64.2193 70.4598 64.1655 68.6844C64.1655 66.909 64.2193 64.8108 64.3269 62.3897C63.0357 62.2821 61.8252 62.2014 60.6954 62.1476C59.5655 62.0938 58.5971 62.04 57.7901 61.9862C56.8217 61.9324 55.934 61.8786 55.127 61.8248C54.858 61.8786 54.6159 61.7979 54.4007 61.5827C54.2393 61.4213 54.0779 61.1792 53.9165 60.8564C53.7551 60.4798 53.6744 59.9149 53.6744 59.1617C53.6206 58.4085 53.5668 57.5477 53.513 56.5793C53.513 55.5571 53.513 54.6156 53.513 53.7548C53.5668 52.8402 53.6744 52.0601 53.8358 51.4144C53.9972 50.7688 54.2662 50.4191 54.6428 50.3653L65.0532 50.2039C65.1608 48.9665 65.2684 47.8367 65.376 46.8145C65.4836 45.7923 65.5912 44.9046 65.6988 44.1514C65.8064 43.2368 65.8871 42.4029 65.9409 41.6497C65.8871 41.4345 65.9678 41.2193 66.183 41.0041C66.3444 40.8427 66.6134 40.6813 66.99 40.5199C67.3666 40.3585 67.9315 40.2778 68.6847 40.2778C69.4379 40.2778 70.2987 40.3047 71.2671 40.3585C72.2893 40.3585 73.2309 40.4123 74.0917 40.5199C75.0063 40.5737 75.7864 40.7082 76.432 40.9234C77.0776 41.0848 77.4004 41.3538 77.4004 41.7304C77.3466 43.1292 77.2928 44.528 77.239 45.9268C77.239 47.3256 77.239 48.7244 77.239 50.1232L84.9863 50.0425C85.3629 50.1501 85.7126 50.3384 86.0354 50.6074C86.3044 50.8764 86.5465 51.2799 86.7617 51.818C86.9769 52.3022 87.1383 53.0016 87.2459 53.9162Z" fill="white"/>
<defs>
<filter id="filter0_d_3041_110" x="0.000489235" y="15.3333" width="141.226" height="88.7708" filterUnits="userSpaceOnUse" color-interpolation-filters="sRGB">
<feFlood flood-opacity="0" result="BackgroundImageFix"/>
<feColorMatrix in="SourceAlpha" type="matrix" values="0 0 0 0 0 0 0 0 0 0 0 0 0 0 0 0 0 0 127 0" result="hardAlpha"/>
<feOffset dy="3.22803"/>
<feGaussianBlur stdDeviation="1.61401"/>
<feComposite in2="hardAlpha" operator="out"/>
<feColorMatrix type="matrix" values="0 0 0 0 0 0 0 0 0 0 0 0 0 0 0 0 0 0 0.25 0"/>
<feBlend mode="normal" in2="BackgroundImageFix" result="effect1_dropShadow_3041_110"/>
<feBlend mode="normal" in="SourceGraphic" in2="effect1_dropShadow_3041_110" result="shape"/>
</filter>
</defs>
</svg>
