<svg width="454" height="99" viewBox="0 0 454 99" fill="none" xmlns="http://www.w3.org/2000/svg">
<g filter="url(#filter0_d_3046_114)">
<mask id="path-1-outside-1_3046_114" maskUnits="userSpaceOnUse" x="4" y="0" width="446" height="91" fill="black">
<rect fill="white" x="4" width="446" height="91"/>
<path d="M41.8 80H40.2C37 80 33.8333 79.6667 30.7 79C24.2333 77.5333 19.7 74.8333 17.1 70.9C15.2333 67.3667 14.3 63.4667 14.3 59.2V58.8C14.1 55.7333 14 52.7 14 49.7V44.4C14 39.7333 14.3333 34.8667 15 29.8C15.7333 24.7333 17.7333 20.3333 21 16.6C24.8667 12.8 29.3 10.9 34.3 10.9C35.1667 10.9 36.0667 10.9667 37 11.1C42.7333 12.3 47.7333 15.1667 52 19.7C57.2667 24.9 61.2333 31 63.9 38C65.5 42.3333 66.3 46.7 66.3 51.1C66.3 54.1 65.9333 57.1 65.2 60.1C63.0667 67.7667 58.8 73.4667 52.4 77.2C49.0667 78.9333 45.5333 79.8667 41.8 80ZM38.6 64.6C40.2667 64.6 41.8667 64.2333 43.4 63.5C47.4667 60.9 49.5 56.4667 49.5 50.2C49.5 47.2 48.9333 44.3 47.8 41.5C46.2667 37.7 44.3 34.2667 41.9 31.2C39.3667 27.5333 36.7333 25.7 34 25.7H32.4C30.7333 25.8333 29.9 28.9 29.9 34.9C29.9 36.5667 29.9333 37.8 30 38.6C30.1333 44.2 30.4667 49.8 31 55.4C31.1333 58.9333 31.9667 61.5 33.5 63.1C34.7667 64.1 36.4667 64.6 38.6 64.6Z"/>
<path d="M86.6109 76.8C84.5443 76.8 82.4776 76.6 80.4109 76.2C74.8109 75.0667 71.0443 72.6 69.1109 68.8C68.3776 67.1333 68.0109 65.4 68.0109 63.6C68.0109 58.1333 70.8776 51.5667 76.6109 43.9C79.1443 40.5667 81.9109 37.1333 84.9109 33.6L90.7109 26.5C86.7776 28.3 82.7109 29.3333 78.5109 29.6C75.3109 29.6 73.1109 28.5667 71.9109 26.5C71.5109 25.7 71.3109 24.8667 71.3109 24C71.3109 22.3333 71.9443 20.8 73.2109 19.4C75.0776 17.6 77.2776 16.4 79.8109 15.8C84.0776 14.5333 88.4109 13.9 92.8109 13.9C94.7443 13.9 96.7109 14.0333 98.7109 14.3C101.311 14.4333 103.578 15.3333 105.511 17C106.911 18.4667 107.611 20.6667 107.611 23.6C107.611 24.4 107.544 25.2 107.411 26C106.878 29.4667 105.744 32.7333 104.011 35.8C101.878 39.6 99.0109 43.6667 95.4109 48C91.8776 52.2667 88.8109 56.8667 86.2109 61.8C89.1443 60.6 92.1109 59.7667 95.1109 59.3C95.8443 59.1667 96.5776 59.1 97.3109 59.1C99.7109 59.1 101.978 59.7333 104.111 61C106.778 62.6667 108.111 64.7333 108.111 67.2C107.711 70.6667 104.044 73.3 97.1109 75.1L96.8109 75.2C93.4109 76.2667 90.0109 76.8 86.6109 76.8Z"/>
<path d="M117.698 78.9H117.198C114.665 78.3 112.898 76.7667 111.898 74.3C111.098 71.9667 110.698 69.2333 110.698 66.1C110.498 61.7 110.398 57.3333 110.398 53C110.398 41.8 110.998 32.8 112.198 26C113.065 22.2667 115.065 19.5333 118.198 17.8C119.332 17.2 120.398 16.9 121.398 16.9C123.332 16.9 125.132 17.9333 126.798 20C128.065 22.2 128.765 24.6333 128.898 27.3C129.498 32.1 129.798 36.8667 129.798 41.6C129.798 50.9333 128.665 60.1667 126.398 69.3C125.865 71.7667 124.898 74 123.498 76C121.965 77.9333 120.032 78.9 117.698 78.9Z"/>
<path d="M167.259 74.3H166.859C165.726 74.3 164.659 74 163.659 73.4C161.926 72 160.693 70.1333 159.959 67.8C157.426 61.6 155.359 55.2667 153.759 48.8L153.259 46.9C152.393 53.3667 150.659 59.5667 148.059 65.5C147.193 67.5667 146.026 69.3333 144.559 70.8C143.293 72 141.893 72.6 140.359 72.6C139.893 72.6 139.426 72.5333 138.959 72.4C136.293 71.5333 134.593 68.8 133.859 64.2C132.926 58.8 132.459 53.4 132.459 48C132.459 40.8 133.293 33.6 134.959 26.4V26.1C135.359 23.9 135.926 21.7 136.659 19.5C137.459 17.3 138.759 15.5 140.559 14.1C142.093 13.0333 143.659 12.5 145.259 12.5C146.393 12.5 147.559 12.7667 148.759 13.3C151.293 14.9 152.993 17.2667 153.859 20.4C154.393 22.6667 154.659 24.9667 154.659 27.3L154.559 30.6L156.259 28.4C158.393 25.7333 160.593 23.2 162.859 20.8C164.259 19 165.959 17.7667 167.959 17.1L169.259 17C171.326 17 172.993 17.8667 174.259 19.6C175.593 21.2667 176.259 23.1333 176.259 25.2L176.159 26.6C175.759 29.0667 174.859 31.3333 173.459 33.4C170.859 37.2667 167.426 40.2333 163.159 42.3C164.359 43.0333 165.493 43.8667 166.559 44.8C170.826 48.6 173.593 53.3333 174.859 59C175.259 60.4667 175.459 61.9 175.459 63.3C175.459 67.7667 173.926 71.0667 170.859 73.2C169.726 73.9333 168.526 74.3 167.259 74.3Z"/>
<path d="M185.96 78.9H185.46C182.927 78.3 181.16 76.7667 180.16 74.3C179.36 71.9667 178.96 69.2333 178.96 66.1C178.76 61.7 178.66 57.3333 178.66 53C178.66 41.8 179.26 32.8 180.46 26C181.327 22.2667 183.327 19.5333 186.46 17.8C187.593 17.2 188.66 16.9 189.66 16.9C191.593 16.9 193.393 17.9333 195.06 20C196.327 22.2 197.027 24.6333 197.16 27.3C197.76 32.1 198.06 36.8667 198.06 41.6C198.06 50.9333 196.927 60.1667 194.66 69.3C194.127 71.7667 193.16 74 191.76 76C190.227 77.9333 188.293 78.9 185.96 78.9Z"/>
<path d="M209.521 74.2H208.921C206.321 74.2 204.554 72.9 203.621 70.3C202.754 67.6333 202.254 64.5333 202.121 61L201.021 39.3C200.821 37.5667 200.721 35.8333 200.721 34.1C200.721 30.2333 201.188 26.4667 202.121 22.8C204.121 17.0667 207.721 13.3 212.921 11.5C215.721 10.5 218.554 10 221.421 10C223.954 10 226.554 10.4 229.221 11.2C234.754 12.8 238.788 16.1333 241.321 21.2C242.188 23.1333 242.621 25.1 242.621 27.1C242.621 27.7667 242.488 29 242.221 30.8C241.954 32.5333 240.854 34.3667 238.921 36.3L235.021 39.6C233.688 40.8 232.921 42.2667 232.721 44C232.788 44.9333 233.088 45.8 233.621 46.6C234.488 48.1333 236.454 50 239.521 52.2C240.388 52.8 241.254 53.4667 242.121 54.2C244.521 55.9333 246.254 58.1333 247.321 60.8C247.654 61.5333 247.821 62.5 247.821 63.7C247.821 65.5667 247.188 67.2333 245.921 68.7C244.521 69.9 242.754 70.5 240.621 70.5C239.288 70.5 237.988 70.3 236.721 69.9C231.388 68.1667 227.321 64.8333 224.521 59.9C223.988 58.5 223.288 57.3 222.421 56.3C221.488 54.9667 220.421 54.3 219.221 54.3C216.754 54.3 215.521 55.8667 215.521 59C215.521 59.8 215.588 60.7333 215.721 61.8C215.988 63.2667 216.121 64.6 216.121 65.8C216.121 67.6 215.754 69.3667 215.021 71.1C214.354 72.7667 212.521 73.8 209.521 74.2ZM221.921 32.1C222.921 32.1 223.854 31.9333 224.721 31.6C225.654 31.2667 226.421 30.8333 227.021 30.3C227.621 29.7667 227.988 29.0333 228.121 28.1C228.121 26.5667 227.454 25.4 226.121 24.6C225.188 24 224.188 23.7 223.121 23.7C220.988 23.7 219.454 24.0667 218.521 24.8C217.988 25.4 217.721 26.5333 217.721 28.2C217.788 29.4667 218.254 30.5 219.121 31.3C219.854 31.8333 220.688 32.1 221.621 32.1H221.921Z"/>
<path d="M293.699 80.2H292.799C291.666 80.2 290.533 80 289.399 79.6C286.733 78.4667 284.799 76.6 283.599 74C281.666 69.8 280.699 63.2 280.699 54.2C280.699 51.3333 280.833 48.4667 281.099 45.6L281.299 41.1C281.299 36.8333 282.199 32.8 283.999 29C286.533 24.6 290.266 21.4 295.199 19.4C297.999 18.3333 300.866 17.8 303.799 17.8C305.999 17.8 308.199 18.1 310.399 18.7C315.999 20.3667 320.133 23.6333 322.799 28.5C323.799 30.7667 324.299 33 324.299 35.2C324.299 38 323.466 40.7667 321.799 43.5C319.133 46.9667 315.633 49.4 311.299 50.8L310.599 51C303.866 53.5333 300.466 58.1667 300.399 64.9V66.6C300.399 68.2667 300.333 69.9667 300.199 71.7C300.133 74.3667 299.233 76.6333 297.499 78.5C296.433 79.4333 295.166 80 293.699 80.2ZM300.699 43.1C301.166 43.1 301.633 43.0333 302.099 42.9C303.566 42.3 304.699 41.3 305.499 39.9C306.299 38.5 306.699 37.0333 306.699 35.5C306.699 34.2333 306.266 33.1333 305.399 32.2C304.733 31.4667 303.899 31.0333 302.899 30.9C301.699 30.9 300.633 31.2 299.699 31.8C298.166 33 297.399 34.8667 297.399 37.4C297.399 39.4 297.766 40.9333 298.499 42C298.966 42.7333 299.699 43.1 300.699 43.1Z"/>
<path d="M331.345 69.1C330.411 69.1 329.445 68.9333 328.445 68.6C326.578 67.7333 325.345 66.4333 324.745 64.7C324.278 63.3 324.045 61.6333 324.045 59.7C324.045 51.7667 325.478 43.8333 328.345 35.9C330.678 29.2333 334.111 23.1 338.645 17.5C341.511 13.9667 344.645 12.1333 348.045 12C351.778 12.1333 355.078 14.2 357.945 18.2C362.478 24.3333 365.511 30.9667 367.045 38.1C368.445 44.6333 369.145 51.7667 369.145 59.5C369.145 61.2333 368.978 62.8 368.645 64.2C368.311 65.6 367.445 66.8 366.045 67.8C364.911 68.5333 363.445 68.9 361.645 68.9C360.311 68.9 359.078 68.6333 357.945 68.1C355.545 66.6333 353.911 64.6667 353.045 62.2C352.178 59.6667 351.745 57.0333 351.745 54.3L351.645 48.3C350.511 48.5 349.345 48.6 348.145 48.6C347.211 48.6 346.278 48.5333 345.345 48.4C345.078 53.6 343.445 58.5 340.445 63.1C339.311 65.0333 337.711 66.6333 335.645 67.9C334.245 68.7 332.811 69.1 331.345 69.1ZM348.745 37.9C349.211 37.9 349.745 37.6667 350.345 37.2C350.945 36.6667 351.311 35.9333 351.445 35L351.545 33.7C351.545 31.8333 351.211 30.2333 350.545 28.9C350.145 27.9667 349.445 27.3333 348.445 27L348.045 26.9C347.645 26.9 347.211 27.4333 346.745 28.5L346.645 28.8C346.178 30.0667 345.945 31.3667 345.945 32.7C345.945 34.3 346.245 35.6333 346.845 36.7C347.245 37.5 347.878 37.9 348.745 37.9Z"/>
<path d="M397.329 78.1C392.462 78.1 387.829 76.7333 383.429 74C375.762 68.6667 371.429 61.0333 370.429 51.1L370.329 48.6C370.329 46.8667 370.462 45.1667 370.729 43.5C372.462 33.5667 377.129 25.7667 384.729 20.1C389.396 16.9 394.329 15.3 399.529 15.3C401.129 15.3 402.729 15.4333 404.329 15.7C408.929 16.5667 412.262 18.5 414.329 21.5C415.329 23.0333 415.829 24.7333 415.829 26.6C415.829 26.8667 415.796 27.6 415.729 28.8C415.662 30 414.796 31.3 413.129 32.7C411.662 33.7667 409.829 34.3 407.629 34.3C406.362 34.3 404.729 34.1 402.729 33.7C400.729 33.3 399.196 33.1 398.129 33.1C393.396 33.1 389.462 35.2 386.329 39.4C384.329 42.3333 383.329 45.4 383.329 48.6C383.329 50.4 383.629 52.2333 384.229 54.1C386.296 59.5 389.762 62.7667 394.629 63.9C395.429 64.0333 396.196 64.1 396.929 64.1C397.796 64.1 398.562 64 399.229 63.8C400.829 63.2 401.862 62.2 402.329 60.8C402.396 60.5333 402.429 60.2333 402.429 59.9C402.429 57.9 401.129 56.9 398.529 56.9C396.929 56.9 395.796 56.6667 395.129 56.2C394.196 55.5333 393.729 54.5333 393.729 53.2C393.729 50.8 395.096 49.1667 397.829 48.3C399.229 47.8333 401.029 47.6 403.229 47.6C406.762 47.6 409.796 48.3333 412.329 49.8H412.429C413.362 50.4 414.229 51.1 415.029 51.9C417.229 54.4333 418.329 57.3 418.329 60.5C418.329 61.7667 418.129 63.1333 417.729 64.6C416.396 68.8 413.629 72.2 409.429 74.8C405.762 77 401.729 78.1 397.329 78.1Z"/>
<path d="M427.659 78.9H427.159C424.626 78.3 422.859 76.7667 421.859 74.3C421.059 71.9667 420.659 69.2333 420.659 66.1C420.459 61.7 420.359 57.3333 420.359 53C420.359 41.8 420.959 32.8 422.159 26C423.026 22.2667 425.026 19.5333 428.159 17.8C429.293 17.2 430.359 16.9 431.359 16.9C433.293 16.9 435.093 17.9333 436.759 20C438.026 22.2 438.726 24.6333 438.859 27.3C439.459 32.1 439.759 36.8667 439.759 41.6C439.759 50.9333 438.626 60.1667 436.359 69.3C435.826 71.7667 434.859 74 433.459 76C431.926 77.9333 429.993 78.9 427.659 78.9Z"/>
<path d="M221.921 32.1C222.921 32.1 223.854 31.9333 224.721 31.6C225.654 31.2667 226.421 30.8333 227.021 30.3C227.621 29.7667 227.988 29.0333 228.121 28.1C228.121 26.5667 227.454 25.4 226.121 24.6C225.188 24 224.188 23.7 223.121 23.7C220.988 23.7 219.454 24.0667 218.521 24.8C217.988 25.4 217.721 26.5333 217.721 28.2C217.788 29.4667 218.254 30.5 219.121 31.3C219.854 31.8333 220.688 32.1 221.621 32.1H221.921Z"/>
<path d="M300.699 43.1C301.166 43.1 301.633 43.0333 302.099 42.9C303.566 42.3 304.699 41.3 305.499 39.9C306.299 38.5 306.699 37.0333 306.699 35.5C306.699 34.2333 306.266 33.1333 305.399 32.2C304.733 31.4667 303.899 31.0333 302.899 30.9C301.699 30.9 300.633 31.2 299.699 31.8C298.166 33 297.399 34.8667 297.399 37.4C297.399 39.4 297.766 40.9333 298.499 42C298.966 42.7333 299.699 43.1 300.699 43.1Z"/>
<path d="M348.745 37.9C349.211 37.9 349.745 37.6667 350.345 37.2C350.945 36.6667 351.311 35.9333 351.445 35L351.545 33.7C351.545 31.8333 351.211 30.2333 350.545 28.9C350.145 27.9667 349.445 27.3333 348.445 27L348.045 26.9C347.645 26.9 347.211 27.4333 346.745 28.5L346.645 28.8C346.178 30.0667 345.945 31.3667 345.945 32.7C345.945 34.3 346.245 35.6333 346.845 36.7C347.245 37.5 347.878 37.9 348.745 37.9Z"/>
</mask>
<path d="M41.8 80H40.2C37 80 33.8333 79.6667 30.7 79C24.2333 77.5333 19.7 74.8333 17.1 70.9C15.2333 67.3667 14.3 63.4667 14.3 59.2V58.8C14.1 55.7333 14 52.7 14 49.7V44.4C14 39.7333 14.3333 34.8667 15 29.8C15.7333 24.7333 17.7333 20.3333 21 16.6C24.8667 12.8 29.3 10.9 34.3 10.9C35.1667 10.9 36.0667 10.9667 37 11.1C42.7333 12.3 47.7333 15.1667 52 19.7C57.2667 24.9 61.2333 31 63.9 38C65.5 42.3333 66.3 46.7 66.3 51.1C66.3 54.1 65.9333 57.1 65.2 60.1C63.0667 67.7667 58.8 73.4667 52.4 77.2C49.0667 78.9333 45.5333 79.8667 41.8 80ZM38.6 64.6C40.2667 64.6 41.8667 64.2333 43.4 63.5C47.4667 60.9 49.5 56.4667 49.5 50.2C49.5 47.2 48.9333 44.3 47.8 41.5C46.2667 37.7 44.3 34.2667 41.9 31.2C39.3667 27.5333 36.7333 25.7 34 25.7H32.4C30.7333 25.8333 29.9 28.9 29.9 34.9C29.9 36.5667 29.9333 37.8 30 38.6C30.1333 44.2 30.4667 49.8 31 55.4C31.1333 58.9333 31.9667 61.5 33.5 63.1C34.7667 64.1 36.4667 64.6 38.6 64.6Z" fill="#F7C93E"/>
<path d="M86.6109 76.8C84.5443 76.8 82.4776 76.6 80.4109 76.2C74.8109 75.0667 71.0443 72.6 69.1109 68.8C68.3776 67.1333 68.0109 65.4 68.0109 63.6C68.0109 58.1333 70.8776 51.5667 76.6109 43.9C79.1443 40.5667 81.9109 37.1333 84.9109 33.6L90.7109 26.5C86.7776 28.3 82.7109 29.3333 78.5109 29.6C75.3109 29.6 73.1109 28.5667 71.9109 26.5C71.5109 25.7 71.3109 24.8667 71.3109 24C71.3109 22.3333 71.9443 20.8 73.2109 19.4C75.0776 17.6 77.2776 16.4 79.8109 15.8C84.0776 14.5333 88.4109 13.9 92.8109 13.9C94.7443 13.9 96.7109 14.0333 98.7109 14.3C101.311 14.4333 103.578 15.3333 105.511 17C106.911 18.4667 107.611 20.6667 107.611 23.6C107.611 24.4 107.544 25.2 107.411 26C106.878 29.4667 105.744 32.7333 104.011 35.8C101.878 39.6 99.0109 43.6667 95.4109 48C91.8776 52.2667 88.8109 56.8667 86.2109 61.8C89.1443 60.6 92.1109 59.7667 95.1109 59.3C95.8443 59.1667 96.5776 59.1 97.3109 59.1C99.7109 59.1 101.978 59.7333 104.111 61C106.778 62.6667 108.111 64.7333 108.111 67.2C107.711 70.6667 104.044 73.3 97.1109 75.1L96.8109 75.2C93.4109 76.2667 90.0109 76.8 86.6109 76.8Z" fill="#F7C93E"/>
<path d="M117.698 78.9H117.198C114.665 78.3 112.898 76.7667 111.898 74.3C111.098 71.9667 110.698 69.2333 110.698 66.1C110.498 61.7 110.398 57.3333 110.398 53C110.398 41.8 110.998 32.8 112.198 26C113.065 22.2667 115.065 19.5333 118.198 17.8C119.332 17.2 120.398 16.9 121.398 16.9C123.332 16.9 125.132 17.9333 126.798 20C128.065 22.2 128.765 24.6333 128.898 27.3C129.498 32.1 129.798 36.8667 129.798 41.6C129.798 50.9333 128.665 60.1667 126.398 69.3C125.865 71.7667 124.898 74 123.498 76C121.965 77.9333 120.032 78.9 117.698 78.9Z" fill="#F7C93E"/>
<path d="M167.259 74.3H166.859C165.726 74.3 164.659 74 163.659 73.4C161.926 72 160.693 70.1333 159.959 67.8C157.426 61.6 155.359 55.2667 153.759 48.8L153.259 46.9C152.393 53.3667 150.659 59.5667 148.059 65.5C147.193 67.5667 146.026 69.3333 144.559 70.8C143.293 72 141.893 72.6 140.359 72.6C139.893 72.6 139.426 72.5333 138.959 72.4C136.293 71.5333 134.593 68.8 133.859 64.2C132.926 58.8 132.459 53.4 132.459 48C132.459 40.8 133.293 33.6 134.959 26.4V26.1C135.359 23.9 135.926 21.7 136.659 19.5C137.459 17.3 138.759 15.5 140.559 14.1C142.093 13.0333 143.659 12.5 145.259 12.5C146.393 12.5 147.559 12.7667 148.759 13.3C151.293 14.9 152.993 17.2667 153.859 20.4C154.393 22.6667 154.659 24.9667 154.659 27.3L154.559 30.6L156.259 28.4C158.393 25.7333 160.593 23.2 162.859 20.8C164.259 19 165.959 17.7667 167.959 17.1L169.259 17C171.326 17 172.993 17.8667 174.259 19.6C175.593 21.2667 176.259 23.1333 176.259 25.2L176.159 26.6C175.759 29.0667 174.859 31.3333 173.459 33.4C170.859 37.2667 167.426 40.2333 163.159 42.3C164.359 43.0333 165.493 43.8667 166.559 44.8C170.826 48.6 173.593 53.3333 174.859 59C175.259 60.4667 175.459 61.9 175.459 63.3C175.459 67.7667 173.926 71.0667 170.859 73.2C169.726 73.9333 168.526 74.3 167.259 74.3Z" fill="#F7C93E"/>
<path d="M185.96 78.9H185.46C182.927 78.3 181.16 76.7667 180.16 74.3C179.36 71.9667 178.96 69.2333 178.96 66.1C178.76 61.7 178.66 57.3333 178.66 53C178.66 41.8 179.26 32.8 180.46 26C181.327 22.2667 183.327 19.5333 186.46 17.8C187.593 17.2 188.66 16.9 189.66 16.9C191.593 16.9 193.393 17.9333 195.06 20C196.327 22.2 197.027 24.6333 197.16 27.3C197.76 32.1 198.06 36.8667 198.06 41.6C198.06 50.9333 196.927 60.1667 194.66 69.3C194.127 71.7667 193.16 74 191.76 76C190.227 77.9333 188.293 78.9 185.96 78.9Z" fill="#F7C93E"/>
<path d="M209.521 74.2H208.921C206.321 74.2 204.554 72.9 203.621 70.3C202.754 67.6333 202.254 64.5333 202.121 61L201.021 39.3C200.821 37.5667 200.721 35.8333 200.721 34.1C200.721 30.2333 201.188 26.4667 202.121 22.8C204.121 17.0667 207.721 13.3 212.921 11.5C215.721 10.5 218.554 10 221.421 10C223.954 10 226.554 10.4 229.221 11.2C234.754 12.8 238.788 16.1333 241.321 21.2C242.188 23.1333 242.621 25.1 242.621 27.1C242.621 27.7667 242.488 29 242.221 30.8C241.954 32.5333 240.854 34.3667 238.921 36.3L235.021 39.6C233.688 40.8 232.921 42.2667 232.721 44C232.788 44.9333 233.088 45.8 233.621 46.6C234.488 48.1333 236.454 50 239.521 52.2C240.388 52.8 241.254 53.4667 242.121 54.2C244.521 55.9333 246.254 58.1333 247.321 60.8C247.654 61.5333 247.821 62.5 247.821 63.7C247.821 65.5667 247.188 67.2333 245.921 68.7C244.521 69.9 242.754 70.5 240.621 70.5C239.288 70.5 237.988 70.3 236.721 69.9C231.388 68.1667 227.321 64.8333 224.521 59.9C223.988 58.5 223.288 57.3 222.421 56.3C221.488 54.9667 220.421 54.3 219.221 54.3C216.754 54.3 215.521 55.8667 215.521 59C215.521 59.8 215.588 60.7333 215.721 61.8C215.988 63.2667 216.121 64.6 216.121 65.8C216.121 67.6 215.754 69.3667 215.021 71.1C214.354 72.7667 212.521 73.8 209.521 74.2ZM221.921 32.1C222.921 32.1 223.854 31.9333 224.721 31.6C225.654 31.2667 226.421 30.8333 227.021 30.3C227.621 29.7667 227.988 29.0333 228.121 28.1C228.121 26.5667 227.454 25.4 226.121 24.6C225.188 24 224.188 23.7 223.121 23.7C220.988 23.7 219.454 24.0667 218.521 24.8C217.988 25.4 217.721 26.5333 217.721 28.2C217.788 29.4667 218.254 30.5 219.121 31.3C219.854 31.8333 220.688 32.1 221.621 32.1H221.921Z" fill="#F7C93E"/>
<path d="M293.699 80.2H292.799C291.666 80.2 290.533 80 289.399 79.6C286.733 78.4667 284.799 76.6 283.599 74C281.666 69.8 280.699 63.2 280.699 54.2C280.699 51.3333 280.833 48.4667 281.099 45.6L281.299 41.1C281.299 36.8333 282.199 32.8 283.999 29C286.533 24.6 290.266 21.4 295.199 19.4C297.999 18.3333 300.866 17.8 303.799 17.8C305.999 17.8 308.199 18.1 310.399 18.7C315.999 20.3667 320.133 23.6333 322.799 28.5C323.799 30.7667 324.299 33 324.299 35.2C324.299 38 323.466 40.7667 321.799 43.5C319.133 46.9667 315.633 49.4 311.299 50.8L310.599 51C303.866 53.5333 300.466 58.1667 300.399 64.9V66.6C300.399 68.2667 300.333 69.9667 300.199 71.7C300.133 74.3667 299.233 76.6333 297.499 78.5C296.433 79.4333 295.166 80 293.699 80.2ZM300.699 43.1C301.166 43.1 301.633 43.0333 302.099 42.9C303.566 42.3 304.699 41.3 305.499 39.9C306.299 38.5 306.699 37.0333 306.699 35.5C306.699 34.2333 306.266 33.1333 305.399 32.2C304.733 31.4667 303.899 31.0333 302.899 30.9C301.699 30.9 300.633 31.2 299.699 31.8C298.166 33 297.399 34.8667 297.399 37.4C297.399 39.4 297.766 40.9333 298.499 42C298.966 42.7333 299.699 43.1 300.699 43.1Z" fill="#F7C93E"/>
<path d="M331.345 69.1C330.411 69.1 329.445 68.9333 328.445 68.6C326.578 67.7333 325.345 66.4333 324.745 64.7C324.278 63.3 324.045 61.6333 324.045 59.7C324.045 51.7667 325.478 43.8333 328.345 35.9C330.678 29.2333 334.111 23.1 338.645 17.5C341.511 13.9667 344.645 12.1333 348.045 12C351.778 12.1333 355.078 14.2 357.945 18.2C362.478 24.3333 365.511 30.9667 367.045 38.1C368.445 44.6333 369.145 51.7667 369.145 59.5C369.145 61.2333 368.978 62.8 368.645 64.2C368.311 65.6 367.445 66.8 366.045 67.8C364.911 68.5333 363.445 68.9 361.645 68.9C360.311 68.9 359.078 68.6333 357.945 68.1C355.545 66.6333 353.911 64.6667 353.045 62.2C352.178 59.6667 351.745 57.0333 351.745 54.3L351.645 48.3C350.511 48.5 349.345 48.6 348.145 48.6C347.211 48.6 346.278 48.5333 345.345 48.4C345.078 53.6 343.445 58.5 340.445 63.1C339.311 65.0333 337.711 66.6333 335.645 67.9C334.245 68.7 332.811 69.1 331.345 69.1ZM348.745 37.9C349.211 37.9 349.745 37.6667 350.345 37.2C350.945 36.6667 351.311 35.9333 351.445 35L351.545 33.7C351.545 31.8333 351.211 30.2333 350.545 28.9C350.145 27.9667 349.445 27.3333 348.445 27L348.045 26.9C347.645 26.9 347.211 27.4333 346.745 28.5L346.645 28.8C346.178 30.0667 345.945 31.3667 345.945 32.7C345.945 34.3 346.245 35.6333 346.845 36.7C347.245 37.5 347.878 37.9 348.745 37.9Z" fill="#F7C93E"/>
<path d="M397.329 78.1C392.462 78.1 387.829 76.7333 383.429 74C375.762 68.6667 371.429 61.0333 370.429 51.1L370.329 48.6C370.329 46.8667 370.462 45.1667 370.729 43.5C372.462 33.5667 377.129 25.7667 384.729 20.1C389.396 16.9 394.329 15.3 399.529 15.3C401.129 15.3 402.729 15.4333 404.329 15.7C408.929 16.5667 412.262 18.5 414.329 21.5C415.329 23.0333 415.829 24.7333 415.829 26.6C415.829 26.8667 415.796 27.6 415.729 28.8C415.662 30 414.796 31.3 413.129 32.7C411.662 33.7667 409.829 34.3 407.629 34.3C406.362 34.3 404.729 34.1 402.729 33.7C400.729 33.3 399.196 33.1 398.129 33.1C393.396 33.1 389.462 35.2 386.329 39.4C384.329 42.3333 383.329 45.4 383.329 48.6C383.329 50.4 383.629 52.2333 384.229 54.1C386.296 59.5 389.762 62.7667 394.629 63.9C395.429 64.0333 396.196 64.1 396.929 64.1C397.796 64.1 398.562 64 399.229 63.8C400.829 63.2 401.862 62.2 402.329 60.8C402.396 60.5333 402.429 60.2333 402.429 59.9C402.429 57.9 401.129 56.9 398.529 56.9C396.929 56.9 395.796 56.6667 395.129 56.2C394.196 55.5333 393.729 54.5333 393.729 53.2C393.729 50.8 395.096 49.1667 397.829 48.3C399.229 47.8333 401.029 47.6 403.229 47.6C406.762 47.6 409.796 48.3333 412.329 49.8H412.429C413.362 50.4 414.229 51.1 415.029 51.9C417.229 54.4333 418.329 57.3 418.329 60.5C418.329 61.7667 418.129 63.1333 417.729 64.6C416.396 68.8 413.629 72.2 409.429 74.8C405.762 77 401.729 78.1 397.329 78.1Z" fill="#F7C93E"/>
<path d="M427.659 78.9H427.159C424.626 78.3 422.859 76.7667 421.859 74.3C421.059 71.9667 420.659 69.2333 420.659 66.1C420.459 61.7 420.359 57.3333 420.359 53C420.359 41.8 420.959 32.8 422.159 26C423.026 22.2667 425.026 19.5333 428.159 17.8C429.293 17.2 430.359 16.9 431.359 16.9C433.293 16.9 435.093 17.9333 436.759 20C438.026 22.2 438.726 24.6333 438.859 27.3C439.459 32.1 439.759 36.8667 439.759 41.6C439.759 50.9333 438.626 60.1667 436.359 69.3C435.826 71.7667 434.859 74 433.459 76C431.926 77.9333 429.993 78.9 427.659 78.9Z" fill="#F7C93E"/>
<path d="M221.921 32.1C222.921 32.1 223.854 31.9333 224.721 31.6C225.654 31.2667 226.421 30.8333 227.021 30.3C227.621 29.7667 227.988 29.0333 228.121 28.1C228.121 26.5667 227.454 25.4 226.121 24.6C225.188 24 224.188 23.7 223.121 23.7C220.988 23.7 219.454 24.0667 218.521 24.8C217.988 25.4 217.721 26.5333 217.721 28.2C217.788 29.4667 218.254 30.5 219.121 31.3C219.854 31.8333 220.688 32.1 221.621 32.1H221.921Z" fill="white"/>
<path d="M300.699 43.1C301.166 43.1 301.633 43.0333 302.099 42.9C303.566 42.3 304.699 41.3 305.499 39.9C306.299 38.5 306.699 37.0333 306.699 35.5C306.699 34.2333 306.266 33.1333 305.399 32.2C304.733 31.4667 303.899 31.0333 302.899 30.9C301.699 30.9 300.633 31.2 299.699 31.8C298.166 33 297.399 34.8667 297.399 37.4C297.399 39.4 297.766 40.9333 298.499 42C298.966 42.7333 299.699 43.1 300.699 43.1Z" fill="white"/>
<path d="M348.745 37.9C349.211 37.9 349.745 37.6667 350.345 37.2C350.945 36.6667 351.311 35.9333 351.445 35L351.545 33.7C351.545 31.8333 351.211 30.2333 350.545 28.9C350.145 27.9667 349.445 27.3333 348.445 27L348.045 26.9C347.645 26.9 347.211 27.4333 346.745 28.5L346.645 28.8C346.178 30.0667 345.945 31.3667 345.945 32.7C345.945 34.3 346.245 35.6333 346.845 36.7C347.245 37.5 347.878 37.9 348.745 37.9Z" fill="white"/>
<path d="M41.8 80H40.2C37 80 33.8333 79.6667 30.7 79C24.2333 77.5333 19.7 74.8333 17.1 70.9C15.2333 67.3667 14.3 63.4667 14.3 59.2V58.8C14.1 55.7333 14 52.7 14 49.7V44.4C14 39.7333 14.3333 34.8667 15 29.8C15.7333 24.7333 17.7333 20.3333 21 16.6C24.8667 12.8 29.3 10.9 34.3 10.9C35.1667 10.9 36.0667 10.9667 37 11.1C42.7333 12.3 47.7333 15.1667 52 19.7C57.2667 24.9 61.2333 31 63.9 38C65.5 42.3333 66.3 46.7 66.3 51.1C66.3 54.1 65.9333 57.1 65.2 60.1C63.0667 67.7667 58.8 73.4667 52.4 77.2C49.0667 78.9333 45.5333 79.8667 41.8 80ZM38.6 64.6C40.2667 64.6 41.8667 64.2333 43.4 63.5C47.4667 60.9 49.5 56.4667 49.5 50.2C49.5 47.2 48.9333 44.3 47.8 41.5C46.2667 37.7 44.3 34.2667 41.9 31.2C39.3667 27.5333 36.7333 25.7 34 25.7H32.4C30.7333 25.8333 29.9 28.9 29.9 34.9C29.9 36.5667 29.9333 37.8 30 38.6C30.1333 44.2 30.4667 49.8 31 55.4C31.1333 58.9333 31.9667 61.5 33.5 63.1C34.7667 64.1 36.4667 64.6 38.6 64.6Z" stroke="white" stroke-width="20" mask="url(#path-1-outside-1_3046_114)"/>
<path d="M86.6109 76.8C84.5443 76.8 82.4776 76.6 80.4109 76.2C74.8109 75.0667 71.0443 72.6 69.1109 68.8C68.3776 67.1333 68.0109 65.4 68.0109 63.6C68.0109 58.1333 70.8776 51.5667 76.6109 43.9C79.1443 40.5667 81.9109 37.1333 84.9109 33.6L90.7109 26.5C86.7776 28.3 82.7109 29.3333 78.5109 29.6C75.3109 29.6 73.1109 28.5667 71.9109 26.5C71.5109 25.7 71.3109 24.8667 71.3109 24C71.3109 22.3333 71.9443 20.8 73.2109 19.4C75.0776 17.6 77.2776 16.4 79.8109 15.8C84.0776 14.5333 88.4109 13.9 92.8109 13.9C94.7443 13.9 96.7109 14.0333 98.7109 14.3C101.311 14.4333 103.578 15.3333 105.511 17C106.911 18.4667 107.611 20.6667 107.611 23.6C107.611 24.4 107.544 25.2 107.411 26C106.878 29.4667 105.744 32.7333 104.011 35.8C101.878 39.6 99.0109 43.6667 95.4109 48C91.8776 52.2667 88.8109 56.8667 86.2109 61.8C89.1443 60.6 92.1109 59.7667 95.1109 59.3C95.8443 59.1667 96.5776 59.1 97.3109 59.1C99.7109 59.1 101.978 59.7333 104.111 61C106.778 62.6667 108.111 64.7333 108.111 67.2C107.711 70.6667 104.044 73.3 97.1109 75.1L96.8109 75.2C93.4109 76.2667 90.0109 76.8 86.6109 76.8Z" stroke="white" stroke-width="20" mask="url(#path-1-outside-1_3046_114)"/>
<path d="M117.698 78.9H117.198C114.665 78.3 112.898 76.7667 111.898 74.3C111.098 71.9667 110.698 69.2333 110.698 66.1C110.498 61.7 110.398 57.3333 110.398 53C110.398 41.8 110.998 32.8 112.198 26C113.065 22.2667 115.065 19.5333 118.198 17.8C119.332 17.2 120.398 16.9 121.398 16.9C123.332 16.9 125.132 17.9333 126.798 20C128.065 22.2 128.765 24.6333 128.898 27.3C129.498 32.1 129.798 36.8667 129.798 41.6C129.798 50.9333 128.665 60.1667 126.398 69.3C125.865 71.7667 124.898 74 123.498 76C121.965 77.9333 120.032 78.9 117.698 78.9Z" stroke="white" stroke-width="20" mask="url(#path-1-outside-1_3046_114)"/>
<path d="M167.259 74.3H166.859C165.726 74.3 164.659 74 163.659 73.4C161.926 72 160.693 70.1333 159.959 67.8C157.426 61.6 155.359 55.2667 153.759 48.8L153.259 46.9C152.393 53.3667 150.659 59.5667 148.059 65.5C147.193 67.5667 146.026 69.3333 144.559 70.8C143.293 72 141.893 72.6 140.359 72.6C139.893 72.6 139.426 72.5333 138.959 72.4C136.293 71.5333 134.593 68.8 133.859 64.2C132.926 58.8 132.459 53.4 132.459 48C132.459 40.8 133.293 33.6 134.959 26.4V26.1C135.359 23.9 135.926 21.7 136.659 19.5C137.459 17.3 138.759 15.5 140.559 14.1C142.093 13.0333 143.659 12.5 145.259 12.5C146.393 12.5 147.559 12.7667 148.759 13.3C151.293 14.9 152.993 17.2667 153.859 20.4C154.393 22.6667 154.659 24.9667 154.659 27.3L154.559 30.6L156.259 28.4C158.393 25.7333 160.593 23.2 162.859 20.8C164.259 19 165.959 17.7667 167.959 17.1L169.259 17C171.326 17 172.993 17.8667 174.259 19.6C175.593 21.2667 176.259 23.1333 176.259 25.2L176.159 26.6C175.759 29.0667 174.859 31.3333 173.459 33.4C170.859 37.2667 167.426 40.2333 163.159 42.3C164.359 43.0333 165.493 43.8667 166.559 44.8C170.826 48.6 173.593 53.3333 174.859 59C175.259 60.4667 175.459 61.9 175.459 63.3C175.459 67.7667 173.926 71.0667 170.859 73.2C169.726 73.9333 168.526 74.3 167.259 74.3Z" stroke="white" stroke-width="20" mask="url(#path-1-outside-1_3046_114)"/>
<path d="M185.96 78.9H185.46C182.927 78.3 181.16 76.7667 180.16 74.3C179.36 71.9667 178.96 69.2333 178.96 66.1C178.76 61.7 178.66 57.3333 178.66 53C178.66 41.8 179.26 32.8 180.46 26C181.327 22.2667 183.327 19.5333 186.46 17.8C187.593 17.2 188.66 16.9 189.66 16.9C191.593 16.9 193.393 17.9333 195.06 20C196.327 22.2 197.027 24.6333 197.16 27.3C197.76 32.1 198.06 36.8667 198.06 41.6C198.06 50.9333 196.927 60.1667 194.66 69.3C194.127 71.7667 193.16 74 191.76 76C190.227 77.9333 188.293 78.9 185.96 78.9Z" stroke="white" stroke-width="20" mask="url(#path-1-outside-1_3046_114)"/>
<path d="M209.521 74.2H208.921C206.321 74.2 204.554 72.9 203.621 70.3C202.754 67.6333 202.254 64.5333 202.121 61L201.021 39.3C200.821 37.5667 200.721 35.8333 200.721 34.1C200.721 30.2333 201.188 26.4667 202.121 22.8C204.121 17.0667 207.721 13.3 212.921 11.5C215.721 10.5 218.554 10 221.421 10C223.954 10 226.554 10.4 229.221 11.2C234.754 12.8 238.788 16.1333 241.321 21.2C242.188 23.1333 242.621 25.1 242.621 27.1C242.621 27.7667 242.488 29 242.221 30.8C241.954 32.5333 240.854 34.3667 238.921 36.3L235.021 39.6C233.688 40.8 232.921 42.2667 232.721 44C232.788 44.9333 233.088 45.8 233.621 46.6C234.488 48.1333 236.454 50 239.521 52.2C240.388 52.8 241.254 53.4667 242.121 54.2C244.521 55.9333 246.254 58.1333 247.321 60.8C247.654 61.5333 247.821 62.5 247.821 63.7C247.821 65.5667 247.188 67.2333 245.921 68.7C244.521 69.9 242.754 70.5 240.621 70.5C239.288 70.5 237.988 70.3 236.721 69.9C231.388 68.1667 227.321 64.8333 224.521 59.9C223.988 58.5 223.288 57.3 222.421 56.3C221.488 54.9667 220.421 54.3 219.221 54.3C216.754 54.3 215.521 55.8667 215.521 59C215.521 59.8 215.588 60.7333 215.721 61.8C215.988 63.2667 216.121 64.6 216.121 65.8C216.121 67.6 215.754 69.3667 215.021 71.1C214.354 72.7667 212.521 73.8 209.521 74.2ZM221.921 32.1C222.921 32.1 223.854 31.9333 224.721 31.6C225.654 31.2667 226.421 30.8333 227.021 30.3C227.621 29.7667 227.988 29.0333 228.121 28.1C228.121 26.5667 227.454 25.4 226.121 24.6C225.188 24 224.188 23.7 223.121 23.7C220.988 23.7 219.454 24.0667 218.521 24.8C217.988 25.4 217.721 26.5333 217.721 28.2C217.788 29.4667 218.254 30.5 219.121 31.3C219.854 31.8333 220.688 32.1 221.621 32.1H221.921Z" stroke="white" stroke-width="20" mask="url(#path-1-outside-1_3046_114)"/>
<path d="M293.699 80.2H292.799C291.666 80.2 290.533 80 289.399 79.6C286.733 78.4667 284.799 76.6 283.599 74C281.666 69.8 280.699 63.2 280.699 54.2C280.699 51.3333 280.833 48.4667 281.099 45.6L281.299 41.1C281.299 36.8333 282.199 32.8 283.999 29C286.533 24.6 290.266 21.4 295.199 19.4C297.999 18.3333 300.866 17.8 303.799 17.8C305.999 17.8 308.199 18.1 310.399 18.7C315.999 20.3667 320.133 23.6333 322.799 28.5C323.799 30.7667 324.299 33 324.299 35.2C324.299 38 323.466 40.7667 321.799 43.5C319.133 46.9667 315.633 49.4 311.299 50.8L310.599 51C303.866 53.5333 300.466 58.1667 300.399 64.9V66.6C300.399 68.2667 300.333 69.9667 300.199 71.7C300.133 74.3667 299.233 76.6333 297.499 78.5C296.433 79.4333 295.166 80 293.699 80.2ZM300.699 43.1C301.166 43.1 301.633 43.0333 302.099 42.9C303.566 42.3 304.699 41.3 305.499 39.9C306.299 38.5 306.699 37.0333 306.699 35.5C306.699 34.2333 306.266 33.1333 305.399 32.2C304.733 31.4667 303.899 31.0333 302.899 30.9C301.699 30.9 300.633 31.2 299.699 31.8C298.166 33 297.399 34.8667 297.399 37.4C297.399 39.4 297.766 40.9333 298.499 42C298.966 42.7333 299.699 43.1 300.699 43.1Z" stroke="white" stroke-width="20" mask="url(#path-1-outside-1_3046_114)"/>
<path d="M331.345 69.1C330.411 69.1 329.445 68.9333 328.445 68.6C326.578 67.7333 325.345 66.4333 324.745 64.7C324.278 63.3 324.045 61.6333 324.045 59.7C324.045 51.7667 325.478 43.8333 328.345 35.9C330.678 29.2333 334.111 23.1 338.645 17.5C341.511 13.9667 344.645 12.1333 348.045 12C351.778 12.1333 355.078 14.2 357.945 18.2C362.478 24.3333 365.511 30.9667 367.045 38.1C368.445 44.6333 369.145 51.7667 369.145 59.5C369.145 61.2333 368.978 62.8 368.645 64.2C368.311 65.6 367.445 66.8 366.045 67.8C364.911 68.5333 363.445 68.9 361.645 68.9C360.311 68.9 359.078 68.6333 357.945 68.1C355.545 66.6333 353.911 64.6667 353.045 62.2C352.178 59.6667 351.745 57.0333 351.745 54.3L351.645 48.3C350.511 48.5 349.345 48.6 348.145 48.6C347.211 48.6 346.278 48.5333 345.345 48.4C345.078 53.6 343.445 58.5 340.445 63.1C339.311 65.0333 337.711 66.6333 335.645 67.9C334.245 68.7 332.811 69.1 331.345 69.1ZM348.745 37.9C349.211 37.9 349.745 37.6667 350.345 37.2C350.945 36.6667 351.311 35.9333 351.445 35L351.545 33.7C351.545 31.8333 351.211 30.2333 350.545 28.9C350.145 27.9667 349.445 27.3333 348.445 27L348.045 26.9C347.645 26.9 347.211 27.4333 346.745 28.5L346.645 28.8C346.178 30.0667 345.945 31.3667 345.945 32.7C345.945 34.3 346.245 35.6333 346.845 36.7C347.245 37.5 347.878 37.9 348.745 37.9Z" stroke="white" stroke-width="20" mask="url(#path-1-outside-1_3046_114)"/>
<path d="M397.329 78.1C392.462 78.1 387.829 76.7333 383.429 74C375.762 68.6667 371.429 61.0333 370.429 51.1L370.329 48.6C370.329 46.8667 370.462 45.1667 370.729 43.5C372.462 33.5667 377.129 25.7667 384.729 20.1C389.396 16.9 394.329 15.3 399.529 15.3C401.129 15.3 402.729 15.4333 404.329 15.7C408.929 16.5667 412.262 18.5 414.329 21.5C415.329 23.0333 415.829 24.7333 415.829 26.6C415.829 26.8667 415.796 27.6 415.729 28.8C415.662 30 414.796 31.3 413.129 32.7C411.662 33.7667 409.829 34.3 407.629 34.3C406.362 34.3 404.729 34.1 402.729 33.7C400.729 33.3 399.196 33.1 398.129 33.1C393.396 33.1 389.462 35.2 386.329 39.4C384.329 42.3333 383.329 45.4 383.329 48.6C383.329 50.4 383.629 52.2333 384.229 54.1C386.296 59.5 389.762 62.7667 394.629 63.9C395.429 64.0333 396.196 64.1 396.929 64.1C397.796 64.1 398.562 64 399.229 63.8C400.829 63.2 401.862 62.2 402.329 60.8C402.396 60.5333 402.429 60.2333 402.429 59.9C402.429 57.9 401.129 56.9 398.529 56.9C396.929 56.9 395.796 56.6667 395.129 56.2C394.196 55.5333 393.729 54.5333 393.729 53.2C393.729 50.8 395.096 49.1667 397.829 48.3C399.229 47.8333 401.029 47.6 403.229 47.6C406.762 47.6 409.796 48.3333 412.329 49.8H412.429C413.362 50.4 414.229 51.1 415.029 51.9C417.229 54.4333 418.329 57.3 418.329 60.5C418.329 61.7667 418.129 63.1333 417.729 64.6C416.396 68.8 413.629 72.2 409.429 74.8C405.762 77 401.729 78.1 397.329 78.1Z" stroke="white" stroke-width="20" mask="url(#path-1-outside-1_3046_114)"/>
<path d="M427.659 78.9H427.159C424.626 78.3 422.859 76.7667 421.859 74.3C421.059 71.9667 420.659 69.2333 420.659 66.1C420.459 61.7 420.359 57.3333 420.359 53C420.359 41.8 420.959 32.8 422.159 26C423.026 22.2667 425.026 19.5333 428.159 17.8C429.293 17.2 430.359 16.9 431.359 16.9C433.293 16.9 435.093 17.9333 436.759 20C438.026 22.2 438.726 24.6333 438.859 27.3C439.459 32.1 439.759 36.8667 439.759 41.6C439.759 50.9333 438.626 60.1667 436.359 69.3C435.826 71.7667 434.859 74 433.459 76C431.926 77.9333 429.993 78.9 427.659 78.9Z" stroke="white" stroke-width="20" mask="url(#path-1-outside-1_3046_114)"/>
<path d="M221.921 32.1C222.921 32.1 223.854 31.9333 224.721 31.6C225.654 31.2667 226.421 30.8333 227.021 30.3C227.621 29.7667 227.988 29.0333 228.121 28.1C228.121 26.5667 227.454 25.4 226.121 24.6C225.188 24 224.188 23.7 223.121 23.7C220.988 23.7 219.454 24.0667 218.521 24.8C217.988 25.4 217.721 26.5333 217.721 28.2C217.788 29.4667 218.254 30.5 219.121 31.3C219.854 31.8333 220.688 32.1 221.621 32.1H221.921Z" stroke="white" stroke-width="20" mask="url(#path-1-outside-1_3046_114)"/>
<path d="M300.699 43.1C301.166 43.1 301.633 43.0333 302.099 42.9C303.566 42.3 304.699 41.3 305.499 39.9C306.299 38.5 306.699 37.0333 306.699 35.5C306.699 34.2333 306.266 33.1333 305.399 32.2C304.733 31.4667 303.899 31.0333 302.899 30.9C301.699 30.9 300.633 31.2 299.699 31.8C298.166 33 297.399 34.8667 297.399 37.4C297.399 39.4 297.766 40.9333 298.499 42C298.966 42.7333 299.699 43.1 300.699 43.1Z" stroke="white" stroke-width="20" mask="url(#path-1-outside-1_3046_114)"/>
<path d="M348.745 37.9C349.211 37.9 349.745 37.6667 350.345 37.2C350.945 36.6667 351.311 35.9333 351.445 35L351.545 33.7C351.545 31.8333 351.211 30.2333 350.545 28.9C350.145 27.9667 349.445 27.3333 348.445 27L348.045 26.9C347.645 26.9 347.211 27.4333 346.745 28.5L346.645 28.8C346.178 30.0667 345.945 31.3667 345.945 32.7C345.945 34.3 346.245 35.6333 346.845 36.7C347.245 37.5 347.878 37.9 348.745 37.9Z" stroke="white" stroke-width="20" mask="url(#path-1-outside-1_3046_114)"/>
</g>
<defs>
<filter id="filter0_d_3046_114" x="0" y="0" width="453.76" height="98.2" filterUnits="userSpaceOnUse" color-interpolation-filters="sRGB">
<feFlood flood-opacity="0" result="BackgroundImageFix"/>
<feColorMatrix in="SourceAlpha" type="matrix" values="0 0 0 0 0 0 0 0 0 0 0 0 0 0 0 0 0 0 127 0" result="hardAlpha"/>
<feOffset dy="4"/>
<feGaussianBlur stdDeviation="2"/>
<feComposite in2="hardAlpha" operator="out"/>
<feColorMatrix type="matrix" values="0 0 0 0 0 0 0 0 0 0 0 0 0 0 0 0 0 0 0.25 0"/>
<feBlend mode="normal" in2="BackgroundImageFix" result="effect1_dropShadow_3046_114"/>
<feBlend mode="normal" in="SourceGraphic" in2="effect1_dropShadow_3046_114" result="shape"/>
</filter>
</defs>
</svg>
