<svg width="377" height="571" viewBox="0 0 377 571" fill="none" xmlns="http://www.w3.org/2000/svg">
<g filter="url(#filter0_i_3039_195)">
<circle cx="266.705" cy="333.247" r="53.6659" transform="rotate(36.2145 266.705 333.247)" fill="#5FCCF5"/>
</g>
<circle cx="266.705" cy="333.247" r="59.7185" transform="rotate(36.2145 266.705 333.247)" stroke="white" stroke-width="12.1051"/>
<path d="M266.783 301.404L256.326 312.952L271.402 318.59L267.927 325.248L255.232 317.452L255.447 333.413L247.606 332.373L250.416 316.926L237.058 324.649L233.505 317.345L248.656 312.636L237.521 302.982L242.819 297.659L252.615 310.234L260.402 296.732L266.783 301.404ZM302.644 327.665L292.188 339.213L307.264 344.851L303.789 351.509L291.093 343.712L291.308 359.674L283.468 358.633L286.277 343.186L272.92 350.909L269.366 343.606L284.517 338.897L273.382 329.243L278.68 323.92L288.477 336.495L296.264 322.993L302.644 327.665Z" fill="white"/>
<g filter="url(#filter1_i_3039_195)">
<circle cx="173.77" cy="242.366" r="53.6659" transform="rotate(-24.9161 173.77 242.366)" fill="#FFF07A"/>
</g>
<circle cx="173.77" cy="242.366" r="59.7185" transform="rotate(-24.9161 173.77 242.366)" stroke="white" stroke-width="12.1051"/>
<path d="M140.976 271.58L163.231 247.272L129.552 246.988L126.901 241.279L169.363 242.466L171.062 246.125L143.628 277.288L140.976 271.58ZM219.984 241.819L178.474 242.682L176.774 239.023L203.257 205.81L205.909 211.519L184.368 237.364L217.332 236.11L219.984 241.819Z" fill="white"/>
<g filter="url(#filter2_i_3039_195)">
<circle cx="89.0786" cy="345.707" r="53.6659" transform="rotate(-16.1617 89.0786 345.707)" fill="#FF7979"/>
</g>
<circle cx="89.0786" cy="345.707" r="59.7185" transform="rotate(-16.1617 89.0786 345.707)" stroke="white" stroke-width="12.1051"/>
<path d="M49.65 364.2L55.9291 324.403L59.8047 323.28L88.0956 353.058L82.0497 354.811L60.0335 331.027L55.6958 362.448L49.65 364.2ZM94.007 351.345L100.286 311.548L104.162 310.425L132.453 340.204L126.407 341.956L104.391 318.173L100.053 349.593L94.007 351.345Z" fill="white"/>
<rect x="29.0527" y="421.257" width="318.768" height="149.296" rx="16.1401" fill="#03906E"/>
<g filter="url(#filter3_f_3039_195)">
<rect x="41.1582" y="409.959" width="288.908" height="11.2981" rx="5.64905" fill="#0B070C"/>
</g>
<g filter="url(#filter4_i_3039_195)">
<rect x="47.6133" y="438.205" width="282.452" height="132.349" rx="16.1401" fill="#0C9F7C"/>
</g>
<rect x="52.0518" y="442.643" width="273.575" height="123.472" rx="11.7016" stroke="#45C789" stroke-width="8.87707"/>
<g filter="url(#filter5_d_3039_195)">
<rect x="74.2441" y="468.064" width="80.7007" height="82.3147" rx="19.3682" fill="#F55E50"/>
<rect x="79.0862" y="472.906" width="71.0166" height="72.6306" rx="14.5261" stroke="#F71F1F" stroke-width="9.68408"/>
</g>
<g filter="url(#filter6_d_3039_195)">
<rect x="164.629" y="468.064" width="134.77" height="82.3147" rx="19.3682" fill="#FED718"/>
<rect x="169.471" y="472.906" width="125.086" height="72.6306" rx="14.5261" stroke="#FFA600" stroke-width="9.68408"/>
</g>
<path d="M124.048 509.144C124.048 511.485 123.873 513.57 123.523 515.399C123.174 517.228 122.609 518.788 121.829 520.079C121.075 521.344 120.08 522.312 118.843 522.985C117.632 523.657 116.166 523.993 114.445 523.993C112.293 523.993 110.504 523.402 109.078 522.218C107.679 521.034 106.63 519.34 105.931 517.134C105.258 514.901 104.922 512.238 104.922 509.144C104.922 506.024 105.231 503.361 105.85 501.155C106.496 498.949 107.518 497.268 108.917 496.111C110.315 494.928 112.158 494.336 114.445 494.336C116.597 494.336 118.385 494.928 119.811 496.111C121.237 497.268 122.299 498.949 122.999 501.155C123.698 503.361 124.048 506.024 124.048 509.144ZM108.473 509.144C108.473 511.781 108.661 513.973 109.038 515.722C109.441 517.47 110.073 518.788 110.934 519.676C111.822 520.537 112.992 520.967 114.445 520.967C115.897 520.967 117.054 520.537 117.915 519.676C118.802 518.815 119.448 517.51 119.851 515.762C120.255 513.986 120.457 511.781 120.457 509.144C120.457 506.508 120.255 504.329 119.851 502.608C119.448 500.859 118.802 499.554 117.915 498.694C117.054 497.806 115.897 497.362 114.445 497.362C112.992 497.362 111.822 497.806 110.934 498.694C110.073 499.554 109.441 500.859 109.038 502.608C108.661 504.329 108.473 506.508 108.473 509.144Z" fill="white"/>
<path d="M248.646 506.647C248.7 507.615 248.754 508.611 248.808 509.633C248.861 510.655 248.808 511.597 248.646 512.457C248.539 513.318 248.323 514.071 248.001 514.717C247.678 515.309 247.167 515.685 246.467 515.847C246.091 515.954 245.176 516.008 243.724 516.008C242.325 516.008 240.63 515.954 238.639 515.847C238.693 517.246 238.72 518.671 238.72 520.124C238.774 521.523 238.828 522.948 238.881 524.401C238.774 524.831 238.586 525.181 238.317 525.45C238.048 525.719 237.644 525.961 237.106 526.176C236.622 526.392 235.896 526.553 234.927 526.661C234.013 526.768 233.044 526.876 232.022 526.983C231.054 527.037 230.139 527.037 229.278 526.983C228.417 526.876 227.664 526.661 227.018 526.338C226.373 526.015 225.969 525.504 225.808 524.805C225.7 524.32 225.62 523.191 225.566 521.415C225.566 519.64 225.62 517.541 225.727 515.12C224.436 515.013 223.226 514.932 222.096 514.878C220.966 514.825 219.998 514.771 219.191 514.717C218.222 514.663 217.334 514.609 216.527 514.556C216.258 514.609 216.016 514.529 215.801 514.313C215.64 514.152 215.478 513.91 215.317 513.587C215.155 513.211 215.075 512.646 215.075 511.892C215.021 511.139 214.967 510.278 214.913 509.31C214.913 508.288 214.913 507.346 214.913 506.485C214.967 505.571 215.075 504.791 215.236 504.145C215.398 503.5 215.667 503.15 216.043 503.096L226.454 502.935C226.561 501.697 226.669 500.567 226.776 499.545C226.884 498.523 226.992 497.635 227.099 496.882C227.207 495.967 227.287 495.134 227.341 494.38C227.287 494.165 227.368 493.95 227.583 493.735C227.745 493.573 228.014 493.412 228.39 493.251C228.767 493.089 229.332 493.008 230.085 493.008C230.838 493.008 231.699 493.035 232.668 493.089C233.69 493.089 234.631 493.143 235.492 493.251C236.407 493.304 237.187 493.439 237.832 493.654C238.478 493.815 238.801 494.084 238.801 494.461C238.747 495.86 238.693 497.259 238.639 498.658C238.639 500.056 238.639 501.455 238.639 502.854L246.387 502.773C246.763 502.881 247.113 503.069 247.436 503.338C247.705 503.607 247.947 504.011 248.162 504.549C248.377 505.033 248.539 505.732 248.646 506.647Z" fill="white"/>
<g filter="url(#filter7_d_3039_195)">
<mask id="mask0_3039_195" style="mask-type:alpha" maskUnits="userSpaceOnUse" x="16" y="62" width="345" height="360">
<rect x="18.9651" y="65.7711" width="338.943" height="352.662" rx="35.1048" fill="#AFDBDE" fill-opacity="0.2"/>
<rect x="18.9651" y="65.7711" width="338.943" height="352.662" rx="35.1048" fill="white" fill-opacity="0.4"/>
<rect x="18.9651" y="65.7711" width="338.943" height="352.662" rx="35.1048" stroke="white" stroke-width="5.64905"/>
</mask>
<g mask="url(#mask0_3039_195)">
<rect x="18.9651" y="65.7711" width="338.943" height="352.662" rx="35.1048" fill="#AFDBDE" fill-opacity="0.2"/>
<rect x="18.9651" y="65.7711" width="338.943" height="352.662" rx="35.1048" fill="url(#paint0_linear_3039_195)" fill-opacity="0.4"/>
<rect x="18.9651" y="65.7711" width="338.943" height="352.662" rx="35.1048" stroke="white" stroke-width="5.64905"/>
<rect width="68.5951" height="470.938" transform="matrix(0.928528 0.371262 -0.235099 0.971971 132.639 -8.89526)" fill="white" fill-opacity="0.4"/>
<rect width="90.2311" height="470.938" transform="matrix(0.928528 0.371262 -0.235099 0.971971 219.752 16.9473)" fill="white" fill-opacity="0.4"/>
</g>
</g>
<rect x="29.0527" y="35.5083" width="318.768" height="65.3675" rx="16.1401" fill="#03906E"/>
<g filter="url(#filter8_i_3039_195)">
<rect x="72.6309" width="225.155" height="124.279" rx="21.7892" fill="#FED718"/>
</g>
<rect x="80.2974" y="7.66656" width="209.822" height="108.946" rx="14.1226" stroke="white" stroke-width="15.3331"/>
<defs>
<filter id="filter0_i_3039_195" x="200.93" y="267.471" width="131.551" height="134.779" filterUnits="userSpaceOnUse" color-interpolation-filters="sRGB">
<feFlood flood-opacity="0" result="BackgroundImageFix"/>
<feBlend mode="normal" in="SourceGraphic" in2="BackgroundImageFix" result="shape"/>
<feColorMatrix in="SourceAlpha" type="matrix" values="0 0 0 0 0 0 0 0 0 0 0 0 0 0 0 0 0 0 127 0" result="hardAlpha"/>
<feMorphology radius="7.26306" operator="erode" in="SourceAlpha" result="effect1_innerShadow_3039_195"/>
<feOffset dy="3.22803"/>
<feGaussianBlur stdDeviation="13.3156"/>
<feComposite in2="hardAlpha" operator="arithmetic" k2="-1" k3="1"/>
<feColorMatrix type="matrix" values="0 0 0 0 0.623529 0 0 0 0 0.368627 0 0 0 0 0.109804 0 0 0 1 0"/>
<feBlend mode="normal" in2="shape" result="effect1_innerShadow_3039_195"/>
</filter>
<filter id="filter1_i_3039_195" x="107.984" y="176.579" width="131.572" height="134.802" filterUnits="userSpaceOnUse" color-interpolation-filters="sRGB">
<feFlood flood-opacity="0" result="BackgroundImageFix"/>
<feBlend mode="normal" in="SourceGraphic" in2="BackgroundImageFix" result="shape"/>
<feColorMatrix in="SourceAlpha" type="matrix" values="0 0 0 0 0 0 0 0 0 0 0 0 0 0 0 0 0 0 127 0" result="hardAlpha"/>
<feMorphology radius="7.26306" operator="erode" in="SourceAlpha" result="effect1_innerShadow_3039_195"/>
<feOffset dy="3.22803"/>
<feGaussianBlur stdDeviation="13.3156"/>
<feComposite in2="hardAlpha" operator="arithmetic" k2="-1" k3="1"/>
<feColorMatrix type="matrix" values="0 0 0 0 0.2 0 0 0 0 0.698039 0 0 0 0 0.580392 0 0 0 1 0"/>
<feBlend mode="normal" in2="shape" result="effect1_innerShadow_3039_195"/>
</filter>
<filter id="filter2_i_3039_195" x="23.291" y="279.919" width="131.576" height="134.804" filterUnits="userSpaceOnUse" color-interpolation-filters="sRGB">
<feFlood flood-opacity="0" result="BackgroundImageFix"/>
<feBlend mode="normal" in="SourceGraphic" in2="BackgroundImageFix" result="shape"/>
<feColorMatrix in="SourceAlpha" type="matrix" values="0 0 0 0 0 0 0 0 0 0 0 0 0 0 0 0 0 0 127 0" result="hardAlpha"/>
<feMorphology radius="7.26306" operator="erode" in="SourceAlpha" result="effect1_innerShadow_3039_195"/>
<feOffset dy="3.22803"/>
<feGaussianBlur stdDeviation="13.3156"/>
<feComposite in2="hardAlpha" operator="arithmetic" k2="-1" k3="1"/>
<feColorMatrix type="matrix" values="0 0 0 0 1 0 0 0 0 0.953288 0 0 0 0 0.599609 0 0 0 0.72 0"/>
<feBlend mode="normal" in2="shape" result="effect1_innerShadow_3039_195"/>
</filter>
<filter id="filter3_f_3039_195" x="16.948" y="385.749" width="337.329" height="59.7185" filterUnits="userSpaceOnUse" color-interpolation-filters="sRGB">
<feFlood flood-opacity="0" result="BackgroundImageFix"/>
<feBlend mode="normal" in="SourceGraphic" in2="BackgroundImageFix" result="shape"/>
<feGaussianBlur stdDeviation="12.1051" result="effect1_foregroundBlur_3039_195"/>
</filter>
<filter id="filter4_i_3039_195" x="47.6133" y="438.205" width="282.453" height="148.489" filterUnits="userSpaceOnUse" color-interpolation-filters="sRGB">
<feFlood flood-opacity="0" result="BackgroundImageFix"/>
<feBlend mode="normal" in="SourceGraphic" in2="BackgroundImageFix" result="shape"/>
<feColorMatrix in="SourceAlpha" type="matrix" values="0 0 0 0 0 0 0 0 0 0 0 0 0 0 0 0 0 0 127 0" result="hardAlpha"/>
<feMorphology radius="14.5261" operator="erode" in="SourceAlpha" result="effect1_innerShadow_3039_195"/>
<feOffset dy="16.1401"/>
<feGaussianBlur stdDeviation="4.23678"/>
<feComposite in2="hardAlpha" operator="arithmetic" k2="-1" k3="1"/>
<feColorMatrix type="matrix" values="0 0 0 0 0.300021 0 0 0 0 0.388057 0 0 0 0 0.327899 0 0 0 0.25 0"/>
<feBlend mode="normal" in2="shape" result="effect1_innerShadow_3039_195"/>
</filter>
<filter id="filter5_d_3039_195" x="71.0161" y="468.064" width="87.1572" height="88.7708" filterUnits="userSpaceOnUse" color-interpolation-filters="sRGB">
<feFlood flood-opacity="0" result="BackgroundImageFix"/>
<feColorMatrix in="SourceAlpha" type="matrix" values="0 0 0 0 0 0 0 0 0 0 0 0 0 0 0 0 0 0 127 0" result="hardAlpha"/>
<feOffset dy="3.22803"/>
<feGaussianBlur stdDeviation="1.61401"/>
<feComposite in2="hardAlpha" operator="out"/>
<feColorMatrix type="matrix" values="0 0 0 0 0 0 0 0 0 0 0 0 0 0 0 0 0 0 0.25 0"/>
<feBlend mode="normal" in2="BackgroundImageFix" result="effect1_dropShadow_3039_195"/>
<feBlend mode="normal" in="SourceGraphic" in2="effect1_dropShadow_3039_195" result="shape"/>
</filter>
<filter id="filter6_d_3039_195" x="161.401" y="468.064" width="141.226" height="88.7708" filterUnits="userSpaceOnUse" color-interpolation-filters="sRGB">
<feFlood flood-opacity="0" result="BackgroundImageFix"/>
<feColorMatrix in="SourceAlpha" type="matrix" values="0 0 0 0 0 0 0 0 0 0 0 0 0 0 0 0 0 0 127 0" result="hardAlpha"/>
<feOffset dy="3.22803"/>
<feGaussianBlur stdDeviation="1.61401"/>
<feComposite in2="hardAlpha" operator="out"/>
<feColorMatrix type="matrix" values="0 0 0 0 0 0 0 0 0 0 0 0 0 0 0 0 0 0 0.25 0"/>
<feBlend mode="normal" in2="BackgroundImageFix" result="effect1_dropShadow_3039_195"/>
<feBlend mode="normal" in="SourceGraphic" in2="effect1_dropShadow_3039_195" result="shape"/>
</filter>
<filter id="filter7_d_3039_195" x="0.000492096" y="46.8064" width="376.872" height="390.591" filterUnits="userSpaceOnUse" color-interpolation-filters="sRGB">
<feFlood flood-opacity="0" result="BackgroundImageFix"/>
<feColorMatrix in="SourceAlpha" type="matrix" values="0 0 0 0 0 0 0 0 0 0 0 0 0 0 0 0 0 0 127 0" result="hardAlpha"/>
<feOffset/>
<feGaussianBlur stdDeviation="8.07007"/>
<feComposite in2="hardAlpha" operator="out"/>
<feColorMatrix type="matrix" values="0 0 0 0 0.332411 0 0 0 0 0.667778 0 0 0 0 0.50714 0 0 0 1 0"/>
<feBlend mode="normal" in2="BackgroundImageFix" result="effect1_dropShadow_3039_195"/>
<feBlend mode="normal" in="SourceGraphic" in2="effect1_dropShadow_3039_195" result="shape"/>
</filter>
<filter id="filter8_i_3039_195" x="72.6309" y="0" width="225.154" height="132.349" filterUnits="userSpaceOnUse" color-interpolation-filters="sRGB">
<feFlood flood-opacity="0" result="BackgroundImageFix"/>
<feBlend mode="normal" in="SourceGraphic" in2="BackgroundImageFix" result="shape"/>
<feColorMatrix in="SourceAlpha" type="matrix" values="0 0 0 0 0 0 0 0 0 0 0 0 0 0 0 0 0 0 127 0" result="hardAlpha"/>
<feMorphology radius="16.1401" operator="erode" in="SourceAlpha" result="effect1_innerShadow_3039_195"/>
<feOffset dy="8.07007"/>
<feGaussianBlur stdDeviation="4.88239"/>
<feComposite in2="hardAlpha" operator="arithmetic" k2="-1" k3="1"/>
<feColorMatrix type="matrix" values="0 0 0 0 0.717647 0 0 0 0 0.443137 0 0 0 0 0.192157 0 0 0 0.31 0"/>
<feBlend mode="normal" in2="shape" result="effect1_innerShadow_3039_195"/>
</filter>
<linearGradient id="paint0_linear_3039_195" x1="188.437" y1="62.9465" x2="188.437" y2="421.257" gradientUnits="userSpaceOnUse">
<stop stop-color="white"/>
<stop offset="1" stop-color="#999999"/>
</linearGradient>
</defs>
</svg>
