<svg width="565" height="100" viewBox="0 0 565 100" fill="none" xmlns="http://www.w3.org/2000/svg">
<g filter="url(#filter0_d_3057_142)">
<mask id="path-1-outside-1_3057_142" maskUnits="userSpaceOnUse" x="4" y="0" width="557" height="92" fill="black">
<rect fill="white" x="4" width="557" height="92"/>
<path d="M41.8 80H40.2C37 80 33.8333 79.6667 30.7 79C24.2333 77.5333 19.7 74.8333 17.1 70.9C15.2333 67.3667 14.3 63.4667 14.3 59.2V58.8C14.1 55.7333 14 52.7 14 49.7V44.4C14 39.7333 14.3333 34.8667 15 29.8C15.7333 24.7333 17.7333 20.3333 21 16.6C24.8667 12.8 29.3 10.9 34.3 10.9C35.1667 10.9 36.0667 10.9667 37 11.1C42.7333 12.3 47.7333 15.1667 52 19.7C57.2667 24.9 61.2333 31 63.9 38C65.5 42.3333 66.3 46.7 66.3 51.1C66.3 54.1 65.9333 57.1 65.2 60.1C63.0667 67.7667 58.8 73.4667 52.4 77.2C49.0667 78.9333 45.5333 79.8667 41.8 80ZM38.6 64.6C40.2667 64.6 41.8667 64.2333 43.4 63.5C47.4667 60.9 49.5 56.4667 49.5 50.2C49.5 47.2 48.9333 44.3 47.8 41.5C46.2667 37.7 44.3 34.2667 41.9 31.2C39.3667 27.5333 36.7333 25.7 34 25.7H32.4C30.7333 25.8333 29.9 28.9 29.9 34.9C29.9 36.5667 29.9333 37.8 30 38.6C30.1333 44.2 30.4667 49.8 31 55.4C31.1333 58.9333 31.9667 61.5 33.5 63.1C34.7667 64.1 36.4667 64.6 38.6 64.6Z"/>
<path d="M86.6109 76.8C84.5443 76.8 82.4776 76.6 80.4109 76.2C74.8109 75.0667 71.0443 72.6 69.1109 68.8C68.3776 67.1333 68.0109 65.4 68.0109 63.6C68.0109 58.1333 70.8776 51.5667 76.6109 43.9C79.1443 40.5667 81.9109 37.1333 84.9109 33.6L90.7109 26.5C86.7776 28.3 82.7109 29.3333 78.5109 29.6C75.3109 29.6 73.1109 28.5667 71.9109 26.5C71.5109 25.7 71.3109 24.8667 71.3109 24C71.3109 22.3333 71.9443 20.8 73.2109 19.4C75.0776 17.6 77.2776 16.4 79.8109 15.8C84.0776 14.5333 88.4109 13.9 92.8109 13.9C94.7443 13.9 96.7109 14.0333 98.7109 14.3C101.311 14.4333 103.578 15.3333 105.511 17C106.911 18.4667 107.611 20.6667 107.611 23.6C107.611 24.4 107.544 25.2 107.411 26C106.878 29.4667 105.744 32.7333 104.011 35.8C101.878 39.6 99.0109 43.6667 95.4109 48C91.8776 52.2667 88.8109 56.8667 86.2109 61.8C89.1443 60.6 92.1109 59.7667 95.1109 59.3C95.8443 59.1667 96.5776 59.1 97.3109 59.1C99.7109 59.1 101.978 59.7333 104.111 61C106.778 62.6667 108.111 64.7333 108.111 67.2C107.711 70.6667 104.044 73.3 97.1109 75.1L96.8109 75.2C93.4109 76.2667 90.0109 76.8 86.6109 76.8Z"/>
<path d="M117.698 78.9H117.198C114.665 78.3 112.898 76.7667 111.898 74.3C111.098 71.9667 110.698 69.2333 110.698 66.1C110.498 61.7 110.398 57.3333 110.398 53C110.398 41.8 110.998 32.8 112.198 26C113.065 22.2667 115.065 19.5333 118.198 17.8C119.332 17.2 120.398 16.9 121.398 16.9C123.332 16.9 125.132 17.9333 126.798 20C128.065 22.2 128.765 24.6333 128.898 27.3C129.498 32.1 129.798 36.8667 129.798 41.6C129.798 50.9333 128.665 60.1667 126.398 69.3C125.865 71.7667 124.898 74 123.498 76C121.965 77.9333 120.032 78.9 117.698 78.9Z"/>
<path d="M167.259 74.3H166.859C165.726 74.3 164.659 74 163.659 73.4C161.926 72 160.693 70.1333 159.959 67.8C157.426 61.6 155.359 55.2667 153.759 48.8L153.259 46.9C152.393 53.3667 150.659 59.5667 148.059 65.5C147.193 67.5667 146.026 69.3333 144.559 70.8C143.293 72 141.893 72.6 140.359 72.6C139.893 72.6 139.426 72.5333 138.959 72.4C136.293 71.5333 134.593 68.8 133.859 64.2C132.926 58.8 132.459 53.4 132.459 48C132.459 40.8 133.293 33.6 134.959 26.4V26.1C135.359 23.9 135.926 21.7 136.659 19.5C137.459 17.3 138.759 15.5 140.559 14.1C142.093 13.0333 143.659 12.5 145.259 12.5C146.393 12.5 147.559 12.7667 148.759 13.3C151.293 14.9 152.993 17.2667 153.859 20.4C154.393 22.6667 154.659 24.9667 154.659 27.3L154.559 30.6L156.259 28.4C158.393 25.7333 160.593 23.2 162.859 20.8C164.259 19 165.959 17.7667 167.959 17.1L169.259 17C171.326 17 172.993 17.8667 174.259 19.6C175.593 21.2667 176.259 23.1333 176.259 25.2L176.159 26.6C175.759 29.0667 174.859 31.3333 173.459 33.4C170.859 37.2667 167.426 40.2333 163.159 42.3C164.359 43.0333 165.493 43.8667 166.559 44.8C170.826 48.6 173.593 53.3333 174.859 59C175.259 60.4667 175.459 61.9 175.459 63.3C175.459 67.7667 173.926 71.0667 170.859 73.2C169.726 73.9333 168.526 74.3 167.259 74.3Z"/>
<path d="M185.96 78.9H185.46C182.927 78.3 181.16 76.7667 180.16 74.3C179.36 71.9667 178.96 69.2333 178.96 66.1C178.76 61.7 178.66 57.3333 178.66 53C178.66 41.8 179.26 32.8 180.46 26C181.327 22.2667 183.327 19.5333 186.46 17.8C187.593 17.2 188.66 16.9 189.66 16.9C191.593 16.9 193.393 17.9333 195.06 20C196.327 22.2 197.027 24.6333 197.16 27.3C197.76 32.1 198.06 36.8667 198.06 41.6C198.06 50.9333 196.927 60.1667 194.66 69.3C194.127 71.7667 193.16 74 191.76 76C190.227 77.9333 188.293 78.9 185.96 78.9Z"/>
<path d="M209.521 74.2H208.921C206.321 74.2 204.554 72.9 203.621 70.3C202.754 67.6333 202.254 64.5333 202.121 61L201.021 39.3C200.821 37.5667 200.721 35.8333 200.721 34.1C200.721 30.2333 201.188 26.4667 202.121 22.8C204.121 17.0667 207.721 13.3 212.921 11.5C215.721 10.5 218.554 10 221.421 10C223.954 10 226.554 10.4 229.221 11.2C234.754 12.8 238.788 16.1333 241.321 21.2C242.188 23.1333 242.621 25.1 242.621 27.1C242.621 27.7667 242.488 29 242.221 30.8C241.954 32.5333 240.854 34.3667 238.921 36.3L235.021 39.6C233.688 40.8 232.921 42.2667 232.721 44C232.788 44.9333 233.088 45.8 233.621 46.6C234.488 48.1333 236.454 50 239.521 52.2C240.388 52.8 241.254 53.4667 242.121 54.2C244.521 55.9333 246.254 58.1333 247.321 60.8C247.654 61.5333 247.821 62.5 247.821 63.7C247.821 65.5667 247.188 67.2333 245.921 68.7C244.521 69.9 242.754 70.5 240.621 70.5C239.288 70.5 237.988 70.3 236.721 69.9C231.388 68.1667 227.321 64.8333 224.521 59.9C223.988 58.5 223.288 57.3 222.421 56.3C221.488 54.9667 220.421 54.3 219.221 54.3C216.754 54.3 215.521 55.8667 215.521 59C215.521 59.8 215.588 60.7333 215.721 61.8C215.988 63.2667 216.121 64.6 216.121 65.8C216.121 67.6 215.754 69.3667 215.021 71.1C214.354 72.7667 212.521 73.8 209.521 74.2ZM221.921 32.1C222.921 32.1 223.854 31.9333 224.721 31.6C225.654 31.2667 226.421 30.8333 227.021 30.3C227.621 29.7667 227.988 29.0333 228.121 28.1C228.121 26.5667 227.454 25.4 226.121 24.6C225.188 24 224.188 23.7 223.121 23.7C220.988 23.7 219.454 24.0667 218.521 24.8C217.988 25.4 217.721 26.5333 217.721 28.2C217.788 29.4667 218.254 30.5 219.121 31.3C219.854 31.8333 220.688 32.1 221.621 32.1H221.921Z"/>
<path d="M293.699 80.2H292.799C291.666 80.2 290.533 80 289.399 79.6C286.733 78.4667 284.799 76.6 283.599 74C281.666 69.8 280.699 63.2 280.699 54.2C280.699 51.3333 280.833 48.4667 281.099 45.6L281.299 41.1C281.299 36.8333 282.199 32.8 283.999 29C286.533 24.6 290.266 21.4 295.199 19.4C297.999 18.3333 300.866 17.8 303.799 17.8C305.999 17.8 308.199 18.1 310.399 18.7C315.999 20.3667 320.133 23.6333 322.799 28.5C323.799 30.7667 324.299 33 324.299 35.2C324.299 38 323.466 40.7667 321.799 43.5C319.133 46.9667 315.633 49.4 311.299 50.8L310.599 51C303.866 53.5333 300.466 58.1667 300.399 64.9V66.6C300.399 68.2667 300.333 69.9667 300.199 71.7C300.133 74.3667 299.233 76.6333 297.499 78.5C296.433 79.4333 295.166 80 293.699 80.2ZM300.699 43.1C301.166 43.1 301.633 43.0333 302.099 42.9C303.566 42.3 304.699 41.3 305.499 39.9C306.299 38.5 306.699 37.0333 306.699 35.5C306.699 34.2333 306.266 33.1333 305.399 32.2C304.733 31.4667 303.899 31.0333 302.899 30.9C301.699 30.9 300.633 31.2 299.699 31.8C298.166 33 297.399 34.8667 297.399 37.4C297.399 39.4 297.766 40.9333 298.499 42C298.966 42.7333 299.699 43.1 300.699 43.1Z"/>
<path d="M338.63 81.3C335.964 81.1667 333.497 80.3333 331.23 78.8C327.497 75.9333 325.364 71.1 324.83 64.3C324.764 63.1 324.73 61.8667 324.73 60.6C324.73 57.8 324.897 54.9667 325.23 52.1V51.8C325.43 47.3333 326.097 42.9333 327.23 38.6C328.297 34.5333 330.23 30.9667 333.03 27.9C336.297 24.5667 340.23 22.6 344.83 22L346.63 21.9C348.697 21.9 350.697 22.3333 352.63 23.2C355.164 24.4667 356.73 26.4667 357.33 29.2L357.43 30.4C357.43 31.7333 357.03 33.1 356.23 34.5C355.497 35.9 354.397 37.1 352.93 38.1C349.864 39.9 346.53 40.8667 342.93 41L342.53 41.1C339.13 41.1 337.097 42.1667 336.43 44.3L336.33 44.9C336.33 45.7667 336.664 46.5 337.33 47.1C337.997 47.6333 338.664 47.9 339.33 47.9C340.264 47.9 341.13 47.7667 341.93 47.5C342.797 47.2333 343.63 47.1 344.43 47.1C345.164 47.1667 345.864 47.3667 346.53 47.7C347.664 48.3667 348.23 49.2667 348.23 50.4C348.23 51.6 347.697 52.7 346.63 53.7C345.63 54.6333 344.364 55.3333 342.83 55.8C339.23 57.1333 337.43 58.9667 337.43 61.3C337.43 61.6333 337.497 62 337.63 62.4C338.364 63.7333 339.497 64.4 341.03 64.4C341.564 64.4 342.097 64.3 342.63 64.1C344.43 63.3667 345.864 62.1333 346.93 60.4L347.53 59.6C348.397 58.2 349.43 56.9667 350.63 55.9C352.03 54.9 353.564 54.4 355.23 54.4C357.03 54.4 358.597 54.8667 359.93 55.8C362.13 57.4 363.23 59.5333 363.23 62.2C363.23 63 363.097 63.8 362.83 64.6C362.03 66.6 360.83 68.3667 359.23 69.9C356.497 72.9667 353.397 75.6333 349.93 77.9C346.53 80.1667 342.764 81.3 338.63 81.3Z"/>
<path d="M385.438 74.2H385.138C383.271 74.2 381.538 73.6667 379.938 72.6C378.337 71.4667 377.071 70 376.138 68.2C374.604 64.6 373.837 60.8 373.837 56.8L373.737 51.8C373.737 46.7333 373.971 41.5667 374.438 36.3L374.837 30.3C374.104 30.4333 373.304 30.5 372.438 30.5C370.104 30.5 368.104 30.0667 366.438 29.2C364.237 27.8 362.871 25.9 362.337 23.5L362.237 22.2C362.237 20.9333 362.571 19.6333 363.237 18.3C363.971 16.9667 365.071 15.8 366.538 14.8C369.404 13 372.571 11.9333 376.038 11.6C379.304 11.1333 382.604 10.9 385.938 10.9L389.837 11C393.237 11 396.304 11.8667 399.038 13.6C401.771 15.6667 403.138 18.4 403.138 21.8C403.138 23.8667 402.371 25.5667 400.837 26.9C399.971 27.5 398.338 28.1 395.938 28.7C393.538 29.2333 391.171 29.5 388.837 29.5H388.038C391.838 38.1667 394.071 47.2333 394.737 56.7C394.871 57.7667 394.938 58.8333 394.938 59.9C394.938 65.4333 393.437 69.5 390.438 72.1C388.971 73.3667 387.304 74.0667 385.438 74.2Z"/>
<path d="M407.223 69.1C406.29 69.1 405.323 68.9333 404.323 68.6C402.457 67.7333 401.223 66.4333 400.623 64.7C400.157 63.3 399.923 61.6333 399.923 59.7C399.923 51.7667 401.357 43.8333 404.223 35.9C406.557 29.2333 409.99 23.1 414.523 17.5C417.39 13.9667 420.523 12.1333 423.923 12C427.657 12.1333 430.957 14.2 433.823 18.2C438.357 24.3333 441.39 30.9667 442.923 38.1C444.323 44.6333 445.023 51.7667 445.023 59.5C445.023 61.2333 444.857 62.8 444.523 64.2C444.19 65.6 443.323 66.8 441.923 67.8C440.79 68.5333 439.323 68.9 437.523 68.9C436.19 68.9 434.957 68.6333 433.823 68.1C431.423 66.6333 429.79 64.6667 428.923 62.2C428.057 59.6667 427.623 57.0333 427.623 54.3L427.523 48.3C426.39 48.5 425.223 48.6 424.023 48.6C423.09 48.6 422.157 48.5333 421.223 48.4C420.957 53.6 419.323 58.5 416.323 63.1C415.19 65.0333 413.59 66.6333 411.523 67.9C410.123 68.7 408.69 69.1 407.223 69.1ZM424.623 37.9C425.09 37.9 425.623 37.6667 426.223 37.2C426.823 36.6667 427.19 35.9333 427.323 35L427.423 33.7C427.423 31.8333 427.09 30.2333 426.423 28.9C426.023 27.9667 425.323 27.3333 424.323 27L423.923 26.9C423.523 26.9 423.09 27.4333 422.623 28.5L422.523 28.8C422.057 30.0667 421.823 31.3667 421.823 32.7C421.823 34.3 422.123 35.6333 422.723 36.7C423.123 37.5 423.757 37.9 424.623 37.9Z"/>
<path d="M456.708 79.9C451.908 79.6333 449.041 76.1 448.108 69.3C447.508 65.0333 447.208 59.9333 447.208 54C447.208 50.4667 447.308 46.6 447.508 42.4C447.574 39.6667 448.008 36.4333 448.808 32.7C449.608 28.9 451.008 25.6333 453.008 22.9C455.074 20.1 457.908 18.7 461.508 18.7H462.008C464.941 19.1 467.741 21.0667 470.408 24.6C473.074 28.1333 475.441 32.2 477.508 36.8C479.641 41.3333 481.341 45.3333 482.608 48.8L484.408 54.1L484.008 50C483.674 47.3333 483.408 44.0667 483.208 40.2C483.074 38.2 483.008 36.2333 483.008 34.3C483.008 32.3667 483.108 29.9333 483.308 27C483.508 24.0667 484.141 21.3333 485.208 18.8C486.274 16.2 487.941 14.9 490.208 14.9C494.141 15.4333 497.008 18.9333 498.808 25.4C500.474 31.4667 501.308 38.3333 501.308 46C501.308 46.5333 501.241 49.0667 501.108 53.6C501.041 58.0667 500.041 63.4333 498.108 69.7C496.174 75.9667 493.441 79.1667 489.908 79.3C487.108 78.9667 484.241 76.9 481.308 73.1C478.374 69.2333 475.674 64.8333 473.208 59.9C470.741 54.9667 468.741 50.5667 467.208 46.7L464.908 41C465.708 46.4667 466.108 51.9333 466.108 57.4C466.108 57.8667 466.074 59.7 466.008 62.9C465.941 66.1 465.174 69.7333 463.708 73.8C462.241 77.8 459.908 79.8333 456.708 79.9Z"/>
<path d="M529.946 78.1C525.079 78.1 520.446 76.7333 516.046 74C508.379 68.6667 504.046 61.0333 503.046 51.1L502.946 48.6C502.946 46.8667 503.079 45.1667 503.346 43.5C505.079 33.5667 509.746 25.7667 517.346 20.1C522.013 16.9 526.946 15.3 532.146 15.3C533.746 15.3 535.346 15.4333 536.946 15.7C541.546 16.5667 544.879 18.5 546.946 21.5C547.946 23.0333 548.446 24.7333 548.446 26.6C548.446 26.8667 548.413 27.6 548.346 28.8C548.279 30 547.413 31.3 545.746 32.7C544.279 33.7667 542.446 34.3 540.246 34.3C538.979 34.3 537.346 34.1 535.346 33.7C533.346 33.3 531.813 33.1 530.746 33.1C526.013 33.1 522.079 35.2 518.946 39.4C516.946 42.3333 515.946 45.4 515.946 48.6C515.946 50.4 516.246 52.2333 516.846 54.1C518.913 59.5 522.379 62.7667 527.246 63.9C528.046 64.0333 528.813 64.1 529.546 64.1C530.413 64.1 531.179 64 531.846 63.8C533.446 63.2 534.479 62.2 534.946 60.8C535.013 60.5333 535.046 60.2333 535.046 59.9C535.046 57.9 533.746 56.9 531.146 56.9C529.546 56.9 528.413 56.6667 527.746 56.2C526.813 55.5333 526.346 54.5333 526.346 53.2C526.346 50.8 527.713 49.1667 530.446 48.3C531.846 47.8333 533.646 47.6 535.846 47.6C539.379 47.6 542.413 48.3333 544.946 49.8H545.046C545.979 50.4 546.846 51.1 547.646 51.9C549.846 54.4333 550.946 57.3 550.946 60.5C550.946 61.7667 550.746 63.1333 550.346 64.6C549.013 68.8 546.246 72.2 542.046 74.8C538.379 77 534.346 78.1 529.946 78.1Z"/>
<path d="M221.921 32.1C222.921 32.1 223.854 31.9333 224.721 31.6C225.654 31.2667 226.421 30.8333 227.021 30.3C227.621 29.7667 227.988 29.0333 228.121 28.1C228.121 26.5667 227.454 25.4 226.121 24.6C225.188 24 224.188 23.7 223.121 23.7C220.988 23.7 219.454 24.0667 218.521 24.8C217.988 25.4 217.721 26.5333 217.721 28.2C217.788 29.4667 218.254 30.5 219.121 31.3C219.854 31.8333 220.688 32.1 221.621 32.1H221.921Z"/>
<path d="M300.699 43.1C301.166 43.1 301.633 43.0333 302.099 42.9C303.566 42.3 304.699 41.3 305.499 39.9C306.299 38.5 306.699 37.0333 306.699 35.5C306.699 34.2333 306.266 33.1333 305.399 32.2C304.733 31.4667 303.899 31.0333 302.899 30.9C301.699 30.9 300.633 31.2 299.699 31.8C298.166 33 297.399 34.8667 297.399 37.4C297.399 39.4 297.766 40.9333 298.499 42C298.966 42.7333 299.699 43.1 300.699 43.1Z"/>
<path d="M424.623 37.9C425.09 37.9 425.623 37.6667 426.223 37.2C426.823 36.6667 427.19 35.9333 427.323 35L427.423 33.7C427.423 31.8333 427.09 30.2333 426.423 28.9C426.023 27.9667 425.323 27.3333 424.323 27L423.923 26.9C423.523 26.9 423.09 27.4333 422.623 28.5L422.523 28.8C422.057 30.0667 421.823 31.3667 421.823 32.7C421.823 34.3 422.123 35.6333 422.723 36.7C423.123 37.5 423.757 37.9 424.623 37.9Z"/>
</mask>
<path d="M41.8 80H40.2C37 80 33.8333 79.6667 30.7 79C24.2333 77.5333 19.7 74.8333 17.1 70.9C15.2333 67.3667 14.3 63.4667 14.3 59.2V58.8C14.1 55.7333 14 52.7 14 49.7V44.4C14 39.7333 14.3333 34.8667 15 29.8C15.7333 24.7333 17.7333 20.3333 21 16.6C24.8667 12.8 29.3 10.9 34.3 10.9C35.1667 10.9 36.0667 10.9667 37 11.1C42.7333 12.3 47.7333 15.1667 52 19.7C57.2667 24.9 61.2333 31 63.9 38C65.5 42.3333 66.3 46.7 66.3 51.1C66.3 54.1 65.9333 57.1 65.2 60.1C63.0667 67.7667 58.8 73.4667 52.4 77.2C49.0667 78.9333 45.5333 79.8667 41.8 80ZM38.6 64.6C40.2667 64.6 41.8667 64.2333 43.4 63.5C47.4667 60.9 49.5 56.4667 49.5 50.2C49.5 47.2 48.9333 44.3 47.8 41.5C46.2667 37.7 44.3 34.2667 41.9 31.2C39.3667 27.5333 36.7333 25.7 34 25.7H32.4C30.7333 25.8333 29.9 28.9 29.9 34.9C29.9 36.5667 29.9333 37.8 30 38.6C30.1333 44.2 30.4667 49.8 31 55.4C31.1333 58.9333 31.9667 61.5 33.5 63.1C34.7667 64.1 36.4667 64.6 38.6 64.6Z" fill="#F7C93E"/>
<path d="M86.6109 76.8C84.5443 76.8 82.4776 76.6 80.4109 76.2C74.8109 75.0667 71.0443 72.6 69.1109 68.8C68.3776 67.1333 68.0109 65.4 68.0109 63.6C68.0109 58.1333 70.8776 51.5667 76.6109 43.9C79.1443 40.5667 81.9109 37.1333 84.9109 33.6L90.7109 26.5C86.7776 28.3 82.7109 29.3333 78.5109 29.6C75.3109 29.6 73.1109 28.5667 71.9109 26.5C71.5109 25.7 71.3109 24.8667 71.3109 24C71.3109 22.3333 71.9443 20.8 73.2109 19.4C75.0776 17.6 77.2776 16.4 79.8109 15.8C84.0776 14.5333 88.4109 13.9 92.8109 13.9C94.7443 13.9 96.7109 14.0333 98.7109 14.3C101.311 14.4333 103.578 15.3333 105.511 17C106.911 18.4667 107.611 20.6667 107.611 23.6C107.611 24.4 107.544 25.2 107.411 26C106.878 29.4667 105.744 32.7333 104.011 35.8C101.878 39.6 99.0109 43.6667 95.4109 48C91.8776 52.2667 88.8109 56.8667 86.2109 61.8C89.1443 60.6 92.1109 59.7667 95.1109 59.3C95.8443 59.1667 96.5776 59.1 97.3109 59.1C99.7109 59.1 101.978 59.7333 104.111 61C106.778 62.6667 108.111 64.7333 108.111 67.2C107.711 70.6667 104.044 73.3 97.1109 75.1L96.8109 75.2C93.4109 76.2667 90.0109 76.8 86.6109 76.8Z" fill="#F7C93E"/>
<path d="M117.698 78.9H117.198C114.665 78.3 112.898 76.7667 111.898 74.3C111.098 71.9667 110.698 69.2333 110.698 66.1C110.498 61.7 110.398 57.3333 110.398 53C110.398 41.8 110.998 32.8 112.198 26C113.065 22.2667 115.065 19.5333 118.198 17.8C119.332 17.2 120.398 16.9 121.398 16.9C123.332 16.9 125.132 17.9333 126.798 20C128.065 22.2 128.765 24.6333 128.898 27.3C129.498 32.1 129.798 36.8667 129.798 41.6C129.798 50.9333 128.665 60.1667 126.398 69.3C125.865 71.7667 124.898 74 123.498 76C121.965 77.9333 120.032 78.9 117.698 78.9Z" fill="#F7C93E"/>
<path d="M167.259 74.3H166.859C165.726 74.3 164.659 74 163.659 73.4C161.926 72 160.693 70.1333 159.959 67.8C157.426 61.6 155.359 55.2667 153.759 48.8L153.259 46.9C152.393 53.3667 150.659 59.5667 148.059 65.5C147.193 67.5667 146.026 69.3333 144.559 70.8C143.293 72 141.893 72.6 140.359 72.6C139.893 72.6 139.426 72.5333 138.959 72.4C136.293 71.5333 134.593 68.8 133.859 64.2C132.926 58.8 132.459 53.4 132.459 48C132.459 40.8 133.293 33.6 134.959 26.4V26.1C135.359 23.9 135.926 21.7 136.659 19.5C137.459 17.3 138.759 15.5 140.559 14.1C142.093 13.0333 143.659 12.5 145.259 12.5C146.393 12.5 147.559 12.7667 148.759 13.3C151.293 14.9 152.993 17.2667 153.859 20.4C154.393 22.6667 154.659 24.9667 154.659 27.3L154.559 30.6L156.259 28.4C158.393 25.7333 160.593 23.2 162.859 20.8C164.259 19 165.959 17.7667 167.959 17.1L169.259 17C171.326 17 172.993 17.8667 174.259 19.6C175.593 21.2667 176.259 23.1333 176.259 25.2L176.159 26.6C175.759 29.0667 174.859 31.3333 173.459 33.4C170.859 37.2667 167.426 40.2333 163.159 42.3C164.359 43.0333 165.493 43.8667 166.559 44.8C170.826 48.6 173.593 53.3333 174.859 59C175.259 60.4667 175.459 61.9 175.459 63.3C175.459 67.7667 173.926 71.0667 170.859 73.2C169.726 73.9333 168.526 74.3 167.259 74.3Z" fill="#F7C93E"/>
<path d="M185.96 78.9H185.46C182.927 78.3 181.16 76.7667 180.16 74.3C179.36 71.9667 178.96 69.2333 178.96 66.1C178.76 61.7 178.66 57.3333 178.66 53C178.66 41.8 179.26 32.8 180.46 26C181.327 22.2667 183.327 19.5333 186.46 17.8C187.593 17.2 188.66 16.9 189.66 16.9C191.593 16.9 193.393 17.9333 195.06 20C196.327 22.2 197.027 24.6333 197.16 27.3C197.76 32.1 198.06 36.8667 198.06 41.6C198.06 50.9333 196.927 60.1667 194.66 69.3C194.127 71.7667 193.16 74 191.76 76C190.227 77.9333 188.293 78.9 185.96 78.9Z" fill="#F7C93E"/>
<path d="M209.521 74.2H208.921C206.321 74.2 204.554 72.9 203.621 70.3C202.754 67.6333 202.254 64.5333 202.121 61L201.021 39.3C200.821 37.5667 200.721 35.8333 200.721 34.1C200.721 30.2333 201.188 26.4667 202.121 22.8C204.121 17.0667 207.721 13.3 212.921 11.5C215.721 10.5 218.554 10 221.421 10C223.954 10 226.554 10.4 229.221 11.2C234.754 12.8 238.788 16.1333 241.321 21.2C242.188 23.1333 242.621 25.1 242.621 27.1C242.621 27.7667 242.488 29 242.221 30.8C241.954 32.5333 240.854 34.3667 238.921 36.3L235.021 39.6C233.688 40.8 232.921 42.2667 232.721 44C232.788 44.9333 233.088 45.8 233.621 46.6C234.488 48.1333 236.454 50 239.521 52.2C240.388 52.8 241.254 53.4667 242.121 54.2C244.521 55.9333 246.254 58.1333 247.321 60.8C247.654 61.5333 247.821 62.5 247.821 63.7C247.821 65.5667 247.188 67.2333 245.921 68.7C244.521 69.9 242.754 70.5 240.621 70.5C239.288 70.5 237.988 70.3 236.721 69.9C231.388 68.1667 227.321 64.8333 224.521 59.9C223.988 58.5 223.288 57.3 222.421 56.3C221.488 54.9667 220.421 54.3 219.221 54.3C216.754 54.3 215.521 55.8667 215.521 59C215.521 59.8 215.588 60.7333 215.721 61.8C215.988 63.2667 216.121 64.6 216.121 65.8C216.121 67.6 215.754 69.3667 215.021 71.1C214.354 72.7667 212.521 73.8 209.521 74.2ZM221.921 32.1C222.921 32.1 223.854 31.9333 224.721 31.6C225.654 31.2667 226.421 30.8333 227.021 30.3C227.621 29.7667 227.988 29.0333 228.121 28.1C228.121 26.5667 227.454 25.4 226.121 24.6C225.188 24 224.188 23.7 223.121 23.7C220.988 23.7 219.454 24.0667 218.521 24.8C217.988 25.4 217.721 26.5333 217.721 28.2C217.788 29.4667 218.254 30.5 219.121 31.3C219.854 31.8333 220.688 32.1 221.621 32.1H221.921Z" fill="#F7C93E"/>
<path d="M293.699 80.2H292.799C291.666 80.2 290.533 80 289.399 79.6C286.733 78.4667 284.799 76.6 283.599 74C281.666 69.8 280.699 63.2 280.699 54.2C280.699 51.3333 280.833 48.4667 281.099 45.6L281.299 41.1C281.299 36.8333 282.199 32.8 283.999 29C286.533 24.6 290.266 21.4 295.199 19.4C297.999 18.3333 300.866 17.8 303.799 17.8C305.999 17.8 308.199 18.1 310.399 18.7C315.999 20.3667 320.133 23.6333 322.799 28.5C323.799 30.7667 324.299 33 324.299 35.2C324.299 38 323.466 40.7667 321.799 43.5C319.133 46.9667 315.633 49.4 311.299 50.8L310.599 51C303.866 53.5333 300.466 58.1667 300.399 64.9V66.6C300.399 68.2667 300.333 69.9667 300.199 71.7C300.133 74.3667 299.233 76.6333 297.499 78.5C296.433 79.4333 295.166 80 293.699 80.2ZM300.699 43.1C301.166 43.1 301.633 43.0333 302.099 42.9C303.566 42.3 304.699 41.3 305.499 39.9C306.299 38.5 306.699 37.0333 306.699 35.5C306.699 34.2333 306.266 33.1333 305.399 32.2C304.733 31.4667 303.899 31.0333 302.899 30.9C301.699 30.9 300.633 31.2 299.699 31.8C298.166 33 297.399 34.8667 297.399 37.4C297.399 39.4 297.766 40.9333 298.499 42C298.966 42.7333 299.699 43.1 300.699 43.1Z" fill="#F7C93E"/>
<path d="M338.63 81.3C335.964 81.1667 333.497 80.3333 331.23 78.8C327.497 75.9333 325.364 71.1 324.83 64.3C324.764 63.1 324.73 61.8667 324.73 60.6C324.73 57.8 324.897 54.9667 325.23 52.1V51.8C325.43 47.3333 326.097 42.9333 327.23 38.6C328.297 34.5333 330.23 30.9667 333.03 27.9C336.297 24.5667 340.23 22.6 344.83 22L346.63 21.9C348.697 21.9 350.697 22.3333 352.63 23.2C355.164 24.4667 356.73 26.4667 357.33 29.2L357.43 30.4C357.43 31.7333 357.03 33.1 356.23 34.5C355.497 35.9 354.397 37.1 352.93 38.1C349.864 39.9 346.53 40.8667 342.93 41L342.53 41.1C339.13 41.1 337.097 42.1667 336.43 44.3L336.33 44.9C336.33 45.7667 336.664 46.5 337.33 47.1C337.997 47.6333 338.664 47.9 339.33 47.9C340.264 47.9 341.13 47.7667 341.93 47.5C342.797 47.2333 343.63 47.1 344.43 47.1C345.164 47.1667 345.864 47.3667 346.53 47.7C347.664 48.3667 348.23 49.2667 348.23 50.4C348.23 51.6 347.697 52.7 346.63 53.7C345.63 54.6333 344.364 55.3333 342.83 55.8C339.23 57.1333 337.43 58.9667 337.43 61.3C337.43 61.6333 337.497 62 337.63 62.4C338.364 63.7333 339.497 64.4 341.03 64.4C341.564 64.4 342.097 64.3 342.63 64.1C344.43 63.3667 345.864 62.1333 346.93 60.4L347.53 59.6C348.397 58.2 349.43 56.9667 350.63 55.9C352.03 54.9 353.564 54.4 355.23 54.4C357.03 54.4 358.597 54.8667 359.93 55.8C362.13 57.4 363.23 59.5333 363.23 62.2C363.23 63 363.097 63.8 362.83 64.6C362.03 66.6 360.83 68.3667 359.23 69.9C356.497 72.9667 353.397 75.6333 349.93 77.9C346.53 80.1667 342.764 81.3 338.63 81.3Z" fill="#F7C93E"/>
<path d="M385.438 74.2H385.138C383.271 74.2 381.538 73.6667 379.938 72.6C378.337 71.4667 377.071 70 376.138 68.2C374.604 64.6 373.837 60.8 373.837 56.8L373.737 51.8C373.737 46.7333 373.971 41.5667 374.438 36.3L374.837 30.3C374.104 30.4333 373.304 30.5 372.438 30.5C370.104 30.5 368.104 30.0667 366.438 29.2C364.237 27.8 362.871 25.9 362.337 23.5L362.237 22.2C362.237 20.9333 362.571 19.6333 363.237 18.3C363.971 16.9667 365.071 15.8 366.538 14.8C369.404 13 372.571 11.9333 376.038 11.6C379.304 11.1333 382.604 10.9 385.938 10.9L389.837 11C393.237 11 396.304 11.8667 399.038 13.6C401.771 15.6667 403.138 18.4 403.138 21.8C403.138 23.8667 402.371 25.5667 400.837 26.9C399.971 27.5 398.338 28.1 395.938 28.7C393.538 29.2333 391.171 29.5 388.837 29.5H388.038C391.838 38.1667 394.071 47.2333 394.737 56.7C394.871 57.7667 394.938 58.8333 394.938 59.9C394.938 65.4333 393.437 69.5 390.438 72.1C388.971 73.3667 387.304 74.0667 385.438 74.2Z" fill="#F7C93E"/>
<path d="M407.223 69.1C406.29 69.1 405.323 68.9333 404.323 68.6C402.457 67.7333 401.223 66.4333 400.623 64.7C400.157 63.3 399.923 61.6333 399.923 59.7C399.923 51.7667 401.357 43.8333 404.223 35.9C406.557 29.2333 409.99 23.1 414.523 17.5C417.39 13.9667 420.523 12.1333 423.923 12C427.657 12.1333 430.957 14.2 433.823 18.2C438.357 24.3333 441.39 30.9667 442.923 38.1C444.323 44.6333 445.023 51.7667 445.023 59.5C445.023 61.2333 444.857 62.8 444.523 64.2C444.19 65.6 443.323 66.8 441.923 67.8C440.79 68.5333 439.323 68.9 437.523 68.9C436.19 68.9 434.957 68.6333 433.823 68.1C431.423 66.6333 429.79 64.6667 428.923 62.2C428.057 59.6667 427.623 57.0333 427.623 54.3L427.523 48.3C426.39 48.5 425.223 48.6 424.023 48.6C423.09 48.6 422.157 48.5333 421.223 48.4C420.957 53.6 419.323 58.5 416.323 63.1C415.19 65.0333 413.59 66.6333 411.523 67.9C410.123 68.7 408.69 69.1 407.223 69.1ZM424.623 37.9C425.09 37.9 425.623 37.6667 426.223 37.2C426.823 36.6667 427.19 35.9333 427.323 35L427.423 33.7C427.423 31.8333 427.09 30.2333 426.423 28.9C426.023 27.9667 425.323 27.3333 424.323 27L423.923 26.9C423.523 26.9 423.09 27.4333 422.623 28.5L422.523 28.8C422.057 30.0667 421.823 31.3667 421.823 32.7C421.823 34.3 422.123 35.6333 422.723 36.7C423.123 37.5 423.757 37.9 424.623 37.9Z" fill="#F7C93E"/>
<path d="M456.708 79.9C451.908 79.6333 449.041 76.1 448.108 69.3C447.508 65.0333 447.208 59.9333 447.208 54C447.208 50.4667 447.308 46.6 447.508 42.4C447.574 39.6667 448.008 36.4333 448.808 32.7C449.608 28.9 451.008 25.6333 453.008 22.9C455.074 20.1 457.908 18.7 461.508 18.7H462.008C464.941 19.1 467.741 21.0667 470.408 24.6C473.074 28.1333 475.441 32.2 477.508 36.8C479.641 41.3333 481.341 45.3333 482.608 48.8L484.408 54.1L484.008 50C483.674 47.3333 483.408 44.0667 483.208 40.2C483.074 38.2 483.008 36.2333 483.008 34.3C483.008 32.3667 483.108 29.9333 483.308 27C483.508 24.0667 484.141 21.3333 485.208 18.8C486.274 16.2 487.941 14.9 490.208 14.9C494.141 15.4333 497.008 18.9333 498.808 25.4C500.474 31.4667 501.308 38.3333 501.308 46C501.308 46.5333 501.241 49.0667 501.108 53.6C501.041 58.0667 500.041 63.4333 498.108 69.7C496.174 75.9667 493.441 79.1667 489.908 79.3C487.108 78.9667 484.241 76.9 481.308 73.1C478.374 69.2333 475.674 64.8333 473.208 59.9C470.741 54.9667 468.741 50.5667 467.208 46.7L464.908 41C465.708 46.4667 466.108 51.9333 466.108 57.4C466.108 57.8667 466.074 59.7 466.008 62.9C465.941 66.1 465.174 69.7333 463.708 73.8C462.241 77.8 459.908 79.8333 456.708 79.9Z" fill="#F7C93E"/>
<path d="M529.946 78.1C525.079 78.1 520.446 76.7333 516.046 74C508.379 68.6667 504.046 61.0333 503.046 51.1L502.946 48.6C502.946 46.8667 503.079 45.1667 503.346 43.5C505.079 33.5667 509.746 25.7667 517.346 20.1C522.013 16.9 526.946 15.3 532.146 15.3C533.746 15.3 535.346 15.4333 536.946 15.7C541.546 16.5667 544.879 18.5 546.946 21.5C547.946 23.0333 548.446 24.7333 548.446 26.6C548.446 26.8667 548.413 27.6 548.346 28.8C548.279 30 547.413 31.3 545.746 32.7C544.279 33.7667 542.446 34.3 540.246 34.3C538.979 34.3 537.346 34.1 535.346 33.7C533.346 33.3 531.813 33.1 530.746 33.1C526.013 33.1 522.079 35.2 518.946 39.4C516.946 42.3333 515.946 45.4 515.946 48.6C515.946 50.4 516.246 52.2333 516.846 54.1C518.913 59.5 522.379 62.7667 527.246 63.9C528.046 64.0333 528.813 64.1 529.546 64.1C530.413 64.1 531.179 64 531.846 63.8C533.446 63.2 534.479 62.2 534.946 60.8C535.013 60.5333 535.046 60.2333 535.046 59.9C535.046 57.9 533.746 56.9 531.146 56.9C529.546 56.9 528.413 56.6667 527.746 56.2C526.813 55.5333 526.346 54.5333 526.346 53.2C526.346 50.8 527.713 49.1667 530.446 48.3C531.846 47.8333 533.646 47.6 535.846 47.6C539.379 47.6 542.413 48.3333 544.946 49.8H545.046C545.979 50.4 546.846 51.1 547.646 51.9C549.846 54.4333 550.946 57.3 550.946 60.5C550.946 61.7667 550.746 63.1333 550.346 64.6C549.013 68.8 546.246 72.2 542.046 74.8C538.379 77 534.346 78.1 529.946 78.1Z" fill="#F7C93E"/>
<path d="M221.921 32.1C222.921 32.1 223.854 31.9333 224.721 31.6C225.654 31.2667 226.421 30.8333 227.021 30.3C227.621 29.7667 227.988 29.0333 228.121 28.1C228.121 26.5667 227.454 25.4 226.121 24.6C225.188 24 224.188 23.7 223.121 23.7C220.988 23.7 219.454 24.0667 218.521 24.8C217.988 25.4 217.721 26.5333 217.721 28.2C217.788 29.4667 218.254 30.5 219.121 31.3C219.854 31.8333 220.688 32.1 221.621 32.1H221.921Z" fill="white"/>
<path d="M300.699 43.1C301.166 43.1 301.633 43.0333 302.099 42.9C303.566 42.3 304.699 41.3 305.499 39.9C306.299 38.5 306.699 37.0333 306.699 35.5C306.699 34.2333 306.266 33.1333 305.399 32.2C304.733 31.4667 303.899 31.0333 302.899 30.9C301.699 30.9 300.633 31.2 299.699 31.8C298.166 33 297.399 34.8667 297.399 37.4C297.399 39.4 297.766 40.9333 298.499 42C298.966 42.7333 299.699 43.1 300.699 43.1Z" fill="white"/>
<path d="M424.623 37.9C425.09 37.9 425.623 37.6667 426.223 37.2C426.823 36.6667 427.19 35.9333 427.323 35L427.423 33.7C427.423 31.8333 427.09 30.2333 426.423 28.9C426.023 27.9667 425.323 27.3333 424.323 27L423.923 26.9C423.523 26.9 423.09 27.4333 422.623 28.5L422.523 28.8C422.057 30.0667 421.823 31.3667 421.823 32.7C421.823 34.3 422.123 35.6333 422.723 36.7C423.123 37.5 423.757 37.9 424.623 37.9Z" fill="white"/>
<path d="M41.8 80H40.2C37 80 33.8333 79.6667 30.7 79C24.2333 77.5333 19.7 74.8333 17.1 70.9C15.2333 67.3667 14.3 63.4667 14.3 59.2V58.8C14.1 55.7333 14 52.7 14 49.7V44.4C14 39.7333 14.3333 34.8667 15 29.8C15.7333 24.7333 17.7333 20.3333 21 16.6C24.8667 12.8 29.3 10.9 34.3 10.9C35.1667 10.9 36.0667 10.9667 37 11.1C42.7333 12.3 47.7333 15.1667 52 19.7C57.2667 24.9 61.2333 31 63.9 38C65.5 42.3333 66.3 46.7 66.3 51.1C66.3 54.1 65.9333 57.1 65.2 60.1C63.0667 67.7667 58.8 73.4667 52.4 77.2C49.0667 78.9333 45.5333 79.8667 41.8 80ZM38.6 64.6C40.2667 64.6 41.8667 64.2333 43.4 63.5C47.4667 60.9 49.5 56.4667 49.5 50.2C49.5 47.2 48.9333 44.3 47.8 41.5C46.2667 37.7 44.3 34.2667 41.9 31.2C39.3667 27.5333 36.7333 25.7 34 25.7H32.4C30.7333 25.8333 29.9 28.9 29.9 34.9C29.9 36.5667 29.9333 37.8 30 38.6C30.1333 44.2 30.4667 49.8 31 55.4C31.1333 58.9333 31.9667 61.5 33.5 63.1C34.7667 64.1 36.4667 64.6 38.6 64.6Z" stroke="white" stroke-width="20" mask="url(#path-1-outside-1_3057_142)"/>
<path d="M86.6109 76.8C84.5443 76.8 82.4776 76.6 80.4109 76.2C74.8109 75.0667 71.0443 72.6 69.1109 68.8C68.3776 67.1333 68.0109 65.4 68.0109 63.6C68.0109 58.1333 70.8776 51.5667 76.6109 43.9C79.1443 40.5667 81.9109 37.1333 84.9109 33.6L90.7109 26.5C86.7776 28.3 82.7109 29.3333 78.5109 29.6C75.3109 29.6 73.1109 28.5667 71.9109 26.5C71.5109 25.7 71.3109 24.8667 71.3109 24C71.3109 22.3333 71.9443 20.8 73.2109 19.4C75.0776 17.6 77.2776 16.4 79.8109 15.8C84.0776 14.5333 88.4109 13.9 92.8109 13.9C94.7443 13.9 96.7109 14.0333 98.7109 14.3C101.311 14.4333 103.578 15.3333 105.511 17C106.911 18.4667 107.611 20.6667 107.611 23.6C107.611 24.4 107.544 25.2 107.411 26C106.878 29.4667 105.744 32.7333 104.011 35.8C101.878 39.6 99.0109 43.6667 95.4109 48C91.8776 52.2667 88.8109 56.8667 86.2109 61.8C89.1443 60.6 92.1109 59.7667 95.1109 59.3C95.8443 59.1667 96.5776 59.1 97.3109 59.1C99.7109 59.1 101.978 59.7333 104.111 61C106.778 62.6667 108.111 64.7333 108.111 67.2C107.711 70.6667 104.044 73.3 97.1109 75.1L96.8109 75.2C93.4109 76.2667 90.0109 76.8 86.6109 76.8Z" stroke="white" stroke-width="20" mask="url(#path-1-outside-1_3057_142)"/>
<path d="M117.698 78.9H117.198C114.665 78.3 112.898 76.7667 111.898 74.3C111.098 71.9667 110.698 69.2333 110.698 66.1C110.498 61.7 110.398 57.3333 110.398 53C110.398 41.8 110.998 32.8 112.198 26C113.065 22.2667 115.065 19.5333 118.198 17.8C119.332 17.2 120.398 16.9 121.398 16.9C123.332 16.9 125.132 17.9333 126.798 20C128.065 22.2 128.765 24.6333 128.898 27.3C129.498 32.1 129.798 36.8667 129.798 41.6C129.798 50.9333 128.665 60.1667 126.398 69.3C125.865 71.7667 124.898 74 123.498 76C121.965 77.9333 120.032 78.9 117.698 78.9Z" stroke="white" stroke-width="20" mask="url(#path-1-outside-1_3057_142)"/>
<path d="M167.259 74.3H166.859C165.726 74.3 164.659 74 163.659 73.4C161.926 72 160.693 70.1333 159.959 67.8C157.426 61.6 155.359 55.2667 153.759 48.8L153.259 46.9C152.393 53.3667 150.659 59.5667 148.059 65.5C147.193 67.5667 146.026 69.3333 144.559 70.8C143.293 72 141.893 72.6 140.359 72.6C139.893 72.6 139.426 72.5333 138.959 72.4C136.293 71.5333 134.593 68.8 133.859 64.2C132.926 58.8 132.459 53.4 132.459 48C132.459 40.8 133.293 33.6 134.959 26.4V26.1C135.359 23.9 135.926 21.7 136.659 19.5C137.459 17.3 138.759 15.5 140.559 14.1C142.093 13.0333 143.659 12.5 145.259 12.5C146.393 12.5 147.559 12.7667 148.759 13.3C151.293 14.9 152.993 17.2667 153.859 20.4C154.393 22.6667 154.659 24.9667 154.659 27.3L154.559 30.6L156.259 28.4C158.393 25.7333 160.593 23.2 162.859 20.8C164.259 19 165.959 17.7667 167.959 17.1L169.259 17C171.326 17 172.993 17.8667 174.259 19.6C175.593 21.2667 176.259 23.1333 176.259 25.2L176.159 26.6C175.759 29.0667 174.859 31.3333 173.459 33.4C170.859 37.2667 167.426 40.2333 163.159 42.3C164.359 43.0333 165.493 43.8667 166.559 44.8C170.826 48.6 173.593 53.3333 174.859 59C175.259 60.4667 175.459 61.9 175.459 63.3C175.459 67.7667 173.926 71.0667 170.859 73.2C169.726 73.9333 168.526 74.3 167.259 74.3Z" stroke="white" stroke-width="20" mask="url(#path-1-outside-1_3057_142)"/>
<path d="M185.96 78.9H185.46C182.927 78.3 181.16 76.7667 180.16 74.3C179.36 71.9667 178.96 69.2333 178.96 66.1C178.76 61.7 178.66 57.3333 178.66 53C178.66 41.8 179.26 32.8 180.46 26C181.327 22.2667 183.327 19.5333 186.46 17.8C187.593 17.2 188.66 16.9 189.66 16.9C191.593 16.9 193.393 17.9333 195.06 20C196.327 22.2 197.027 24.6333 197.16 27.3C197.76 32.1 198.06 36.8667 198.06 41.6C198.06 50.9333 196.927 60.1667 194.66 69.3C194.127 71.7667 193.16 74 191.76 76C190.227 77.9333 188.293 78.9 185.96 78.9Z" stroke="white" stroke-width="20" mask="url(#path-1-outside-1_3057_142)"/>
<path d="M209.521 74.2H208.921C206.321 74.2 204.554 72.9 203.621 70.3C202.754 67.6333 202.254 64.5333 202.121 61L201.021 39.3C200.821 37.5667 200.721 35.8333 200.721 34.1C200.721 30.2333 201.188 26.4667 202.121 22.8C204.121 17.0667 207.721 13.3 212.921 11.5C215.721 10.5 218.554 10 221.421 10C223.954 10 226.554 10.4 229.221 11.2C234.754 12.8 238.788 16.1333 241.321 21.2C242.188 23.1333 242.621 25.1 242.621 27.1C242.621 27.7667 242.488 29 242.221 30.8C241.954 32.5333 240.854 34.3667 238.921 36.3L235.021 39.6C233.688 40.8 232.921 42.2667 232.721 44C232.788 44.9333 233.088 45.8 233.621 46.6C234.488 48.1333 236.454 50 239.521 52.2C240.388 52.8 241.254 53.4667 242.121 54.2C244.521 55.9333 246.254 58.1333 247.321 60.8C247.654 61.5333 247.821 62.5 247.821 63.7C247.821 65.5667 247.188 67.2333 245.921 68.7C244.521 69.9 242.754 70.5 240.621 70.5C239.288 70.5 237.988 70.3 236.721 69.9C231.388 68.1667 227.321 64.8333 224.521 59.9C223.988 58.5 223.288 57.3 222.421 56.3C221.488 54.9667 220.421 54.3 219.221 54.3C216.754 54.3 215.521 55.8667 215.521 59C215.521 59.8 215.588 60.7333 215.721 61.8C215.988 63.2667 216.121 64.6 216.121 65.8C216.121 67.6 215.754 69.3667 215.021 71.1C214.354 72.7667 212.521 73.8 209.521 74.2ZM221.921 32.1C222.921 32.1 223.854 31.9333 224.721 31.6C225.654 31.2667 226.421 30.8333 227.021 30.3C227.621 29.7667 227.988 29.0333 228.121 28.1C228.121 26.5667 227.454 25.4 226.121 24.6C225.188 24 224.188 23.7 223.121 23.7C220.988 23.7 219.454 24.0667 218.521 24.8C217.988 25.4 217.721 26.5333 217.721 28.2C217.788 29.4667 218.254 30.5 219.121 31.3C219.854 31.8333 220.688 32.1 221.621 32.1H221.921Z" stroke="white" stroke-width="20" mask="url(#path-1-outside-1_3057_142)"/>
<path d="M293.699 80.2H292.799C291.666 80.2 290.533 80 289.399 79.6C286.733 78.4667 284.799 76.6 283.599 74C281.666 69.8 280.699 63.2 280.699 54.2C280.699 51.3333 280.833 48.4667 281.099 45.6L281.299 41.1C281.299 36.8333 282.199 32.8 283.999 29C286.533 24.6 290.266 21.4 295.199 19.4C297.999 18.3333 300.866 17.8 303.799 17.8C305.999 17.8 308.199 18.1 310.399 18.7C315.999 20.3667 320.133 23.6333 322.799 28.5C323.799 30.7667 324.299 33 324.299 35.2C324.299 38 323.466 40.7667 321.799 43.5C319.133 46.9667 315.633 49.4 311.299 50.8L310.599 51C303.866 53.5333 300.466 58.1667 300.399 64.9V66.6C300.399 68.2667 300.333 69.9667 300.199 71.7C300.133 74.3667 299.233 76.6333 297.499 78.5C296.433 79.4333 295.166 80 293.699 80.2ZM300.699 43.1C301.166 43.1 301.633 43.0333 302.099 42.9C303.566 42.3 304.699 41.3 305.499 39.9C306.299 38.5 306.699 37.0333 306.699 35.5C306.699 34.2333 306.266 33.1333 305.399 32.2C304.733 31.4667 303.899 31.0333 302.899 30.9C301.699 30.9 300.633 31.2 299.699 31.8C298.166 33 297.399 34.8667 297.399 37.4C297.399 39.4 297.766 40.9333 298.499 42C298.966 42.7333 299.699 43.1 300.699 43.1Z" stroke="white" stroke-width="20" mask="url(#path-1-outside-1_3057_142)"/>
<path d="M338.63 81.3C335.964 81.1667 333.497 80.3333 331.23 78.8C327.497 75.9333 325.364 71.1 324.83 64.3C324.764 63.1 324.73 61.8667 324.73 60.6C324.73 57.8 324.897 54.9667 325.23 52.1V51.8C325.43 47.3333 326.097 42.9333 327.23 38.6C328.297 34.5333 330.23 30.9667 333.03 27.9C336.297 24.5667 340.23 22.6 344.83 22L346.63 21.9C348.697 21.9 350.697 22.3333 352.63 23.2C355.164 24.4667 356.73 26.4667 357.33 29.2L357.43 30.4C357.43 31.7333 357.03 33.1 356.23 34.5C355.497 35.9 354.397 37.1 352.93 38.1C349.864 39.9 346.53 40.8667 342.93 41L342.53 41.1C339.13 41.1 337.097 42.1667 336.43 44.3L336.33 44.9C336.33 45.7667 336.664 46.5 337.33 47.1C337.997 47.6333 338.664 47.9 339.33 47.9C340.264 47.9 341.13 47.7667 341.93 47.5C342.797 47.2333 343.63 47.1 344.43 47.1C345.164 47.1667 345.864 47.3667 346.53 47.7C347.664 48.3667 348.23 49.2667 348.23 50.4C348.23 51.6 347.697 52.7 346.63 53.7C345.63 54.6333 344.364 55.3333 342.83 55.8C339.23 57.1333 337.43 58.9667 337.43 61.3C337.43 61.6333 337.497 62 337.63 62.4C338.364 63.7333 339.497 64.4 341.03 64.4C341.564 64.4 342.097 64.3 342.63 64.1C344.43 63.3667 345.864 62.1333 346.93 60.4L347.53 59.6C348.397 58.2 349.43 56.9667 350.63 55.9C352.03 54.9 353.564 54.4 355.23 54.4C357.03 54.4 358.597 54.8667 359.93 55.8C362.13 57.4 363.23 59.5333 363.23 62.2C363.23 63 363.097 63.8 362.83 64.6C362.03 66.6 360.83 68.3667 359.23 69.9C356.497 72.9667 353.397 75.6333 349.93 77.9C346.53 80.1667 342.764 81.3 338.63 81.3Z" stroke="white" stroke-width="20" mask="url(#path-1-outside-1_3057_142)"/>
<path d="M385.438 74.2H385.138C383.271 74.2 381.538 73.6667 379.938 72.6C378.337 71.4667 377.071 70 376.138 68.2C374.604 64.6 373.837 60.8 373.837 56.8L373.737 51.8C373.737 46.7333 373.971 41.5667 374.438 36.3L374.837 30.3C374.104 30.4333 373.304 30.5 372.438 30.5C370.104 30.5 368.104 30.0667 366.438 29.2C364.237 27.8 362.871 25.9 362.337 23.5L362.237 22.2C362.237 20.9333 362.571 19.6333 363.237 18.3C363.971 16.9667 365.071 15.8 366.538 14.8C369.404 13 372.571 11.9333 376.038 11.6C379.304 11.1333 382.604 10.9 385.938 10.9L389.837 11C393.237 11 396.304 11.8667 399.038 13.6C401.771 15.6667 403.138 18.4 403.138 21.8C403.138 23.8667 402.371 25.5667 400.837 26.9C399.971 27.5 398.338 28.1 395.938 28.7C393.538 29.2333 391.171 29.5 388.837 29.5H388.038C391.838 38.1667 394.071 47.2333 394.737 56.7C394.871 57.7667 394.938 58.8333 394.938 59.9C394.938 65.4333 393.437 69.5 390.438 72.1C388.971 73.3667 387.304 74.0667 385.438 74.2Z" stroke="white" stroke-width="20" mask="url(#path-1-outside-1_3057_142)"/>
<path d="M407.223 69.1C406.29 69.1 405.323 68.9333 404.323 68.6C402.457 67.7333 401.223 66.4333 400.623 64.7C400.157 63.3 399.923 61.6333 399.923 59.7C399.923 51.7667 401.357 43.8333 404.223 35.9C406.557 29.2333 409.99 23.1 414.523 17.5C417.39 13.9667 420.523 12.1333 423.923 12C427.657 12.1333 430.957 14.2 433.823 18.2C438.357 24.3333 441.39 30.9667 442.923 38.1C444.323 44.6333 445.023 51.7667 445.023 59.5C445.023 61.2333 444.857 62.8 444.523 64.2C444.19 65.6 443.323 66.8 441.923 67.8C440.79 68.5333 439.323 68.9 437.523 68.9C436.19 68.9 434.957 68.6333 433.823 68.1C431.423 66.6333 429.79 64.6667 428.923 62.2C428.057 59.6667 427.623 57.0333 427.623 54.3L427.523 48.3C426.39 48.5 425.223 48.6 424.023 48.6C423.09 48.6 422.157 48.5333 421.223 48.4C420.957 53.6 419.323 58.5 416.323 63.1C415.19 65.0333 413.59 66.6333 411.523 67.9C410.123 68.7 408.69 69.1 407.223 69.1ZM424.623 37.9C425.09 37.9 425.623 37.6667 426.223 37.2C426.823 36.6667 427.19 35.9333 427.323 35L427.423 33.7C427.423 31.8333 427.09 30.2333 426.423 28.9C426.023 27.9667 425.323 27.3333 424.323 27L423.923 26.9C423.523 26.9 423.09 27.4333 422.623 28.5L422.523 28.8C422.057 30.0667 421.823 31.3667 421.823 32.7C421.823 34.3 422.123 35.6333 422.723 36.7C423.123 37.5 423.757 37.9 424.623 37.9Z" stroke="white" stroke-width="20" mask="url(#path-1-outside-1_3057_142)"/>
<path d="M456.708 79.9C451.908 79.6333 449.041 76.1 448.108 69.3C447.508 65.0333 447.208 59.9333 447.208 54C447.208 50.4667 447.308 46.6 447.508 42.4C447.574 39.6667 448.008 36.4333 448.808 32.7C449.608 28.9 451.008 25.6333 453.008 22.9C455.074 20.1 457.908 18.7 461.508 18.7H462.008C464.941 19.1 467.741 21.0667 470.408 24.6C473.074 28.1333 475.441 32.2 477.508 36.8C479.641 41.3333 481.341 45.3333 482.608 48.8L484.408 54.1L484.008 50C483.674 47.3333 483.408 44.0667 483.208 40.2C483.074 38.2 483.008 36.2333 483.008 34.3C483.008 32.3667 483.108 29.9333 483.308 27C483.508 24.0667 484.141 21.3333 485.208 18.8C486.274 16.2 487.941 14.9 490.208 14.9C494.141 15.4333 497.008 18.9333 498.808 25.4C500.474 31.4667 501.308 38.3333 501.308 46C501.308 46.5333 501.241 49.0667 501.108 53.6C501.041 58.0667 500.041 63.4333 498.108 69.7C496.174 75.9667 493.441 79.1667 489.908 79.3C487.108 78.9667 484.241 76.9 481.308 73.1C478.374 69.2333 475.674 64.8333 473.208 59.9C470.741 54.9667 468.741 50.5667 467.208 46.7L464.908 41C465.708 46.4667 466.108 51.9333 466.108 57.4C466.108 57.8667 466.074 59.7 466.008 62.9C465.941 66.1 465.174 69.7333 463.708 73.8C462.241 77.8 459.908 79.8333 456.708 79.9Z" stroke="white" stroke-width="20" mask="url(#path-1-outside-1_3057_142)"/>
<path d="M529.946 78.1C525.079 78.1 520.446 76.7333 516.046 74C508.379 68.6667 504.046 61.0333 503.046 51.1L502.946 48.6C502.946 46.8667 503.079 45.1667 503.346 43.5C505.079 33.5667 509.746 25.7667 517.346 20.1C522.013 16.9 526.946 15.3 532.146 15.3C533.746 15.3 535.346 15.4333 536.946 15.7C541.546 16.5667 544.879 18.5 546.946 21.5C547.946 23.0333 548.446 24.7333 548.446 26.6C548.446 26.8667 548.413 27.6 548.346 28.8C548.279 30 547.413 31.3 545.746 32.7C544.279 33.7667 542.446 34.3 540.246 34.3C538.979 34.3 537.346 34.1 535.346 33.7C533.346 33.3 531.813 33.1 530.746 33.1C526.013 33.1 522.079 35.2 518.946 39.4C516.946 42.3333 515.946 45.4 515.946 48.6C515.946 50.4 516.246 52.2333 516.846 54.1C518.913 59.5 522.379 62.7667 527.246 63.9C528.046 64.0333 528.813 64.1 529.546 64.1C530.413 64.1 531.179 64 531.846 63.8C533.446 63.2 534.479 62.2 534.946 60.8C535.013 60.5333 535.046 60.2333 535.046 59.9C535.046 57.9 533.746 56.9 531.146 56.9C529.546 56.9 528.413 56.6667 527.746 56.2C526.813 55.5333 526.346 54.5333 526.346 53.2C526.346 50.8 527.713 49.1667 530.446 48.3C531.846 47.8333 533.646 47.6 535.846 47.6C539.379 47.6 542.413 48.3333 544.946 49.8H545.046C545.979 50.4 546.846 51.1 547.646 51.9C549.846 54.4333 550.946 57.3 550.946 60.5C550.946 61.7667 550.746 63.1333 550.346 64.6C549.013 68.8 546.246 72.2 542.046 74.8C538.379 77 534.346 78.1 529.946 78.1Z" stroke="white" stroke-width="20" mask="url(#path-1-outside-1_3057_142)"/>
<path d="M221.921 32.1C222.921 32.1 223.854 31.9333 224.721 31.6C225.654 31.2667 226.421 30.8333 227.021 30.3C227.621 29.7667 227.988 29.0333 228.121 28.1C228.121 26.5667 227.454 25.4 226.121 24.6C225.188 24 224.188 23.7 223.121 23.7C220.988 23.7 219.454 24.0667 218.521 24.8C217.988 25.4 217.721 26.5333 217.721 28.2C217.788 29.4667 218.254 30.5 219.121 31.3C219.854 31.8333 220.688 32.1 221.621 32.1H221.921Z" stroke="white" stroke-width="20" mask="url(#path-1-outside-1_3057_142)"/>
<path d="M300.699 43.1C301.166 43.1 301.633 43.0333 302.099 42.9C303.566 42.3 304.699 41.3 305.499 39.9C306.299 38.5 306.699 37.0333 306.699 35.5C306.699 34.2333 306.266 33.1333 305.399 32.2C304.733 31.4667 303.899 31.0333 302.899 30.9C301.699 30.9 300.633 31.2 299.699 31.8C298.166 33 297.399 34.8667 297.399 37.4C297.399 39.4 297.766 40.9333 298.499 42C298.966 42.7333 299.699 43.1 300.699 43.1Z" stroke="white" stroke-width="20" mask="url(#path-1-outside-1_3057_142)"/>
<path d="M424.623 37.9C425.09 37.9 425.623 37.6667 426.223 37.2C426.823 36.6667 427.19 35.9333 427.323 35L427.423 33.7C427.423 31.8333 427.09 30.2333 426.423 28.9C426.023 27.9667 425.323 27.3333 424.323 27L423.923 26.9C423.523 26.9 423.09 27.4333 422.623 28.5L422.523 28.8C422.057 30.0667 421.823 31.3667 421.823 32.7C421.823 34.3 422.123 35.6333 422.723 36.7C423.123 37.5 423.757 37.9 424.623 37.9Z" stroke="white" stroke-width="20" mask="url(#path-1-outside-1_3057_142)"/>
</g>
<defs>
<filter id="filter0_d_3057_142" x="0" y="0" width="564.946" height="99.3" filterUnits="userSpaceOnUse" color-interpolation-filters="sRGB">
<feFlood flood-opacity="0" result="BackgroundImageFix"/>
<feColorMatrix in="SourceAlpha" type="matrix" values="0 0 0 0 0 0 0 0 0 0 0 0 0 0 0 0 0 0 127 0" result="hardAlpha"/>
<feOffset dy="4"/>
<feGaussianBlur stdDeviation="2"/>
<feComposite in2="hardAlpha" operator="out"/>
<feColorMatrix type="matrix" values="0 0 0 0 0 0 0 0 0 0 0 0 0 0 0 0 0 0 0.25 0"/>
<feBlend mode="normal" in2="BackgroundImageFix" result="effect1_dropShadow_3057_142"/>
<feBlend mode="normal" in="SourceGraphic" in2="effect1_dropShadow_3057_142" result="shape"/>
</filter>
</defs>
</svg>
