<svg width="1440" height="799" viewBox="0 0 1440 799" fill="none" xmlns="http://www.w3.org/2000/svg">
<rect x="-19" width="1479" height="799" fill="url(#paint0_linear_3078_230)"/>
<path d="M346.557 325.172C345.339 325.172 344.121 324.989 342.902 324.624C335.591 321.7 331.936 314.084 331.936 301.777L330.291 270.34C330.291 263.516 328.219 259.495 324.076 258.277L322.797 258.094C321.335 258.094 319.872 258.642 318.41 259.739C317.07 260.836 315.973 262.359 315.12 264.308C314.389 266.136 313.841 268.147 313.475 270.34C313.232 272.046 312.805 273.752 312.196 275.458C311.587 277.164 310.612 278.748 309.272 280.21C307.931 281.672 306.286 282.464 304.337 282.586C300.559 282.342 297.452 279.661 295.015 274.544L294.832 274.178C293.979 272.229 292.944 270.401 291.725 268.695C289.776 266.136 287.4 264.857 284.597 264.857C281.429 264.857 278.687 266.563 276.372 269.974C274.423 273.508 273.265 277.407 272.899 281.672L269.244 304.519C268.269 314.389 264.614 319.933 258.277 321.151H257.546C255.84 321.151 254.195 320.725 252.611 319.872C251.027 318.897 249.687 317.618 248.59 316.034C246.519 312.622 245.24 308.966 244.752 305.067L243.838 300.315C242.498 292.395 241.828 284.048 241.828 275.275C241.828 260.409 243.838 245.726 247.859 231.226C249.2 224.89 251.758 219.224 255.536 214.228C260.044 209.354 265.162 206.917 270.889 206.917C272.351 206.917 275.336 207.405 279.845 208.379C284.353 209.354 288.009 213.741 290.811 221.539C291.177 222.758 291.481 224.037 291.725 225.377C292.091 227.327 292.578 229.216 293.187 231.043C293.797 232.749 294.771 234.029 296.112 234.882C297.574 235.735 299.036 236.161 300.498 236.161C303.179 236.161 305.616 235.064 307.809 232.871C310.368 229.581 312.013 225.804 312.744 221.539C312.866 221.052 312.927 220.503 312.927 219.894C314.511 210.512 318.776 204.541 325.721 201.982C328.28 201.007 330.839 200.52 333.398 200.52C334.86 200.52 336.383 200.703 337.967 201.068C346.131 203.262 352.467 208.197 356.976 215.873C360.875 223.062 363.312 230.861 364.287 239.268C365.627 249.504 366.297 259.739 366.297 269.974C366.297 279.113 365.749 288.313 364.652 297.573C364.53 304.519 362.946 310.977 359.9 316.947C358.072 319.872 355.574 322.126 352.406 323.71C350.579 324.685 348.629 325.172 346.557 325.172ZM383.131 305.615C381.425 305.615 379.658 305.311 377.83 304.702C374.419 303.117 372.164 300.741 371.068 297.573C370.215 295.014 369.788 291.968 369.788 288.435C369.788 273.934 372.408 259.434 377.648 244.934C381.912 232.749 388.188 221.539 396.473 211.304C401.713 204.846 407.44 201.495 413.654 201.251C420.478 201.495 426.509 205.272 431.749 212.583C440.035 223.793 445.579 235.917 448.381 248.955C450.94 260.897 452.22 273.934 452.22 288.069C452.22 291.237 451.915 294.101 451.306 296.659C450.697 299.218 449.113 301.412 446.554 303.239C444.482 304.58 441.802 305.25 438.512 305.25C436.075 305.25 433.82 304.762 431.749 303.788C427.362 301.107 424.377 297.512 422.793 293.004C421.209 288.374 420.417 283.561 420.417 278.565L420.234 267.598C418.163 267.964 416.03 268.147 413.837 268.147C412.131 268.147 410.425 268.025 408.719 267.781C408.232 277.285 405.247 286.241 399.763 294.649C397.692 298.183 394.768 301.107 390.99 303.422C388.431 304.884 385.812 305.615 383.131 305.615ZM414.934 248.59C415.787 248.59 416.761 248.163 417.858 247.31C418.955 246.336 419.625 244.995 419.869 243.289L420.051 240.913C420.051 237.501 419.442 234.577 418.224 232.14C417.493 230.434 416.213 229.277 414.385 228.667L413.654 228.485C412.923 228.485 412.131 229.459 411.278 231.409L411.095 231.957C410.242 234.272 409.816 236.648 409.816 239.085C409.816 242.01 410.364 244.447 411.461 246.396C412.192 247.859 413.35 248.59 414.934 248.59ZM519.635 315.12H518.904C516.832 315.12 514.883 314.571 513.055 313.475C509.887 310.916 507.633 307.504 506.292 303.239C501.662 291.907 497.885 280.332 494.96 268.512L494.046 265.039C492.462 276.859 489.294 288.191 484.542 299.036C482.958 302.813 480.826 306.042 478.145 308.723C475.83 310.916 473.271 312.012 470.469 312.012C469.616 312.012 468.763 311.891 467.91 311.647C463.036 310.063 459.929 305.067 458.588 296.659C456.882 286.79 456.029 276.92 456.029 267.05C456.029 253.89 457.552 240.73 460.599 227.571V227.022C461.33 223.001 462.366 218.98 463.706 214.959C465.168 210.938 467.544 207.648 470.834 205.089C473.637 203.14 476.5 202.165 479.425 202.165C481.496 202.165 483.628 202.652 485.822 203.627C490.452 206.552 493.559 210.877 495.143 216.604C496.118 220.747 496.605 224.951 496.605 229.216L496.423 235.247L499.53 231.226C503.429 226.352 507.45 221.722 511.593 217.335C514.152 214.045 517.259 211.791 520.914 210.573L523.29 210.39C527.068 210.39 530.114 211.974 532.429 215.142C534.866 218.188 536.085 221.6 536.085 225.377L535.902 227.936C535.171 232.445 533.526 236.588 530.967 240.365C526.215 247.432 519.939 252.855 512.141 256.632C514.334 257.972 516.406 259.495 518.355 261.201C526.154 268.147 531.211 276.798 533.526 287.155C534.257 289.836 534.622 292.456 534.622 295.014C534.622 303.178 531.82 309.21 526.215 313.109C524.143 314.449 521.95 315.12 519.635 315.12ZM565.33 325.721C562.527 325.721 559.237 325.416 555.46 324.807C551.805 324.076 548.271 322.248 544.859 319.323C539.863 314.937 537.365 309.332 537.365 302.508C537.365 299.096 538.157 295.806 539.741 292.638C542.178 288.13 545.225 285.876 548.88 285.876C550.83 285.998 552.597 286.668 554.181 287.886C555.765 289.105 557.288 290.445 558.75 291.907L558.933 292.09C562.466 295.989 566.67 298.853 571.544 300.68C572.885 301.046 574.286 301.229 575.748 301.229C576.845 301.229 578.307 301.046 580.135 300.68C582.084 300.193 583.79 298.975 585.252 297.025C586.836 294.954 587.628 292.821 587.628 290.628C587.628 290.14 587.507 289.044 587.263 287.338C587.141 285.632 586.227 283.622 584.521 281.306C580.378 276.676 575.078 273.264 568.62 271.071C563.99 269.243 559.786 266.928 556.008 264.126C551.987 260.592 549.246 256.266 547.784 251.149C547.052 248.468 546.687 245.848 546.687 243.289C546.687 240.73 547.052 238.172 547.784 235.613C551.439 225.012 558.628 217.823 569.351 214.045C573.494 212.827 577.576 212.218 581.597 212.218C587.811 212.218 593.904 213.619 599.874 216.421C604.017 218.249 607.49 220.869 610.292 224.281C612.729 227.327 613.948 230.678 613.948 234.333C613.948 237.623 612.973 240.365 611.024 242.558C609.074 244.63 606.759 245.665 604.078 245.665C601.032 245.665 597.986 244.934 594.939 243.472L592.381 242.375C590.553 241.644 588.238 241.279 585.435 241.279C583.242 241.279 581.353 241.949 579.769 243.289C579.038 244.264 578.672 245.361 578.672 246.579C578.672 247.432 578.977 248.712 579.586 250.418C580.317 252.002 581.292 253.464 582.511 254.804C585.557 257.85 589.091 260.287 593.112 262.115L594.391 262.846C597.925 264.308 601.215 266.197 604.261 268.512C610.231 274.117 613.217 280.819 613.217 288.617C613.217 290.323 613.034 292.151 612.668 294.101C610.475 303.727 605.236 311.342 596.95 316.947C587.689 322.796 577.149 325.721 565.33 325.721ZM631.637 323.527H630.723C626.093 322.431 622.864 319.628 621.036 315.12C619.574 310.855 618.843 305.859 618.843 300.132C618.477 292.09 618.295 284.109 618.295 276.189C618.295 255.718 619.391 239.268 621.584 226.84C623.168 220.016 626.824 215.02 632.551 211.852C634.622 210.755 636.572 210.207 638.4 210.207C641.933 210.207 645.223 212.096 648.27 215.873C650.585 219.894 651.864 224.342 652.108 229.216C653.204 237.989 653.753 246.701 653.753 255.352C653.753 272.411 651.681 289.288 647.538 305.981C646.564 310.489 644.797 314.571 642.238 318.227C639.435 321.76 635.902 323.527 631.637 323.527ZM757.68 314.754C756.705 314.754 755.73 314.632 754.756 314.389C747.688 311.83 743.972 304.884 743.606 293.552L740.682 264.491C740.316 258.155 738.184 254.499 734.285 253.525H733.371C731.909 253.525 730.568 254.012 729.35 254.987C727.035 256.936 725.573 260.287 724.963 265.039C724.598 269.061 723.44 272.168 721.491 274.361C720.15 275.945 718.505 276.737 716.556 276.737C713.388 276.737 710.524 274.422 707.965 269.792L707.783 269.609C705.224 264.004 702.117 261.201 698.461 261.201C695.293 261.201 692.612 262.907 690.419 266.319C688.713 269.731 687.799 273.386 687.677 277.285C686.946 284.474 686.154 291.603 685.301 298.67C684.936 307.931 681.768 313.292 675.797 314.754H674.518C671.471 314.754 668.852 313.292 666.658 310.368C664.221 306.712 662.515 301.899 661.541 295.928C661.175 294.588 660.87 293.187 660.627 291.725C659.165 283.073 658.433 274.422 658.433 265.771C658.433 254.317 659.713 242.924 662.272 231.592C663.247 225.621 665.44 220.199 668.852 215.325C673.116 210.451 678.051 208.014 683.656 208.014C684.753 208.014 687.312 208.379 691.333 209.11C695.476 209.72 699.009 213.619 701.934 220.808L702.848 224.098C703.213 225.926 703.701 227.693 704.31 229.398C705.041 230.982 706.016 232.14 707.234 232.871C708.575 233.602 709.854 233.968 711.073 233.968C713.753 233.968 716.068 232.81 718.018 230.495C720.333 227.327 721.734 223.732 722.222 219.711L722.405 218.249C723.379 209.598 727.035 203.871 733.371 201.068C736.052 199.972 738.732 199.423 741.413 199.423L744.703 199.606C752.501 201.312 758.655 205.638 763.163 212.583C770.474 225.012 774.13 245.239 774.13 273.264C774.13 278.26 774.008 283.256 773.764 288.252V289.166C773.764 295.258 772.546 301.046 770.109 306.529C768.525 309.332 766.331 311.525 763.529 313.109C761.579 314.206 759.63 314.754 757.68 314.754ZM791.161 305.615C789.455 305.615 787.688 305.311 785.86 304.702C782.448 303.117 780.194 300.741 779.097 297.573C778.244 295.014 777.818 291.968 777.818 288.435C777.818 273.934 780.438 259.434 785.677 244.934C789.942 232.749 796.217 221.539 804.503 211.304C809.743 204.846 815.47 201.495 821.684 201.251C828.507 201.495 834.539 205.272 839.779 212.583C848.064 223.793 853.608 235.917 856.411 248.955C858.97 260.897 860.249 273.934 860.249 288.069C860.249 291.237 859.945 294.101 859.335 296.659C858.726 299.218 857.142 301.412 854.583 303.239C852.512 304.58 849.831 305.25 846.541 305.25C844.104 305.25 841.85 304.762 839.779 303.788C835.392 301.107 832.407 297.512 830.823 293.004C829.239 288.374 828.447 283.561 828.447 278.565L828.264 267.598C826.192 267.964 824.06 268.147 821.867 268.147C820.161 268.147 818.455 268.025 816.749 267.781C816.262 277.285 813.276 286.241 807.793 294.649C805.722 298.183 802.797 301.107 799.02 303.422C796.461 304.884 793.841 305.615 791.161 305.615ZM822.963 248.59C823.816 248.59 824.791 248.163 825.888 247.31C826.984 246.336 827.655 244.995 827.898 243.289L828.081 240.913C828.081 237.501 827.472 234.577 826.253 232.14C825.522 230.434 824.243 229.277 822.415 228.667L821.684 228.485C820.953 228.485 820.161 229.459 819.308 231.409L819.125 231.957C818.272 234.272 817.846 236.648 817.846 239.085C817.846 242.01 818.394 244.447 819.491 246.396C820.222 247.859 821.379 248.59 822.963 248.59ZM894.034 321.882L890.561 321.7C882.276 320.603 875.878 316.704 871.37 310.002C869.42 306.59 868.141 302.996 867.532 299.218C866.922 295.319 866.557 291.42 866.435 287.521L864.242 241.827L864.059 236.527C864.059 234.699 864.12 232.506 864.242 229.947C864.485 227.266 865.46 224.403 867.166 221.356C870.943 215.02 876.853 211.852 884.895 211.852C888.063 211.852 891.292 212.522 894.582 213.863C897.994 215.081 900.553 217.762 902.259 221.905C903.843 227.022 904.635 232.201 904.635 237.441C904.635 239.39 904.513 241.279 904.269 243.107C904.269 254.195 903.66 267.05 902.442 281.672L905.549 280.21C908.473 278.748 910.971 278.016 913.043 278.016C914.383 278.016 915.662 278.199 916.881 278.565C922.242 280.636 925.654 284.474 927.116 290.08C927.36 291.542 927.482 293.004 927.482 294.466C927.482 298.365 926.446 302.082 924.375 305.615C921.45 310.246 917.612 313.901 912.86 316.582C907.011 320.115 900.736 321.882 894.034 321.882ZM995.312 315.12H994.581C992.51 315.12 990.56 314.571 988.733 313.475C985.564 310.916 983.31 307.504 981.97 303.239C977.34 291.907 973.562 280.332 970.638 268.512L969.724 265.039C968.14 276.859 964.972 288.191 960.22 299.036C958.636 302.813 956.503 306.042 953.823 308.723C951.508 310.916 948.949 312.012 946.146 312.012C945.293 312.012 944.44 311.891 943.587 311.647C938.713 310.063 935.606 305.067 934.266 296.659C932.56 286.79 931.707 276.92 931.707 267.05C931.707 253.89 933.23 240.73 936.276 227.571V227.022C937.007 223.001 938.043 218.98 939.383 214.959C940.846 210.938 943.222 207.648 946.512 205.089C949.314 203.14 952.178 202.165 955.102 202.165C957.174 202.165 959.306 202.652 961.499 203.627C966.129 206.552 969.237 210.877 970.821 216.604C971.795 220.747 972.283 224.951 972.283 229.216L972.1 235.247L975.207 231.226C979.106 226.352 983.127 221.722 987.27 217.335C989.829 214.045 992.936 211.791 996.592 210.573L998.968 210.39C1002.75 210.39 1005.79 211.974 1008.11 215.142C1010.54 218.188 1011.76 221.6 1011.76 225.377L1011.58 227.936C1010.85 232.445 1009.2 236.588 1006.64 240.365C1001.89 247.432 995.617 252.855 987.819 256.632C990.012 257.972 992.083 259.495 994.033 261.201C1001.83 268.147 1006.89 276.798 1009.2 287.155C1009.93 289.836 1010.3 292.456 1010.3 295.014C1010.3 303.178 1007.5 309.21 1001.89 313.109C999.821 314.449 997.628 315.12 995.312 315.12ZM1027.48 305.615C1025.78 305.615 1024.01 305.311 1022.18 304.702C1018.77 303.117 1016.52 300.741 1015.42 297.573C1014.57 295.014 1014.14 291.968 1014.14 288.435C1014.14 273.934 1016.76 259.434 1022 244.934C1026.26 232.749 1032.54 221.539 1040.82 211.304C1046.06 204.846 1051.79 201.495 1058.01 201.251C1064.83 201.495 1070.86 205.272 1076.1 212.583C1084.39 223.793 1089.93 235.917 1092.73 248.955C1095.29 260.897 1096.57 273.934 1096.57 288.069C1096.57 291.237 1096.27 294.101 1095.66 296.659C1095.05 299.218 1093.46 301.412 1090.9 303.239C1088.83 304.58 1086.15 305.25 1082.86 305.25C1080.43 305.25 1078.17 304.762 1076.1 303.788C1071.71 301.107 1068.73 297.512 1067.14 293.004C1065.56 288.374 1064.77 283.561 1064.77 278.565L1064.59 267.598C1062.51 267.964 1060.38 268.147 1058.19 268.147C1056.48 268.147 1054.78 268.025 1053.07 267.781C1052.58 277.285 1049.6 286.241 1044.11 294.649C1042.04 298.183 1039.12 301.107 1035.34 303.422C1032.78 304.884 1030.16 305.615 1027.48 305.615ZM1059.28 248.59C1060.14 248.59 1061.11 248.163 1062.21 247.31C1063.31 246.336 1063.98 244.995 1064.22 243.289L1064.4 240.913C1064.4 237.501 1063.79 234.577 1062.57 232.14C1061.84 230.434 1060.56 229.277 1058.74 228.667L1058.01 228.485C1057.27 228.485 1056.48 229.459 1055.63 231.409L1055.45 231.957C1054.59 234.272 1054.17 236.648 1054.17 239.085C1054.17 242.01 1054.72 244.447 1055.81 246.396C1056.54 247.859 1057.7 248.59 1059.28 248.59ZM1117.93 325.355C1109.15 324.868 1103.91 318.41 1102.21 305.981C1101.11 298.183 1100.56 288.861 1100.56 278.016C1100.56 271.558 1100.75 264.491 1101.11 256.815C1101.23 251.819 1102.03 245.909 1103.49 239.085C1104.95 232.14 1107.51 226.169 1111.16 221.174C1114.94 216.056 1120.12 213.497 1126.7 213.497H1127.61C1132.98 214.228 1138.09 217.823 1142.97 224.281C1147.84 230.739 1152.17 238.172 1155.94 246.579C1159.84 254.865 1162.95 262.176 1165.27 268.512L1168.56 278.199L1167.82 270.705C1167.22 265.831 1166.73 259.861 1166.36 252.794C1166.12 249.138 1166 245.544 1166 242.01C1166 238.476 1166.18 234.029 1166.54 228.667C1166.91 223.306 1168.07 218.31 1170.02 213.68C1171.97 208.928 1175.01 206.552 1179.16 206.552C1186.35 207.526 1191.59 213.924 1194.88 225.743C1197.92 236.831 1199.44 249.382 1199.44 263.394C1199.44 264.369 1199.32 269 1199.08 277.285C1198.96 285.449 1197.13 295.258 1193.6 306.712C1190.06 318.166 1185.07 324.015 1178.61 324.258C1173.49 323.649 1168.25 319.872 1162.89 312.926C1157.53 305.859 1152.59 297.817 1148.08 288.8C1143.58 279.783 1139.92 271.741 1137.12 264.674L1132.91 254.256C1134.38 264.247 1135.11 274.239 1135.11 284.231C1135.11 285.084 1135.05 288.435 1134.93 294.283C1134.8 300.132 1133.4 306.773 1130.72 314.206C1128.04 321.517 1123.78 325.233 1117.93 325.355Z" fill="#EEFEFF"/>
<path d="M428.625 450.455C428.487 451.282 428.246 452.039 427.902 452.728C427.558 453.278 427.041 453.829 426.353 454.38C425.664 454.862 424.735 455.172 423.564 455.31C422.324 455.448 421.051 455.551 419.742 455.62C418.503 455.689 417.332 455.551 416.23 455.207C415.129 454.931 414.165 454.415 413.338 453.657C412.581 452.831 412.099 451.626 411.892 450.042C411.754 449.285 411.686 447.701 411.686 445.291C411.754 442.881 411.823 439.988 411.892 436.614C411.961 433.24 412.064 429.522 412.202 425.459C412.34 421.396 412.477 417.299 412.615 413.167C412.959 403.458 413.407 392.716 413.958 380.941C413.82 380.321 413.889 379.77 414.165 379.288C414.302 378.875 414.612 378.531 415.094 378.255C415.576 377.911 416.299 377.704 417.263 377.635C418.227 377.635 419.329 377.635 420.569 377.635C421.877 377.566 423.116 377.601 424.287 377.739C425.458 377.876 426.456 378.152 427.282 378.565C428.109 378.978 428.522 379.598 428.522 380.424L428.625 450.455ZM451.628 403.458C454.314 403.458 457.103 403.837 459.995 404.594C462.887 405.283 465.641 406.35 468.258 407.796C470.875 409.173 473.216 410.895 475.282 412.961C477.417 415.027 479.104 417.437 480.343 420.191C481.927 424.047 482.306 428.007 481.479 432.069C480.722 436.063 479.035 439.713 476.418 443.018C474.49 445.36 472.218 447.356 469.601 449.009C466.984 450.593 464.161 451.901 461.131 452.934C458.17 453.967 455.037 454.69 451.732 455.103C448.495 455.585 445.224 455.757 441.919 455.62C440.335 455.482 438.958 455.034 437.787 454.277C436.617 453.52 435.894 452.142 435.618 450.145C435.481 449.732 435.343 448.493 435.205 446.427C435.136 444.292 435.067 441.641 434.999 438.474C434.999 435.306 434.999 431.76 434.999 427.835C434.999 423.91 434.999 419.916 434.999 415.853C435.067 411.721 435.136 407.693 435.205 403.768C435.274 399.774 435.343 396.193 435.412 393.026C435.481 389.858 435.515 387.207 435.515 385.072C435.584 382.938 435.653 381.664 435.722 381.251C435.653 380.7 435.756 380.183 436.031 379.701C436.238 379.288 436.548 378.944 436.961 378.668C437.443 378.324 438.166 378.117 439.13 378.049C440.025 377.98 441.162 377.945 442.539 377.945C443.985 377.945 445.362 378.049 446.67 378.255C447.979 378.393 449.081 378.703 449.976 379.185C450.94 379.598 451.456 380.218 451.525 381.044C451.525 384.762 451.525 388.515 451.525 392.303C451.525 396.021 451.559 399.74 451.628 403.458ZM451.835 438.06C454.589 437.854 456.931 437.234 458.859 436.201C460.856 435.168 462.371 433.929 463.403 432.483C464.505 431.037 465.091 429.522 465.159 427.938C465.297 426.285 464.884 424.77 463.92 423.393C462.956 422.016 461.475 420.88 459.478 419.984C457.481 419.02 454.899 418.504 451.732 418.435C451.732 421.74 451.732 425.011 451.732 428.248C451.801 431.484 451.835 434.755 451.835 438.06ZM541.347 401.702C540.658 410.034 540.211 418.332 540.004 426.595C539.866 434.789 540.073 443.053 540.624 451.385C540.555 451.936 540.348 452.487 540.004 453.037C539.66 453.52 539.143 454.002 538.455 454.484C537.835 454.897 536.94 455.172 535.769 455.31C534.736 455.448 533.634 455.585 532.464 455.723C531.293 455.861 530.191 455.861 529.158 455.723C528.126 455.654 527.196 455.448 526.37 455.103C525.543 454.759 524.924 454.208 524.51 453.451C522.995 453.795 521.48 454.139 519.966 454.484C518.451 454.759 516.901 454.966 515.317 455.103C510.704 455.516 506.641 454.897 503.129 453.244C499.686 451.591 496.863 449.285 494.659 446.324C492.456 443.363 490.906 439.954 490.011 436.098C489.116 432.242 488.91 428.317 489.392 424.323C489.942 420.329 491.182 416.473 493.11 412.754C495.107 409.036 497.861 405.834 501.373 403.148C505.161 400.531 509.327 398.913 513.871 398.293C518.485 397.674 523.099 397.984 527.712 399.223C528.263 398.81 529.158 398.638 530.398 398.707C531.362 398.775 532.464 398.844 533.703 398.913C535.012 398.982 536.217 399.12 537.318 399.326C538.489 399.533 539.453 399.843 540.211 400.256C540.968 400.6 541.347 401.082 541.347 401.702ZM525.233 414.2C522.135 412.961 519.38 412.582 516.97 413.064C514.56 413.546 512.529 414.579 510.876 416.163C509.223 417.678 507.949 419.571 507.054 421.844C506.159 424.047 505.643 426.285 505.505 428.558C505.367 430.761 505.608 432.827 506.228 434.755C506.917 436.683 508.018 438.129 509.533 439.093C511.048 439.988 512.942 440.229 515.214 439.816C517.555 439.334 520.344 437.854 523.581 435.375C523.718 433.584 523.822 431.828 523.891 430.107C523.959 428.317 524.063 426.526 524.2 424.736C524.338 422.877 524.476 421.052 524.614 419.261C524.751 417.471 524.958 415.784 525.233 414.2ZM598.578 381.044C597.82 403.974 597.82 426.974 598.578 450.042C598.509 450.868 598.302 451.66 597.958 452.418C597.614 453.037 597.097 453.623 596.409 454.174C595.789 454.725 594.894 455.069 593.723 455.207C592.139 455.413 590.487 455.516 588.765 455.516C587.113 455.585 585.735 455.275 584.634 454.587C580.295 455.482 575.854 455.723 571.309 455.31C566.833 454.897 562.77 453.485 559.121 451.075C555.953 449.009 553.509 446.461 551.787 443.431C550.066 440.333 548.998 437.062 548.585 433.619C548.172 430.176 548.344 426.664 549.102 423.083C549.928 419.502 551.271 416.197 553.13 413.167C554.645 410.757 556.504 408.657 558.708 406.867C560.911 405.076 563.287 403.63 565.835 402.528C568.451 401.427 571.206 400.738 574.098 400.463C576.99 400.118 579.848 400.256 582.671 400.876C582.809 398.052 582.946 395.47 583.084 393.129C583.291 390.719 583.463 388.619 583.601 386.828C583.738 384.762 583.876 382.869 584.014 381.147C583.945 380.527 584.048 379.977 584.324 379.495C584.53 379.081 584.875 378.703 585.357 378.358C585.839 377.945 586.562 377.739 587.526 377.739C588.421 377.739 589.488 377.773 590.728 377.842C592.036 377.842 593.241 377.945 594.343 378.152C595.513 378.358 596.512 378.703 597.338 379.185C598.165 379.598 598.578 380.218 598.578 381.044ZM582.051 416.163C579.435 415.199 577.093 414.889 575.028 415.233C572.962 415.577 571.206 416.335 569.76 417.506C568.314 418.607 567.177 420.019 566.351 421.74C565.594 423.462 565.146 425.252 565.008 427.112C564.939 428.902 565.215 430.658 565.835 432.379C566.454 434.101 567.418 435.547 568.727 436.718C570.104 437.888 571.826 438.646 573.891 438.99C576.026 439.334 578.574 439.024 581.535 438.06C581.535 434.686 581.569 431.243 581.638 427.731C581.776 424.219 581.914 420.363 582.051 416.163ZM658.456 401.702C657.768 410.034 657.32 418.332 657.114 426.595C656.976 434.789 657.183 443.053 657.733 451.385C657.665 451.936 657.458 452.487 657.114 453.037C656.769 453.52 656.253 454.002 655.564 454.484C654.945 454.897 654.049 455.172 652.879 455.31C651.846 455.448 650.744 455.585 649.573 455.723C648.403 455.861 647.301 455.861 646.268 455.723C645.235 455.654 644.306 455.448 643.479 455.103C642.653 454.759 642.033 454.208 641.62 453.451C640.105 453.795 638.59 454.139 637.075 454.484C635.56 454.759 634.011 454.966 632.427 455.103C627.814 455.516 623.751 454.897 620.239 453.244C616.796 451.591 613.973 449.285 611.769 446.324C609.566 443.363 608.016 439.954 607.121 436.098C606.226 432.242 606.019 428.317 606.501 424.323C607.052 420.329 608.292 416.473 610.22 412.754C612.217 409.036 614.971 405.834 618.483 403.148C622.27 400.531 626.436 398.913 630.981 398.293C635.595 397.674 640.208 397.984 644.822 399.223C645.373 398.81 646.268 398.638 647.508 398.707C648.472 398.775 649.573 398.844 650.813 398.913C652.121 398.982 653.326 399.12 654.428 399.326C655.599 399.533 656.563 399.843 657.32 400.256C658.078 400.6 658.456 401.082 658.456 401.702ZM642.343 414.2C639.244 412.961 636.49 412.582 634.08 413.064C631.67 413.546 629.638 414.579 627.986 416.163C626.333 417.678 625.059 419.571 624.164 421.844C623.269 424.047 622.752 426.285 622.615 428.558C622.477 430.761 622.718 432.827 623.338 434.755C624.026 436.683 625.128 438.129 626.643 439.093C628.158 439.988 630.052 440.229 632.324 439.816C634.665 439.334 637.454 437.854 640.69 435.375C640.828 433.584 640.931 431.828 641 430.107C641.069 428.317 641.172 426.526 641.31 424.736C641.448 422.877 641.586 421.052 641.723 419.261C641.861 417.471 642.068 415.784 642.343 414.2ZM682.015 403.768C684.769 402.253 687.558 401.254 690.381 400.772C693.205 400.222 695.925 400.222 698.541 400.772C701.158 401.254 703.568 402.287 705.772 403.871C708.044 405.386 709.938 407.417 711.453 409.965C713.036 412.444 714.173 415.474 714.861 419.055C715.619 422.636 715.791 426.698 715.378 431.243L714.448 450.662C714.31 451.557 714.035 452.349 713.622 453.037C713.277 453.588 712.727 454.139 711.969 454.69C711.28 455.172 710.351 455.413 709.18 455.413C707.941 455.482 706.667 455.516 705.358 455.516C704.05 455.516 702.845 455.344 701.743 455C700.71 454.656 699.815 454.07 699.058 453.244C698.3 452.349 697.853 451.075 697.715 449.422C697.715 446.186 697.853 443.018 698.128 439.92C698.472 436.752 698.748 433.516 698.954 430.21C699.299 426.698 699.092 423.875 698.335 421.74C697.577 419.537 696.544 417.953 695.236 416.989C693.996 416.025 692.585 415.612 691.001 415.75C689.486 415.887 688.04 416.541 686.663 417.712C685.286 418.883 684.149 420.535 683.254 422.67C682.359 424.736 681.98 427.215 682.118 430.107C682.325 436.786 682.635 443.294 683.048 449.629C683.048 450.937 682.6 452.108 681.705 453.141C680.879 454.105 679.777 454.69 678.4 454.897C677.16 455.103 675.886 455.275 674.578 455.413C673.338 455.62 672.168 455.585 671.066 455.31C669.964 455.103 668.966 454.656 668.071 453.967C667.244 453.21 666.693 452.039 666.418 450.455C665.66 439.575 665.316 428.558 665.385 417.402C665.454 406.178 665.901 394.885 666.728 383.523C666.797 382.765 666.9 382.042 667.038 381.354C667.244 380.665 667.52 380.045 667.864 379.495C668.277 378.944 668.794 378.531 669.413 378.255C670.102 377.911 670.963 377.739 671.996 377.739C672.891 377.807 673.958 377.876 675.198 377.945C676.506 378.014 677.711 378.152 678.813 378.358C679.983 378.565 680.947 378.909 681.705 379.391C682.531 379.804 682.944 380.424 682.944 381.251C682.462 388.756 682.152 396.262 682.015 403.768ZM790.618 402.942C793.993 404.594 796.747 406.729 798.882 409.346C801.085 411.893 802.635 414.682 803.53 417.712C804.494 420.742 804.838 423.875 804.563 427.112C804.356 430.279 803.564 433.343 802.187 436.304C800.879 439.265 798.95 441.985 796.403 444.464C793.924 446.943 790.928 448.94 787.416 450.455C783.767 451.97 779.704 453.106 775.228 453.864C775.159 454.277 775.09 455.207 775.021 456.653C774.953 457.892 774.918 459.751 774.918 462.23C774.918 464.778 774.918 468.256 774.918 472.663C774.849 473.558 774.643 474.384 774.298 475.142C773.954 475.761 773.438 476.347 772.749 476.898C772.061 477.448 771.131 477.793 769.96 477.931C768.721 478.068 767.412 478.137 766.035 478.137C764.727 478.206 763.487 478.068 762.317 477.724C761.215 477.448 760.285 476.898 759.528 476.071C758.77 475.245 758.357 474.005 758.288 472.353C758.22 470.425 758.185 467.705 758.185 464.193C758.185 460.75 758.185 456.894 758.185 452.624C758.254 448.286 758.288 443.672 758.288 438.783C758.288 433.894 758.254 429.143 758.185 424.529C758.185 419.847 758.151 415.44 758.082 411.308C758.013 407.108 757.91 403.527 757.772 400.566C757.772 399.464 758.151 398.569 758.908 397.88C759.666 397.123 760.733 396.606 762.11 396.331C763.074 396.193 764.176 396.021 765.415 395.814C766.655 395.608 767.86 395.505 769.031 395.505C770.201 395.505 771.2 395.677 772.026 396.021C772.852 396.365 773.334 396.985 773.472 397.88C773.541 398.225 773.575 398.534 773.575 398.81C773.575 399.016 773.61 399.223 773.679 399.43C776.295 399.223 779.05 399.395 781.942 399.946C784.834 400.497 787.726 401.495 790.618 402.942ZM774.815 438.887C777.5 438.611 779.807 437.819 781.735 436.511C783.732 435.203 785.247 433.653 786.28 431.863C787.382 430.004 788.002 428.076 788.139 426.079C788.277 424.013 787.864 422.119 786.9 420.398C786.005 418.607 784.524 417.161 782.458 416.059C780.461 414.889 777.845 414.269 774.608 414.2C774.608 418.056 774.608 421.947 774.608 425.872C774.677 429.728 774.746 433.86 774.815 438.267V438.577V438.887ZM862.379 401.186C861.69 409.587 861.243 417.953 861.036 426.285C860.829 434.617 860.829 443.018 861.036 451.488C860.967 452.108 860.76 452.659 860.416 453.141C860.072 453.554 859.555 454.002 858.867 454.484C858.178 454.897 857.249 455.172 856.078 455.31C854.976 455.448 853.806 455.551 852.566 455.62C851.395 455.689 850.259 455.62 849.158 455.413C848.125 455.275 847.195 454.966 846.369 454.484C845.542 454.002 844.991 453.278 844.716 452.314C839.414 455 834.697 455.998 830.565 455.31C826.502 454.621 823.059 452.865 820.236 450.042C817.413 447.219 815.244 443.672 813.729 439.403C812.283 435.134 811.525 430.727 811.456 426.182C811.388 422.188 811.525 418.16 811.87 414.097C812.214 410.034 812.868 405.971 813.832 401.909C814.039 400.876 814.486 400.015 815.175 399.326C815.864 398.638 816.793 398.328 817.964 398.397C818.928 398.466 820.03 398.569 821.269 398.707C822.577 398.844 823.782 399.085 824.884 399.43C825.986 399.705 826.916 400.118 827.673 400.669C828.431 401.22 828.775 401.977 828.706 402.942C828.155 405.971 827.707 409.036 827.363 412.134C827.088 415.233 826.95 418.47 826.95 421.844C826.95 426.389 827.466 430.107 828.499 432.999C829.601 435.822 830.909 437.785 832.424 438.887C834.008 439.988 835.661 440.161 837.382 439.403C839.104 438.577 840.653 436.786 842.03 434.032C843.339 431.415 844.268 428.764 844.819 426.079C845.439 423.324 845.852 420.535 846.059 417.712C846.334 414.889 846.506 412.066 846.575 409.242C846.644 406.35 846.851 403.458 847.195 400.566C847.264 400.084 847.47 399.671 847.815 399.326C848.434 398.569 849.64 398.225 851.43 398.293C852.325 398.362 853.392 398.431 854.632 398.5C855.94 398.569 857.145 398.707 858.247 398.913C859.418 399.12 860.382 399.395 861.139 399.74C861.966 400.084 862.379 400.566 862.379 401.186ZM921.827 401.702C921.139 410.034 920.691 418.332 920.485 426.595C920.347 434.789 920.553 443.053 921.104 451.385C921.035 451.936 920.829 452.487 920.485 453.037C920.14 453.52 919.624 454.002 918.935 454.484C918.315 454.897 917.42 455.172 916.25 455.31C915.217 455.448 914.115 455.585 912.944 455.723C911.774 455.861 910.672 455.861 909.639 455.723C908.606 455.654 907.676 455.448 906.85 455.103C906.024 454.759 905.404 454.208 904.991 453.451C903.476 453.795 901.961 454.139 900.446 454.484C898.931 454.759 897.382 454.966 895.798 455.103C891.184 455.516 887.122 454.897 883.61 453.244C880.167 451.591 877.343 449.285 875.14 446.324C872.936 443.363 871.387 439.954 870.492 436.098C869.597 432.242 869.39 428.317 869.872 424.323C870.423 420.329 871.662 416.473 873.591 412.754C875.588 409.036 878.342 405.834 881.854 403.148C885.641 400.531 889.807 398.913 894.352 398.293C898.966 397.674 903.579 397.984 908.193 399.223C908.744 398.81 909.639 398.638 910.878 398.707C911.843 398.775 912.944 398.844 914.184 398.913C915.492 398.982 916.697 399.12 917.799 399.326C918.97 399.533 919.934 399.843 920.691 400.256C921.449 400.6 921.827 401.082 921.827 401.702ZM905.714 414.2C902.615 412.961 899.861 412.582 897.451 413.064C895.041 413.546 893.009 414.579 891.357 416.163C889.704 417.678 888.43 419.571 887.535 421.844C886.64 424.047 886.123 426.285 885.985 428.558C885.848 430.761 886.089 432.827 886.708 434.755C887.397 436.683 888.499 438.129 890.014 439.093C891.529 439.988 893.422 440.229 895.695 439.816C898.036 439.334 900.825 437.854 904.061 435.375C904.199 433.584 904.302 431.828 904.371 430.107C904.44 428.317 904.543 426.526 904.681 424.736C904.819 422.877 904.956 421.052 905.094 419.261C905.232 417.471 905.439 415.784 905.714 414.2ZM959.123 413.58C959.123 411.859 958.676 410.482 957.78 409.449C956.954 408.347 955.921 407.555 954.682 407.073C953.511 406.522 952.237 406.247 950.86 406.247C949.552 406.178 948.45 406.316 947.555 406.66C946.384 407.073 945.627 407.59 945.282 408.209C944.938 408.829 944.869 409.483 945.076 410.172C945.282 410.792 945.661 411.411 946.212 412.031C946.763 412.582 947.383 413.03 948.071 413.374C948.898 413.787 949.827 414.235 950.86 414.717C951.893 415.13 952.891 415.509 953.855 415.853C954.82 416.197 955.68 416.541 956.438 416.886C957.195 417.161 957.78 417.402 958.194 417.609C960.948 418.848 963.358 420.432 965.424 422.36C967.559 424.219 969.211 426.389 970.382 428.867C971.484 431.278 972.035 433.653 972.035 435.995C972.103 438.336 971.725 440.574 970.898 442.708C970.141 444.774 969.005 446.702 967.49 448.493C965.975 450.214 964.253 451.695 962.325 452.934C959.915 454.449 957.367 455.448 954.682 455.93C952.065 456.48 949.483 456.549 946.935 456.136C944.387 455.792 941.908 455.034 939.498 453.864C937.157 452.624 935.022 451.041 933.094 449.112C931.855 447.873 930.856 446.496 930.099 444.981C929.41 443.397 928.997 441.813 928.859 440.229C928.721 438.577 928.859 436.959 929.272 435.375C929.685 433.791 930.477 432.379 931.648 431.14C931.855 430.796 932.13 430.52 932.474 430.314C933.438 429.487 934.437 429.177 935.47 429.384C936.571 429.591 937.363 430.451 937.845 431.966C938.878 434.858 940.428 437.234 942.493 439.093C944.628 440.952 947.176 441.951 950.137 442.089C951.101 442.158 952.031 442.054 952.926 441.779C953.821 441.435 954.578 440.987 955.198 440.436C955.818 439.816 956.231 439.059 956.438 438.164C956.713 437.268 956.644 436.236 956.231 435.065C955.818 433.825 954.888 432.758 953.442 431.863C952.065 430.968 950.516 430.21 948.794 429.591C947.073 428.902 945.351 428.282 943.63 427.731C941.908 427.18 940.531 426.664 939.498 426.182C936.881 424.942 934.54 423.428 932.474 421.637C930.477 419.778 929.203 417.333 928.653 414.304C928.239 411.893 928.377 409.483 929.066 407.073C929.823 404.594 931.063 402.46 932.784 400.669C934.093 399.361 935.539 398.259 937.122 397.364C938.775 396.469 940.428 395.78 942.08 395.298C943.802 394.747 945.489 394.403 947.142 394.265C948.794 394.059 950.309 393.955 951.686 393.955C954.234 393.955 956.679 394.334 959.02 395.091C961.43 395.78 963.53 396.813 965.321 398.19C967.18 399.499 968.626 401.117 969.659 403.045C970.761 404.973 971.277 407.176 971.208 409.655C971.208 410.619 970.933 411.515 970.382 412.341C969.831 413.098 969.108 413.787 968.213 414.407C967.318 414.958 966.319 415.371 965.217 415.646C964.116 415.922 962.945 416.059 961.706 416.059C960.948 416.059 960.328 415.887 959.846 415.543C959.364 415.199 959.123 414.545 959.123 413.58ZM1031.98 401.702C1031.29 410.034 1030.84 418.332 1030.63 426.595C1030.5 434.789 1030.7 443.053 1031.25 451.385C1031.19 451.936 1030.98 452.487 1030.63 453.037C1030.29 453.52 1029.77 454.002 1029.08 454.484C1028.47 454.897 1027.57 455.172 1026.4 455.31C1025.37 455.448 1024.26 455.585 1023.09 455.723C1021.92 455.861 1020.82 455.861 1019.79 455.723C1018.76 455.654 1017.83 455.448 1017 455.103C1016.17 454.759 1015.55 454.208 1015.14 453.451C1013.63 453.795 1012.11 454.139 1010.6 454.484C1009.08 454.759 1007.53 454.966 1005.95 455.103C1001.33 455.516 997.271 454.897 993.759 453.244C990.316 451.591 987.493 449.285 985.29 446.324C983.086 443.363 981.537 439.954 980.642 436.098C979.746 432.242 979.54 428.317 980.022 424.323C980.573 420.329 981.812 416.473 983.74 412.754C985.737 409.036 988.492 405.834 992.004 403.148C995.791 400.531 999.957 398.913 1004.5 398.293C1009.12 397.674 1013.73 397.984 1018.34 399.223C1018.89 398.81 1019.79 398.638 1021.03 398.707C1021.99 398.775 1023.09 398.844 1024.33 398.913C1025.64 398.982 1026.85 399.12 1027.95 399.326C1029.12 399.533 1030.08 399.843 1030.84 400.256C1031.6 400.6 1031.98 401.082 1031.98 401.702ZM1015.86 414.2C1012.76 412.961 1010.01 412.582 1007.6 413.064C1005.19 413.546 1003.16 414.579 1001.51 416.163C999.854 417.678 998.58 419.571 997.685 421.844C996.789 424.047 996.273 426.285 996.135 428.558C995.997 430.761 996.238 432.827 996.858 434.755C997.547 436.683 998.649 438.129 1000.16 439.093C1001.68 439.988 1003.57 440.229 1005.84 439.816C1008.19 439.334 1010.97 437.854 1014.21 435.375C1014.35 433.584 1014.45 431.828 1014.52 430.107C1014.59 428.317 1014.69 426.526 1014.83 424.736C1014.97 422.877 1015.11 421.052 1015.24 419.261C1015.38 417.471 1015.59 415.784 1015.86 414.2Z" fill="#EEFEFF"/>
<path d="M616.387 505.193C616.174 511.645 616.174 518.115 616.387 524.605C616.367 524.838 616.309 525.06 616.212 525.274C616.116 525.448 615.97 525.613 615.776 525.768C615.602 525.923 615.35 526.019 615.021 526.058C614.575 526.116 614.11 526.145 613.626 526.145C613.161 526.165 612.774 526.077 612.464 525.884C611.243 526.136 609.994 526.203 608.715 526.087C607.456 525.971 606.313 525.574 605.286 524.896C604.395 524.315 603.707 523.598 603.223 522.745C602.739 521.874 602.438 520.953 602.322 519.985C602.206 519.016 602.254 518.028 602.467 517.021C602.7 516.013 603.078 515.083 603.601 514.231C604.027 513.553 604.55 512.962 605.17 512.458C605.79 511.955 606.458 511.548 607.175 511.238C607.911 510.928 608.686 510.734 609.5 510.657C610.313 510.56 611.117 510.599 611.912 510.773C611.95 509.979 611.989 509.252 612.028 508.593C612.086 507.915 612.134 507.325 612.173 506.821C612.212 506.24 612.251 505.707 612.289 505.223C612.27 505.048 612.299 504.893 612.377 504.758C612.435 504.641 612.532 504.535 612.667 504.438C612.803 504.322 613.006 504.264 613.277 504.264C613.529 504.264 613.83 504.273 614.178 504.293C614.546 504.293 614.885 504.322 615.195 504.38C615.525 504.438 615.806 504.535 616.038 504.67C616.271 504.787 616.387 504.961 616.387 505.193ZM611.737 515.074C611.001 514.802 610.342 514.715 609.761 514.812C609.18 514.909 608.686 515.122 608.279 515.451C607.872 515.761 607.553 516.159 607.32 516.643C607.107 517.127 606.981 517.631 606.942 518.154C606.923 518.658 607.001 519.152 607.175 519.636C607.349 520.12 607.62 520.527 607.989 520.856C608.376 521.186 608.86 521.399 609.442 521.496C610.042 521.593 610.759 521.505 611.592 521.234C611.592 520.285 611.602 519.316 611.621 518.328C611.66 517.34 611.698 516.255 611.737 515.074ZM623.382 510.511C624.563 510.163 625.687 510.085 626.753 510.279C627.837 510.453 628.767 510.85 629.542 511.47C630.337 512.071 630.947 512.885 631.373 513.911C631.799 514.919 631.944 516.071 631.809 517.369C631.77 517.621 631.702 517.834 631.605 518.009C631.509 518.183 631.354 518.29 631.14 518.328C631.044 518.367 630.84 518.396 630.53 518.416C630.22 518.435 629.843 518.445 629.397 518.445C628.971 518.445 628.496 518.445 627.973 518.445C627.45 518.425 626.927 518.406 626.404 518.386C625.687 518.348 625.019 518.319 624.399 518.299C623.779 518.28 623.275 518.251 622.888 518.212C622.868 518.677 622.897 519.132 622.975 519.578C623.072 520.023 623.227 520.43 623.44 520.798C623.653 521.147 623.934 521.438 624.282 521.67C624.631 521.903 625.067 522.038 625.59 522.077C625.997 522.116 626.404 522.038 626.811 521.845C627.217 521.651 627.586 521.321 627.915 520.856C628.167 520.469 628.486 520.237 628.874 520.159C629.261 520.082 629.639 520.12 630.007 520.275C630.375 520.411 630.685 520.643 630.937 520.973C631.189 521.302 631.315 521.68 631.315 522.106C631.315 522.629 631.17 523.113 630.879 523.559C630.608 523.985 630.259 524.373 629.833 524.721C629.407 525.051 628.932 525.332 628.409 525.564C627.905 525.797 627.421 525.952 626.956 526.029C626.375 526.145 625.784 526.184 625.183 526.145C624.583 526.126 624.002 526.039 623.44 525.884C622.2 525.496 621.173 524.818 620.359 523.85C619.546 522.862 618.974 521.767 618.645 520.566C618.335 519.442 618.248 518.251 618.383 516.992C618.519 515.732 618.907 514.58 619.546 513.534C619.991 512.855 620.524 512.255 621.144 511.732C621.764 511.189 622.51 510.783 623.382 510.511ZM623.469 515.364C624.844 515.364 626.229 515.335 627.624 515.277C627.527 514.638 627.295 514.183 626.927 513.911C626.578 513.621 626.181 513.495 625.735 513.534C625.309 513.572 624.883 513.756 624.457 514.086C624.031 514.396 623.701 514.822 623.469 515.364ZM638.324 511.267C639.06 510.957 639.874 510.734 640.765 510.599C641.676 510.444 642.576 510.424 643.468 510.54C644.359 510.637 645.192 510.889 645.967 511.296C646.761 511.703 647.41 512.303 647.914 513.098C648.34 513.776 648.66 514.618 648.873 515.626C649.086 516.614 649.192 517.834 649.192 519.287L649.134 524.024C649.134 524.179 649.124 524.363 649.105 524.576C649.086 524.789 649.028 525.002 648.931 525.215C648.834 525.428 648.689 525.622 648.495 525.797C648.301 525.952 648.04 526.048 647.71 526.087C647.187 526.165 646.635 526.184 646.054 526.145C645.473 526.126 645.027 525.913 644.717 525.506C644.543 525.274 644.417 524.973 644.339 524.605C644.281 524.237 644.242 523.84 644.223 523.414C644.223 522.988 644.233 522.571 644.252 522.164C644.291 521.738 644.33 521.37 644.368 521.06C644.446 520.382 644.514 519.723 644.572 519.084C644.63 518.445 644.611 517.825 644.514 517.224C644.397 516.585 644.175 516.042 643.845 515.597C643.516 515.132 643.129 514.802 642.683 514.609C642.257 514.396 641.802 514.318 641.317 514.376C640.852 514.415 640.407 514.609 639.98 514.957C639.574 515.287 639.225 515.781 638.934 516.439C638.644 517.098 638.469 517.921 638.411 518.91L638.498 525.012C638.46 525.186 638.392 525.351 638.295 525.506C638.198 525.642 638.053 525.768 637.859 525.884C637.685 525.981 637.433 526.048 637.104 526.087C636.755 526.126 636.396 526.145 636.028 526.145C635.68 526.165 635.341 526.136 635.011 526.058C634.701 526 634.44 525.893 634.227 525.738C634.014 525.564 633.878 525.322 633.82 525.012C633.781 524.896 633.762 524.479 633.762 523.762C633.762 523.026 633.771 522.145 633.791 521.118C633.83 520.072 633.868 518.958 633.907 517.776C633.946 516.594 633.985 515.49 634.023 514.463C634.062 513.417 634.101 512.536 634.14 511.819C634.178 511.083 634.198 510.647 634.198 510.511C634.178 510.395 634.207 510.289 634.285 510.192C634.343 510.095 634.44 510.017 634.575 509.959C634.711 509.882 634.914 509.833 635.186 509.814C635.438 509.795 635.738 509.785 636.086 509.785C636.455 509.765 636.803 509.765 637.133 509.785C637.462 509.804 637.743 509.853 637.975 509.93C638.208 510.008 638.324 510.134 638.324 510.308V511.267ZM665.424 510.569C665.483 512.139 665.56 513.756 665.657 515.422C665.754 517.069 665.812 518.745 665.831 520.45C665.831 521.128 665.831 521.932 665.831 522.862C665.851 523.772 665.812 524.702 665.715 525.651C665.618 526.601 665.453 527.511 665.221 528.383C664.989 529.255 664.64 529.991 664.175 530.591C663.342 531.715 662.238 532.529 660.862 533.032C659.506 533.555 658.024 533.749 656.416 533.614C655.699 533.575 655.011 533.439 654.353 533.207C653.694 532.994 653.268 532.596 653.074 532.015C652.9 531.57 652.842 531.076 652.9 530.533C652.977 530.01 653.152 529.555 653.423 529.167C653.636 528.916 653.888 528.79 654.178 528.79C654.488 528.809 654.818 528.838 655.166 528.877C655.67 528.916 656.193 528.954 656.736 528.993C657.297 529.051 657.859 529.012 658.421 528.877C658.828 528.78 659.196 528.654 659.525 528.499C659.874 528.363 660.174 528.131 660.426 527.802C660.697 527.492 660.901 527.056 661.036 526.494C661.191 525.932 661.288 525.177 661.327 524.227C660.126 524.692 658.934 524.876 657.753 524.78C656.59 524.683 655.544 524.363 654.614 523.821C653.684 523.278 652.929 522.542 652.348 521.612C651.767 520.663 651.466 519.578 651.447 518.357C651.427 517.66 651.515 516.963 651.708 516.265C651.922 515.568 652.251 514.899 652.696 514.26C653.142 513.601 653.665 513.04 654.266 512.575C654.886 512.09 655.554 511.712 656.271 511.441C656.988 511.151 657.743 510.967 658.537 510.889C659.351 510.812 660.165 510.85 660.978 511.005C660.978 510.734 661.036 510.521 661.153 510.366C661.269 510.192 661.482 510.046 661.792 509.93C662.044 509.872 662.364 509.814 662.751 509.756C663.158 509.698 663.545 509.678 663.913 509.698C664.281 509.698 664.611 509.765 664.901 509.901C665.192 510.017 665.366 510.24 665.424 510.569ZM661.269 515.539C660.145 515.054 659.206 514.919 658.45 515.132C657.714 515.345 657.162 515.713 656.794 516.236C656.445 516.759 656.28 517.36 656.3 518.038C656.319 518.696 656.523 519.249 656.91 519.694C657.297 520.12 657.859 520.343 658.595 520.362C659.332 520.382 660.252 520.014 661.356 519.258C661.356 518.696 661.346 518.115 661.327 517.515C661.327 516.914 661.308 516.255 661.269 515.539ZM682.753 511.005C682.559 513.349 682.433 515.684 682.375 518.009C682.336 520.314 682.394 522.639 682.549 524.983C682.53 525.138 682.472 525.293 682.375 525.448C682.278 525.583 682.133 525.719 681.939 525.855C681.765 525.971 681.513 526.048 681.184 526.087C680.893 526.126 680.583 526.165 680.254 526.203C679.924 526.242 679.614 526.242 679.324 526.203C679.033 526.184 678.772 526.126 678.539 526.029C678.307 525.932 678.132 525.777 678.016 525.564C677.59 525.661 677.164 525.758 676.738 525.855C676.311 525.932 675.876 525.99 675.43 526.029C674.132 526.145 672.989 525.971 672.001 525.506C671.032 525.041 670.238 524.392 669.618 523.559C668.998 522.726 668.562 521.767 668.31 520.682C668.059 519.597 668 518.493 668.136 517.369C668.291 516.246 668.64 515.161 669.182 514.115C669.744 513.069 670.519 512.168 671.507 511.412C672.572 510.676 673.744 510.221 675.023 510.046C676.321 509.872 677.619 509.959 678.917 510.308C679.072 510.192 679.324 510.143 679.673 510.163C679.944 510.182 680.254 510.201 680.603 510.221C680.971 510.24 681.31 510.279 681.62 510.337C681.949 510.395 682.22 510.482 682.433 510.599C682.646 510.695 682.753 510.831 682.753 511.005ZM678.22 514.522C677.348 514.173 676.573 514.066 675.895 514.202C675.217 514.338 674.645 514.628 674.18 515.074C673.715 515.5 673.357 516.033 673.105 516.672C672.853 517.292 672.708 517.921 672.669 518.561C672.631 519.181 672.698 519.762 672.873 520.304C673.066 520.847 673.376 521.254 673.803 521.525C674.229 521.777 674.762 521.845 675.401 521.728C676.06 521.593 676.844 521.176 677.755 520.479C677.793 519.975 677.822 519.481 677.842 518.997C677.861 518.493 677.89 517.989 677.929 517.486C677.968 516.963 678.007 516.449 678.045 515.945C678.084 515.442 678.142 514.967 678.22 514.522ZM689.206 511.267C689.943 510.957 690.756 510.734 691.647 510.599C692.558 510.444 693.459 510.424 694.35 510.54C695.241 510.637 696.074 510.889 696.849 511.296C697.643 511.703 698.292 512.303 698.796 513.098C699.222 513.776 699.542 514.618 699.755 515.626C699.968 516.614 700.075 517.834 700.075 519.287L700.016 524.024C700.016 524.179 700.007 524.363 699.987 524.576C699.968 524.789 699.91 525.002 699.813 525.215C699.716 525.428 699.571 525.622 699.377 525.797C699.183 525.952 698.922 526.048 698.593 526.087C698.069 526.165 697.517 526.184 696.936 526.145C696.355 526.126 695.909 525.913 695.599 525.506C695.425 525.274 695.299 524.973 695.222 524.605C695.164 524.237 695.125 523.84 695.105 523.414C695.105 522.988 695.115 522.571 695.134 522.164C695.173 521.738 695.212 521.37 695.251 521.06C695.328 520.382 695.396 519.723 695.454 519.084C695.512 518.445 695.493 517.825 695.396 517.224C695.28 516.585 695.057 516.042 694.728 515.597C694.398 515.132 694.011 514.802 693.565 514.609C693.139 514.396 692.684 514.318 692.199 514.376C691.735 514.415 691.289 514.609 690.863 514.957C690.456 515.287 690.107 515.781 689.817 516.439C689.526 517.098 689.352 517.921 689.294 518.91L689.381 525.012C689.342 525.186 689.274 525.351 689.177 525.506C689.08 525.642 688.935 525.768 688.741 525.884C688.567 525.981 688.315 526.048 687.986 526.087C687.637 526.126 687.279 526.145 686.911 526.145C686.562 526.165 686.223 526.136 685.894 526.058C685.584 526 685.322 525.893 685.109 525.738C684.896 525.564 684.76 525.322 684.702 525.012C684.663 524.896 684.644 524.479 684.644 523.762C684.644 523.026 684.654 522.145 684.673 521.118C684.712 520.072 684.751 518.958 684.789 517.776C684.828 516.594 684.867 515.49 684.906 514.463C684.944 513.417 684.983 512.536 685.022 511.819C685.061 511.083 685.08 510.647 685.08 510.511C685.061 510.395 685.09 510.289 685.167 510.192C685.225 510.095 685.322 510.017 685.458 509.959C685.593 509.882 685.797 509.833 686.068 509.814C686.32 509.795 686.62 509.785 686.969 509.785C687.337 509.765 687.686 509.765 688.015 509.785C688.344 509.804 688.625 509.853 688.858 509.93C689.09 510.008 689.206 510.134 689.206 510.308V511.267ZM717.11 524.721C717.071 524.954 717.003 525.167 716.906 525.361C716.809 525.516 716.664 525.671 716.47 525.826C716.296 525.961 716.044 526.048 715.715 526.087C715.386 526.126 715.037 526.155 714.669 526.174C714.301 526.194 713.962 526.165 713.652 526.087C713.342 526.01 713.07 525.864 712.838 525.651C712.625 525.419 712.489 525.089 712.431 524.663C712.392 524.45 712.373 524.014 712.373 523.356C712.373 522.678 712.383 521.874 712.402 520.944C712.421 519.994 712.441 518.958 712.46 517.834C712.499 516.691 712.538 515.539 712.576 514.376C712.654 511.683 712.751 508.681 712.867 505.368C712.848 505.193 712.877 505.039 712.954 504.903C713.012 504.787 713.099 504.69 713.216 504.612C713.351 504.515 713.555 504.457 713.826 504.438C714.097 504.438 714.407 504.428 714.756 504.409C715.124 504.39 715.463 504.399 715.773 504.438C716.102 504.477 716.383 504.554 716.616 504.67C716.848 504.787 716.974 504.971 716.993 505.223L717.11 524.721ZM724.238 510.511C725.42 510.163 726.543 510.085 727.609 510.279C728.694 510.453 729.624 510.85 730.399 511.47C731.193 512.071 731.803 512.885 732.229 513.911C732.656 514.919 732.801 516.071 732.665 517.369C732.627 517.621 732.559 517.834 732.462 518.009C732.365 518.183 732.21 518.29 731.997 518.328C731.9 518.367 731.697 518.396 731.387 518.416C731.077 518.435 730.699 518.445 730.253 518.445C729.827 518.445 729.353 518.445 728.829 518.445C728.306 518.425 727.783 518.406 727.26 518.386C726.543 518.348 725.875 518.319 725.255 518.299C724.635 518.28 724.132 518.251 723.744 518.212C723.725 518.677 723.754 519.132 723.831 519.578C723.928 520.023 724.083 520.43 724.296 520.798C724.509 521.147 724.79 521.438 725.139 521.67C725.488 521.903 725.924 522.038 726.447 522.077C726.853 522.116 727.26 522.038 727.667 521.845C728.074 521.651 728.442 521.321 728.771 520.856C729.023 520.469 729.343 520.237 729.73 520.159C730.118 520.082 730.496 520.12 730.864 520.275C731.232 520.411 731.542 520.643 731.794 520.973C732.045 521.302 732.171 521.68 732.171 522.106C732.171 522.629 732.026 523.113 731.735 523.559C731.464 523.985 731.115 524.373 730.689 524.721C730.263 525.051 729.788 525.332 729.265 525.564C728.762 525.797 728.277 525.952 727.812 526.029C727.231 526.145 726.64 526.184 726.04 526.145C725.439 526.126 724.858 526.039 724.296 525.884C723.056 525.496 722.03 524.818 721.216 523.85C720.402 522.862 719.831 521.767 719.501 520.566C719.191 519.442 719.104 518.251 719.24 516.992C719.375 515.732 719.763 514.58 720.402 513.534C720.848 512.855 721.381 512.255 722.001 511.732C722.62 511.189 723.366 510.783 724.238 510.511ZM724.325 515.364C725.701 515.364 727.086 515.335 728.481 515.277C728.384 514.638 728.151 514.183 727.783 513.911C727.435 513.621 727.037 513.495 726.592 513.534C726.166 513.572 725.739 513.756 725.313 514.086C724.887 514.396 724.558 514.822 724.325 515.364ZM739.355 511.499C740.11 511.499 740.895 511.606 741.709 511.819C742.522 512.013 743.297 512.313 744.033 512.72C744.77 513.107 745.428 513.592 746.009 514.173C746.61 514.754 747.085 515.432 747.433 516.207C747.879 517.292 747.985 518.406 747.753 519.549C747.54 520.672 747.065 521.699 746.329 522.629C745.787 523.288 745.147 523.85 744.411 524.315C743.675 524.76 742.881 525.128 742.028 525.419C741.195 525.709 740.314 525.913 739.384 526.029C738.473 526.165 737.553 526.213 736.623 526.174C736.178 526.136 735.79 526.01 735.461 525.797C735.132 525.583 734.928 525.196 734.851 524.634C734.812 524.518 734.773 524.169 734.734 523.588C734.715 522.988 734.696 522.242 734.676 521.351C734.676 520.459 734.676 519.462 734.676 518.357C734.676 517.253 734.676 516.13 734.676 514.986C734.696 513.824 734.715 512.691 734.734 511.587C734.754 510.463 734.773 509.456 734.793 508.564C734.812 507.673 734.822 506.927 734.822 506.327C734.841 505.726 734.86 505.368 734.88 505.252C734.86 505.097 734.889 504.951 734.967 504.816C735.025 504.699 735.112 504.603 735.228 504.525C735.364 504.428 735.567 504.37 735.839 504.351C736.091 504.331 736.41 504.322 736.798 504.322C737.204 504.322 737.592 504.351 737.96 504.409C738.328 504.448 738.638 504.535 738.89 504.67C739.161 504.787 739.306 504.961 739.326 505.193C739.326 506.24 739.326 507.295 739.326 508.361C739.326 509.407 739.335 510.453 739.355 511.499ZM739.413 521.234C740.188 521.176 740.847 521.002 741.389 520.711C741.951 520.421 742.377 520.072 742.668 519.665C742.978 519.258 743.142 518.832 743.162 518.386C743.2 517.921 743.084 517.495 742.813 517.108C742.542 516.72 742.125 516.401 741.563 516.149C741.002 515.878 740.275 515.732 739.384 515.713C739.384 516.643 739.384 517.563 739.384 518.474C739.403 519.384 739.413 520.304 739.413 521.234ZM754.541 512.894C754.503 514.948 754.483 516.992 754.483 519.026C754.483 521.041 754.512 523.065 754.57 525.099C754.532 525.235 754.464 525.37 754.367 525.506C754.27 525.622 754.125 525.738 753.931 525.855C753.757 525.971 753.505 526.048 753.176 526.087C752.846 526.126 752.497 526.145 752.129 526.145C751.781 526.165 751.451 526.155 751.141 526.116C750.831 526.077 750.56 525.99 750.328 525.855C750.115 525.719 749.979 525.516 749.921 525.244C749.882 525.109 749.853 524.828 749.834 524.402C749.834 523.976 749.834 523.462 749.834 522.862C749.853 522.261 749.872 521.602 749.892 520.886C749.931 520.149 749.979 519.413 750.037 518.677C750.076 517.941 750.115 517.224 750.153 516.527C750.211 515.829 750.26 515.209 750.299 514.667C750.357 514.028 750.415 513.437 750.473 512.894C750.454 512.778 750.483 512.681 750.56 512.604C750.618 512.526 750.706 512.468 750.822 512.429C750.957 512.371 751.161 512.342 751.432 512.342C751.703 512.342 752.013 512.342 752.362 512.342C752.711 512.342 753.04 512.361 753.35 512.4C753.679 512.42 753.96 512.468 754.193 512.546C754.425 512.623 754.541 512.739 754.541 512.894ZM754.832 509.058C754.832 509.562 754.619 509.998 754.193 510.366C753.786 510.715 753.292 510.889 752.711 510.889C752.129 510.889 751.626 510.715 751.2 510.366C750.793 509.998 750.589 509.562 750.589 509.058C750.589 508.535 750.793 508.09 751.2 507.722C751.626 507.354 752.129 507.17 752.711 507.17C753.292 507.17 753.786 507.354 754.193 507.722C754.619 508.09 754.832 508.535 754.832 509.058ZM761.32 511.587C762.095 511.16 762.879 510.879 763.673 510.744C764.468 510.589 765.233 510.589 765.969 510.744C766.705 510.879 767.383 511.17 768.003 511.616C768.643 512.042 769.175 512.613 769.602 513.33C770.047 514.028 770.367 514.88 770.561 515.887C770.774 516.895 770.822 518.038 770.706 519.316L770.444 524.78C770.406 525.031 770.328 525.254 770.212 525.448C770.115 525.603 769.96 525.758 769.747 525.913C769.553 526.048 769.292 526.116 768.962 526.116C768.614 526.136 768.255 526.145 767.887 526.145C767.519 526.145 767.18 526.097 766.87 526C766.579 525.903 766.328 525.738 766.114 525.506C765.901 525.254 765.775 524.896 765.737 524.431C765.737 523.52 765.775 522.629 765.853 521.757C765.95 520.866 766.027 519.956 766.085 519.026C766.182 518.038 766.124 517.243 765.911 516.643C765.698 516.023 765.407 515.577 765.039 515.306C764.691 515.035 764.293 514.919 763.848 514.957C763.422 514.996 763.015 515.18 762.627 515.51C762.24 515.839 761.92 516.304 761.668 516.904C761.417 517.486 761.31 518.183 761.349 518.997C761.407 520.876 761.494 522.707 761.61 524.489C761.61 524.857 761.484 525.186 761.232 525.477C761 525.748 760.69 525.913 760.303 525.971C759.954 526.029 759.595 526.077 759.227 526.116C758.879 526.174 758.549 526.165 758.239 526.087C757.929 526.029 757.648 525.903 757.397 525.709C757.164 525.496 757.009 525.167 756.932 524.721C756.719 521.66 756.622 518.561 756.641 515.422C756.66 512.265 756.786 509.087 757.019 505.891C757.038 505.678 757.067 505.474 757.106 505.281C757.164 505.087 757.242 504.913 757.339 504.758C757.455 504.603 757.6 504.486 757.774 504.409C757.968 504.312 758.21 504.264 758.501 504.264C758.753 504.283 759.053 504.302 759.402 504.322C759.77 504.341 760.109 504.38 760.419 504.438C760.748 504.496 761.019 504.593 761.232 504.729C761.465 504.845 761.581 505.019 761.581 505.252C761.446 507.363 761.358 509.475 761.32 511.587ZM795.797 512.371C796.572 511.364 797.492 510.628 798.557 510.163C799.623 509.678 800.679 509.494 801.725 509.611C802.771 509.707 803.72 510.124 804.573 510.86C805.445 511.577 806.055 512.642 806.403 514.057C806.81 515.645 807.004 517.369 806.985 519.229C806.965 521.07 806.897 522.9 806.781 524.721C806.742 525.341 806.558 525.748 806.229 525.942C805.9 526.136 805.474 526.242 804.95 526.262C804.602 526.262 804.243 526.252 803.875 526.232C803.527 526.232 803.197 526.165 802.887 526.029C802.597 525.913 802.345 525.729 802.132 525.477C801.938 525.206 801.831 524.828 801.812 524.344C801.773 523.685 801.773 523.026 801.812 522.368C801.87 521.709 801.928 521.05 801.986 520.392C802.045 519.713 802.083 519.035 802.103 518.357C802.122 517.679 802.074 516.992 801.957 516.294C801.783 515.19 801.444 514.444 800.94 514.057C800.456 513.65 799.933 513.572 799.371 513.824C798.809 514.076 798.286 514.647 797.802 515.539C797.318 516.43 797.008 517.612 796.872 519.084C796.795 519.898 796.746 520.731 796.727 521.583C796.707 522.416 796.727 523.268 796.785 524.14C796.843 524.528 796.795 524.838 796.64 525.07C796.504 525.303 796.3 525.487 796.029 525.622C795.777 525.758 795.497 525.855 795.187 525.913C794.877 525.952 794.586 525.971 794.315 525.971C793.579 525.971 793.026 525.748 792.658 525.303C792.29 524.857 792.068 524.256 791.99 523.501C791.932 522.823 791.942 522.135 792.019 521.438C792.097 520.721 792.155 520.014 792.193 519.316C792.29 518.367 792.252 517.544 792.077 516.846C791.903 516.149 791.651 515.616 791.322 515.248C791.012 514.88 790.653 514.696 790.246 514.696C789.84 514.677 789.452 514.88 789.084 515.306C788.716 515.732 788.387 516.391 788.096 517.282C787.825 518.173 787.65 519.336 787.573 520.769L787.66 524.983C787.621 525.157 787.554 525.322 787.457 525.477C787.36 525.613 787.224 525.738 787.05 525.855C786.876 525.971 786.624 526.048 786.294 526.087C785.946 526.126 785.587 526.145 785.219 526.145C784.87 526.165 784.541 526.145 784.231 526.087C783.921 526.029 783.65 525.923 783.418 525.768C783.185 525.593 783.04 525.341 782.982 525.012C782.962 524.896 782.953 524.47 782.953 523.733C782.953 522.997 782.953 522.116 782.953 521.089C782.972 520.043 782.991 518.919 783.011 517.718C783.03 516.517 783.049 515.393 783.069 514.347C783.108 513.301 783.137 512.41 783.156 511.674C783.195 510.938 783.224 510.502 783.243 510.366C783.204 510.23 783.224 510.114 783.301 510.017C783.34 509.92 783.427 509.843 783.563 509.785C783.698 509.707 783.902 509.659 784.173 509.64C784.425 509.62 784.725 509.611 785.074 509.611C785.442 509.591 785.791 509.591 786.12 509.611C786.449 509.63 786.73 509.678 786.963 509.756C787.195 509.833 787.321 509.959 787.341 510.134L787.37 512.022C788.009 511.461 788.697 511.025 789.433 510.715C790.169 510.405 790.905 510.25 791.641 510.25C792.397 510.25 793.123 510.424 793.821 510.773C794.538 511.102 795.196 511.635 795.797 512.371ZM823.584 510.86C823.39 513.224 823.264 515.577 823.206 517.921C823.148 520.266 823.148 522.629 823.206 525.012C823.187 525.186 823.129 525.341 823.032 525.477C822.935 525.593 822.79 525.719 822.596 525.855C822.402 525.971 822.141 526.048 821.812 526.087C821.502 526.126 821.172 526.155 820.823 526.174C820.494 526.194 820.175 526.174 819.865 526.116C819.574 526.077 819.312 525.99 819.08 525.855C818.847 525.719 818.692 525.516 818.615 525.244C817.123 526 815.796 526.281 814.634 526.087C813.491 525.893 812.522 525.399 811.728 524.605C810.934 523.811 810.323 522.813 809.897 521.612C809.49 520.411 809.277 519.171 809.258 517.892C809.238 516.769 809.277 515.635 809.374 514.492C809.471 513.349 809.655 512.206 809.926 511.063C809.984 510.773 810.11 510.531 810.304 510.337C810.498 510.143 810.759 510.056 811.089 510.075C811.36 510.095 811.67 510.124 812.019 510.163C812.387 510.201 812.726 510.269 813.036 510.366C813.346 510.444 813.607 510.56 813.82 510.715C814.033 510.87 814.13 511.083 814.111 511.354C813.956 512.206 813.83 513.069 813.733 513.94C813.656 514.812 813.617 515.723 813.617 516.672C813.617 517.951 813.762 518.997 814.053 519.81C814.363 520.605 814.731 521.157 815.157 521.467C815.602 521.777 816.067 521.825 816.552 521.612C817.036 521.38 817.472 520.876 817.859 520.101C818.228 519.365 818.489 518.619 818.644 517.863C818.818 517.088 818.935 516.304 818.993 515.51C819.07 514.715 819.119 513.921 819.138 513.127C819.157 512.313 819.216 511.499 819.312 510.686C819.332 510.55 819.39 510.434 819.487 510.337C819.661 510.124 820 510.027 820.504 510.046C820.756 510.066 821.056 510.085 821.405 510.105C821.773 510.124 822.112 510.163 822.422 510.221C822.751 510.279 823.022 510.356 823.235 510.453C823.468 510.55 823.584 510.686 823.584 510.86ZM839.554 505.193C839.341 511.645 839.341 518.115 839.554 524.605C839.534 524.838 839.476 525.06 839.379 525.274C839.282 525.448 839.137 525.613 838.943 525.768C838.769 525.923 838.517 526.019 838.188 526.058C837.742 526.116 837.277 526.145 836.793 526.145C836.328 526.165 835.941 526.077 835.631 525.884C834.41 526.136 833.161 526.203 831.882 526.087C830.623 525.971 829.48 525.574 828.453 524.896C827.562 524.315 826.874 523.598 826.39 522.745C825.905 521.874 825.605 520.953 825.489 519.985C825.373 519.016 825.421 518.028 825.634 517.021C825.867 516.013 826.244 515.083 826.768 514.231C827.194 513.553 827.717 512.962 828.337 512.458C828.957 511.955 829.625 511.548 830.342 511.238C831.078 510.928 831.853 510.734 832.667 510.657C833.48 510.56 834.284 510.599 835.078 510.773C835.117 509.979 835.156 509.252 835.195 508.593C835.253 507.915 835.301 507.325 835.34 506.821C835.379 506.24 835.418 505.707 835.456 505.223C835.437 505.048 835.466 504.893 835.543 504.758C835.602 504.641 835.698 504.535 835.834 504.438C835.97 504.322 836.173 504.264 836.444 504.264C836.696 504.264 836.996 504.273 837.345 504.293C837.713 504.293 838.052 504.322 838.362 504.38C838.692 504.438 838.972 504.535 839.205 504.67C839.437 504.787 839.554 504.961 839.554 505.193ZM834.904 515.074C834.168 514.802 833.509 514.715 832.928 514.812C832.347 514.909 831.853 515.122 831.446 515.451C831.039 515.761 830.72 516.159 830.487 516.643C830.274 517.127 830.148 517.631 830.109 518.154C830.09 518.658 830.167 519.152 830.342 519.636C830.516 520.12 830.787 520.527 831.155 520.856C831.543 521.186 832.027 521.399 832.608 521.496C833.209 521.593 833.926 521.505 834.759 521.234C834.759 520.285 834.769 519.316 834.788 518.328C834.827 517.34 834.865 516.255 834.904 515.074ZM856.4 511.005C856.206 513.349 856.08 515.684 856.022 518.009C855.983 520.314 856.041 522.639 856.196 524.983C856.177 525.138 856.119 525.293 856.022 525.448C855.925 525.583 855.78 525.719 855.586 525.855C855.412 525.971 855.16 526.048 854.83 526.087C854.54 526.126 854.23 526.165 853.901 526.203C853.571 526.242 853.261 526.242 852.971 526.203C852.68 526.184 852.419 526.126 852.186 526.029C851.954 525.932 851.779 525.777 851.663 525.564C851.237 525.661 850.811 525.758 850.384 525.855C849.958 525.932 849.522 525.99 849.077 526.029C847.779 526.145 846.636 525.971 845.648 525.506C844.679 525.041 843.885 524.392 843.265 523.559C842.645 522.726 842.209 521.767 841.957 520.682C841.705 519.597 841.647 518.493 841.783 517.369C841.938 516.246 842.286 515.161 842.829 514.115C843.391 513.069 844.166 512.168 845.154 511.412C846.219 510.676 847.391 510.221 848.67 510.046C849.968 509.872 851.266 509.959 852.564 510.308C852.719 510.192 852.971 510.143 853.319 510.163C853.591 510.182 853.901 510.201 854.249 510.221C854.617 510.24 854.956 510.279 855.266 510.337C855.596 510.395 855.867 510.482 856.08 510.599C856.293 510.695 856.4 510.831 856.4 511.005ZM851.866 514.522C850.995 514.173 850.22 514.066 849.542 514.202C848.864 514.338 848.292 514.628 847.827 515.074C847.362 515.5 847.004 516.033 846.752 516.672C846.5 517.292 846.355 517.921 846.316 518.561C846.277 519.181 846.345 519.762 846.519 520.304C846.713 520.847 847.023 521.254 847.449 521.525C847.876 521.777 848.408 521.845 849.048 521.728C849.706 521.593 850.491 521.176 851.401 520.479C851.44 519.975 851.469 519.481 851.489 518.997C851.508 518.493 851.537 517.989 851.576 517.486C851.615 516.963 851.653 516.449 851.692 515.945C851.731 515.442 851.789 514.967 851.866 514.522ZM863.027 511.587C863.802 511.16 864.587 510.879 865.381 510.744C866.176 510.589 866.941 510.589 867.677 510.744C868.413 510.879 869.091 511.17 869.711 511.616C870.35 512.042 870.883 512.613 871.309 513.33C871.755 514.028 872.075 514.88 872.268 515.887C872.481 516.895 872.53 518.038 872.414 519.316L872.152 524.78C872.113 525.031 872.036 525.254 871.92 525.448C871.823 525.603 871.668 525.758 871.455 525.913C871.261 526.048 870.999 526.116 870.67 526.116C870.321 526.136 869.963 526.145 869.595 526.145C869.227 526.145 868.888 526.097 868.578 526C868.287 525.903 868.035 525.738 867.822 525.506C867.609 525.254 867.483 524.896 867.444 524.431C867.444 523.52 867.483 522.629 867.561 521.757C867.658 520.866 867.735 519.956 867.793 519.026C867.89 518.038 867.832 517.243 867.619 516.643C867.406 516.023 867.115 515.577 866.747 515.306C866.398 515.035 866.001 514.919 865.556 514.957C865.129 514.996 864.723 515.18 864.335 515.51C863.948 515.839 863.628 516.304 863.376 516.904C863.124 517.486 863.018 518.183 863.057 518.997C863.115 520.876 863.202 522.707 863.318 524.489C863.318 524.857 863.192 525.186 862.94 525.477C862.708 525.748 862.398 525.913 862.01 525.971C861.662 526.029 861.303 526.077 860.935 526.116C860.586 526.174 860.257 526.165 859.947 526.087C859.637 526.029 859.356 525.903 859.104 525.709C858.872 525.496 858.717 525.167 858.639 524.721C858.426 521.66 858.33 518.561 858.349 515.422C858.368 512.265 858.494 509.087 858.727 505.891C858.746 505.678 858.775 505.474 858.814 505.281C858.872 505.087 858.949 504.913 859.046 504.758C859.163 504.603 859.308 504.486 859.482 504.409C859.676 504.312 859.918 504.264 860.209 504.264C860.461 504.283 860.761 504.302 861.11 504.322C861.478 504.341 861.817 504.38 862.127 504.438C862.456 504.496 862.727 504.593 862.94 504.729C863.173 504.845 863.289 505.019 863.289 505.252C863.153 507.363 863.066 509.475 863.027 511.587Z" fill="#EEFEFF"/>
<defs>
<linearGradient id="paint0_linear_3078_230" x1="721" y1="374" x2="720.5" y2="799" gradientUnits="userSpaceOnUse">
<stop stop-color="#F7C93E"/>
<stop offset="1" stop-color="#EB8116"/>
</linearGradient>
</defs>
</svg>
