<svg width="514" height="99" viewBox="0 0 514 99" fill="none" xmlns="http://www.w3.org/2000/svg">
<g filter="url(#filter0_d_3026_169)">
<mask id="path-1-outside-1_3026_169" maskUnits="userSpaceOnUse" x="3.69922" y="-0.100098" width="506" height="91" fill="black">
<rect fill="white" x="3.69922" y="-0.100098" width="506" height="91"/>
<path d="M53.5992 77.5999H52.9992C51.7992 77.5999 50.6659 77.2999 49.5992 76.6999C47.6659 75.2332 46.2326 73.2666 45.2992 70.7999C43.6326 67.3332 42.1326 63.7666 40.7992 60.0999C39.5326 56.8999 38.3992 53.6666 37.3992 50.3999L36.7992 48.2999C36.1992 55.4332 34.6326 62.3332 32.0992 68.9999C31.2992 71.2666 30.1659 73.1999 28.6992 74.7999C27.2326 76.3332 25.5992 77.0999 23.7992 77.0999L22.5992 76.9999C20.7992 76.4666 19.4326 75.3666 18.4992 73.6999C17.5659 71.9666 16.8992 70.1666 16.4992 68.2999C14.8326 60.6332 13.9992 52.8999 13.9992 45.0999C13.9992 39.0332 14.4992 32.9666 15.4992 26.8999L15.5992 26.5999C15.8659 24.1332 16.3659 21.6999 17.0992 19.2999C17.8326 16.8332 19.0992 14.8666 20.8992 13.3999C22.6992 11.9332 24.5659 11.1999 26.4992 11.1999C27.6326 11.1999 28.7659 11.3999 29.8992 11.7999C32.8326 13.3999 34.7992 15.8666 35.7992 19.1999C36.7992 22.4666 37.2992 26.1999 37.2992 30.3999C40.3659 25.9332 43.1992 22.1999 45.7992 19.1999C47.1992 17.1999 48.9992 15.7666 51.1992 14.8999C51.7992 14.7666 52.3659 14.6999 52.8992 14.6999C55.0326 14.6999 56.8659 15.5999 58.3992 17.3999C59.9326 19.1999 60.6992 21.2999 60.6992 23.6999C60.6992 26.6332 59.8326 29.5332 58.0992 32.3999C55.4326 36.7999 51.8659 40.2332 47.3992 42.6999C48.7326 43.4332 49.9992 44.2666 51.1992 45.1999C56.0659 49.1332 59.3659 54.1666 61.0992 60.2999C61.6992 62.2332 61.9992 64.1999 61.9992 66.1999C61.9992 70.4666 60.4992 73.7666 57.4992 76.0999C56.2992 76.9666 54.9992 77.4666 53.5992 77.5999ZM90.9461 70.9999C82.6128 70.9332 75.6128 68.2999 69.9461 63.0999C64.2794 57.8332 61.3461 50.9666 61.1461 42.4999C61.5461 32.6999 65.2461 24.7999 72.2461 18.7999C78.0461 13.9332 84.4461 11.4999 91.4461 11.4999C92.9794 11.4999 94.5128 11.5999 96.0461 11.7999C102.379 13.0666 107.779 15.9999 112.246 20.5999C116.779 25.1332 119.379 30.8999 120.046 37.8999V39.6999C120.046 47.6999 117.379 54.8332 112.046 61.0999C106.713 67.2999 99.6794 70.5999 90.9461 70.9999ZM90.4461 53.5999C94.7794 53.5999 98.2461 51.9666 100.846 48.6999C102.913 46.0999 103.946 43.0666 103.946 39.5999V38.6999C103.546 35.2999 102.213 32.6666 99.9461 30.7999C97.6794 28.9332 94.9461 27.8332 91.7461 27.4999H91.2461C87.6461 27.4999 84.5128 28.8332 81.8461 31.4999C79.2461 34.0999 77.8461 37.4999 77.6461 41.6999C77.7794 45.8332 79.2461 48.9332 82.0461 50.9999C84.4461 52.7332 87.2461 53.5999 90.4461 53.5999ZM138.212 77.0999L136.312 76.9999C131.778 76.3999 128.278 74.2666 125.812 70.5999C124.745 68.7332 124.045 66.7666 123.712 64.6999C123.378 62.5666 123.178 60.4332 123.112 58.2999L121.912 33.2999L121.812 30.3999C121.812 29.3999 121.845 28.1999 121.912 26.7999C122.045 25.3332 122.578 23.7666 123.512 22.0999C125.578 18.6332 128.812 16.8999 133.212 16.8999C134.945 16.8999 136.712 17.2666 138.512 17.9999C140.378 18.6666 141.778 20.1332 142.712 22.3999C143.578 25.1999 144.012 28.0332 144.012 30.8999C144.012 31.9666 143.945 32.9999 143.812 33.9999C143.812 40.0666 143.478 47.0999 142.812 55.0999L144.512 54.2999C146.112 53.4999 147.478 53.0999 148.612 53.0999C149.345 53.0999 150.045 53.1999 150.712 53.3999C153.645 54.5332 155.512 56.6332 156.312 59.6999C156.445 60.4999 156.512 61.2999 156.512 62.0999C156.512 64.2332 155.945 66.2666 154.812 68.1999C153.212 70.7332 151.112 72.7332 148.512 74.1999C145.312 76.1332 141.878 77.0999 138.212 77.0999ZM172.123 80.3999C169.457 80.2666 166.99 79.4332 164.723 77.8999C160.99 75.0332 158.857 70.1999 158.323 63.3999C158.257 62.1999 158.223 60.9666 158.223 59.6999C158.223 56.8999 158.39 54.0666 158.723 51.1999V50.8999C158.923 46.4332 159.59 42.0332 160.723 37.6999C161.79 33.6332 163.723 30.0666 166.523 26.9999C169.79 23.6666 173.723 21.6999 178.323 21.0999L180.123 20.9999C182.19 20.9999 184.19 21.4332 186.123 22.2999C188.657 23.5666 190.223 25.5666 190.823 28.2999L190.923 29.4999C190.923 30.8332 190.523 32.1999 189.723 33.5999C188.99 34.9999 187.89 36.1999 186.423 37.1999C183.357 38.9999 180.023 39.9666 176.423 40.0999L176.023 40.1999C172.623 40.1999 170.59 41.2666 169.923 43.3999L169.823 43.9999C169.823 44.8666 170.157 45.5999 170.823 46.1999C171.49 46.7332 172.157 46.9999 172.823 46.9999C173.757 46.9999 174.623 46.8666 175.423 46.5999C176.29 46.3332 177.123 46.1999 177.923 46.1999C178.657 46.2666 179.357 46.4666 180.023 46.7999C181.157 47.4666 181.723 48.3666 181.723 49.4999C181.723 50.6999 181.19 51.7999 180.123 52.7999C179.123 53.7332 177.857 54.4332 176.323 54.8999C172.723 56.2332 170.923 58.0666 170.923 60.3999C170.923 60.7332 170.99 61.0999 171.123 61.4999C171.857 62.8332 172.99 63.4999 174.523 63.4999C175.057 63.4999 175.59 63.3999 176.123 63.1999C177.923 62.4666 179.357 61.2332 180.423 59.4999L181.023 58.6999C181.89 57.2999 182.923 56.0666 184.123 54.9999C185.523 53.9999 187.057 53.4999 188.723 53.4999C190.523 53.4999 192.09 53.9666 193.423 54.8999C195.623 56.4999 196.723 58.6332 196.723 61.2999C196.723 62.0999 196.59 62.8999 196.323 63.6999C195.523 65.6999 194.323 67.4666 192.723 68.9999C189.99 72.0666 186.89 74.7332 183.423 76.9999C180.023 79.2666 176.257 80.3999 172.123 80.3999ZM234.053 73.3999H233.653C232.52 73.3999 231.453 73.0999 230.453 72.4999C228.72 71.0999 227.486 69.2332 226.753 66.8999C224.22 60.6999 222.153 54.3666 220.553 47.8999L220.053 45.9999C219.186 52.4666 217.453 58.6666 214.853 64.5999C213.986 66.6666 212.82 68.4332 211.353 69.8999C210.086 71.0999 208.686 71.6999 207.153 71.6999C206.686 71.6999 206.22 71.6332 205.753 71.4999C203.086 70.6332 201.386 67.8999 200.653 63.2999C199.72 57.8999 199.253 52.4999 199.253 47.0999C199.253 39.8999 200.086 32.6999 201.753 25.4999V25.1999C202.153 22.9999 202.72 20.7999 203.453 18.5999C204.253 16.3999 205.553 14.5999 207.353 13.1999C208.886 12.1332 210.453 11.5999 212.053 11.5999C213.186 11.5999 214.353 11.8666 215.553 12.3999C218.086 13.9999 219.786 16.3666 220.653 19.4999C221.186 21.7666 221.453 24.0666 221.453 26.3999L221.353 29.6999L223.053 27.4999C225.186 24.8332 227.386 22.2999 229.653 19.8999C231.053 18.0999 232.753 16.8666 234.753 16.1999L236.053 16.0999C238.12 16.0999 239.786 16.9666 241.053 18.6999C242.386 20.3666 243.053 22.2332 243.053 24.2999L242.953 25.6999C242.553 28.1666 241.653 30.4332 240.253 32.4999C237.653 36.3666 234.22 39.3332 229.953 41.3999C231.153 42.1332 232.286 42.9666 233.353 43.8999C237.62 47.6999 240.386 52.4332 241.653 58.0999C242.053 59.5666 242.253 60.9999 242.253 62.3999C242.253 66.8666 240.72 70.1666 237.653 72.2999C236.52 73.0332 235.32 73.3999 234.053 73.3999ZM259.054 79.1999C257.521 79.1999 255.721 79.0332 253.654 78.6999C251.654 78.2999 249.721 77.2999 247.854 75.6999C245.121 73.2999 243.754 70.2332 243.754 66.4999C243.754 64.6332 244.187 62.8332 245.054 61.0999C246.387 58.6332 248.054 57.3999 250.054 57.3999C251.121 57.4666 252.087 57.8332 252.954 58.4999C253.821 59.1666 254.654 59.8999 255.454 60.6999L255.554 60.7999C257.487 62.9332 259.787 64.4999 262.454 65.4999C263.187 65.6999 263.954 65.7999 264.754 65.7999C265.354 65.7999 266.154 65.6999 267.154 65.4999C268.221 65.2332 269.154 64.5666 269.954 63.4999C270.821 62.3666 271.254 61.1999 271.254 59.9999C271.254 59.7332 271.187 59.1332 271.054 58.1999C270.987 57.2666 270.487 56.1666 269.554 54.8999C267.287 52.3666 264.387 50.4999 260.854 49.2999C258.321 48.2999 256.021 47.0332 253.954 45.4999C251.754 43.5666 250.254 41.1999 249.454 38.3999C249.054 36.9332 248.854 35.4999 248.854 34.0999C248.854 32.6999 249.054 31.2999 249.454 29.8999C251.454 24.0999 255.387 20.1666 261.254 18.0999C263.521 17.4332 265.754 17.0999 267.954 17.0999C271.354 17.0999 274.687 17.8666 277.954 19.3999C280.221 20.3999 282.121 21.8332 283.654 23.6999C284.987 25.3666 285.654 27.1999 285.654 29.1999C285.654 30.9999 285.121 32.4999 284.054 33.6999C282.987 34.8332 281.721 35.3999 280.254 35.3999C278.587 35.3999 276.921 34.9999 275.254 34.1999L273.854 33.5999C272.854 33.1999 271.587 32.9999 270.054 32.9999C268.854 32.9999 267.821 33.3666 266.954 34.0999C266.554 34.6332 266.354 35.2332 266.354 35.8999C266.354 36.3666 266.521 37.0666 266.854 37.9999C267.254 38.8666 267.787 39.6666 268.454 40.3999C270.121 42.0666 272.054 43.3999 274.254 44.3999L274.954 44.7999C276.887 45.5999 278.687 46.6332 280.354 47.8999C283.621 50.9666 285.254 54.6332 285.254 58.8999C285.254 59.8332 285.154 60.8332 284.954 61.8999C283.754 67.1666 280.887 71.3332 276.354 74.3999C271.287 77.5999 265.521 79.1999 259.054 79.1999ZM295.332 77.9999H294.832C292.299 77.3999 290.532 75.8666 289.532 73.3999C288.732 71.0666 288.332 68.3332 288.332 65.1999C288.132 60.7999 288.032 56.4332 288.032 52.0999C288.032 40.8999 288.632 31.8999 289.832 25.0999C290.699 21.3666 292.699 18.6332 295.832 16.8999C296.965 16.2999 298.032 15.9999 299.032 15.9999C300.965 15.9999 302.765 17.0332 304.432 19.0999C305.699 21.2999 306.399 23.7332 306.532 26.3999C307.132 31.1999 307.432 35.9666 307.432 40.6999C307.432 50.0332 306.299 59.2666 304.032 68.3999C303.499 70.8666 302.532 73.0999 301.132 75.0999C299.599 77.0332 297.665 77.9999 295.332 77.9999ZM369.434 79.0999H367.834C364.634 79.0999 361.467 78.7666 358.334 78.0999C351.867 76.6332 347.334 73.9332 344.734 69.9999C342.867 66.4666 341.934 62.5666 341.934 58.2999V57.8999C341.734 54.8332 341.634 51.7999 341.634 48.7999V43.4999C341.634 38.8332 341.967 33.9666 342.634 28.8999C343.367 23.8332 345.367 19.4332 348.634 15.6999C352.5 11.8999 356.934 9.9999 361.934 9.9999C362.8 9.9999 363.7 10.0666 364.634 10.1999C370.367 11.3999 375.367 14.2666 379.634 18.7999C384.9 23.9999 388.867 30.0999 391.534 37.0999C393.134 41.4332 393.934 45.7999 393.934 50.1999C393.934 53.1999 393.567 56.1999 392.834 59.1999C390.7 66.8666 386.434 72.5666 380.034 76.2999C376.7 78.0332 373.167 78.9666 369.434 79.0999ZM366.234 63.6999C367.9 63.6999 369.5 63.3332 371.034 62.5999C375.1 59.9999 377.134 55.5666 377.134 49.2999C377.134 46.2999 376.567 43.3999 375.434 40.5999C373.9 36.7999 371.934 33.3666 369.534 30.2999C367 26.6332 364.367 24.7999 361.634 24.7999H360.034C358.367 24.9332 357.534 27.9999 357.534 33.9999C357.534 35.6666 357.567 36.8999 357.634 37.6999C357.767 43.2999 358.1 48.8999 358.634 54.4999C358.767 58.0332 359.6 60.5999 361.134 62.1999C362.4 63.1999 364.1 63.6999 366.234 63.6999ZM424.345 70.9999C416.011 70.9332 409.011 68.2999 403.345 63.0999C397.678 57.8332 394.745 50.9666 394.545 42.4999C394.945 32.6999 398.645 24.7999 405.645 18.7999C411.445 13.9332 417.845 11.4999 424.845 11.4999C426.378 11.4999 427.911 11.5999 429.445 11.7999C435.778 13.0666 441.178 15.9999 445.645 20.5999C450.178 25.1332 452.778 30.8999 453.445 37.8999V39.6999C453.445 47.6999 450.778 54.8332 445.445 61.0999C440.111 67.2999 433.078 70.5999 424.345 70.9999ZM423.845 53.5999C428.178 53.5999 431.645 51.9666 434.245 48.6999C436.311 46.0999 437.345 43.0666 437.345 39.5999V38.6999C436.945 35.2999 435.611 32.6666 433.345 30.7999C431.078 28.9332 428.345 27.8332 425.145 27.4999H424.645C421.045 27.4999 417.911 28.8332 415.245 31.4999C412.645 34.0999 411.245 37.4999 411.045 41.6999C411.178 45.8332 412.645 48.9332 415.445 50.9999C417.845 52.7332 420.645 53.5999 423.845 53.5999ZM461.81 68.1999C460.877 68.1999 459.91 68.0332 458.91 67.6999C457.043 66.8332 455.81 65.5332 455.21 63.7999C454.743 62.3999 454.51 60.7332 454.51 58.7999C454.51 50.8666 455.943 42.9332 458.81 34.9999C461.143 28.3332 464.577 22.1999 469.11 16.5999C471.977 13.0666 475.11 11.2332 478.51 11.0999C482.243 11.2332 485.543 13.2999 488.41 17.2999C492.943 23.4332 495.977 30.0666 497.51 37.1999C498.91 43.7332 499.61 50.8666 499.61 58.5999C499.61 60.3332 499.443 61.8999 499.11 63.2999C498.777 64.6999 497.91 65.8999 496.51 66.8999C495.377 67.6332 493.91 67.9999 492.11 67.9999C490.777 67.9999 489.543 67.7332 488.41 67.1999C486.01 65.7332 484.377 63.7666 483.51 61.2999C482.643 58.7666 482.21 56.1332 482.21 53.3999L482.11 47.3999C480.977 47.5999 479.81 47.6999 478.61 47.6999C477.677 47.6999 476.743 47.6332 475.81 47.4999C475.543 52.6999 473.91 57.5999 470.91 62.1999C469.777 64.1332 468.177 65.7332 466.11 66.9999C464.71 67.7999 463.277 68.1999 461.81 68.1999ZM479.21 36.9999C479.677 36.9999 480.21 36.7666 480.81 36.2999C481.41 35.7666 481.777 35.0332 481.91 34.0999L482.01 32.7999C482.01 30.9332 481.677 29.3332 481.01 27.9999C480.61 27.0666 479.91 26.4332 478.91 26.0999L478.51 25.9999C478.11 25.9999 477.677 26.5332 477.21 27.5999L477.11 27.8999C476.643 29.1666 476.41 30.4666 476.41 31.7999C476.41 33.3999 476.71 34.7332 477.31 35.7999C477.71 36.5999 478.343 36.9999 479.21 36.9999Z"/>
</mask>
<path d="M53.5992 77.5999H52.9992C51.7992 77.5999 50.6659 77.2999 49.5992 76.6999C47.6659 75.2332 46.2326 73.2666 45.2992 70.7999C43.6326 67.3332 42.1326 63.7666 40.7992 60.0999C39.5326 56.8999 38.3992 53.6666 37.3992 50.3999L36.7992 48.2999C36.1992 55.4332 34.6326 62.3332 32.0992 68.9999C31.2992 71.2666 30.1659 73.1999 28.6992 74.7999C27.2326 76.3332 25.5992 77.0999 23.7992 77.0999L22.5992 76.9999C20.7992 76.4666 19.4326 75.3666 18.4992 73.6999C17.5659 71.9666 16.8992 70.1666 16.4992 68.2999C14.8326 60.6332 13.9992 52.8999 13.9992 45.0999C13.9992 39.0332 14.4992 32.9666 15.4992 26.8999L15.5992 26.5999C15.8659 24.1332 16.3659 21.6999 17.0992 19.2999C17.8326 16.8332 19.0992 14.8666 20.8992 13.3999C22.6992 11.9332 24.5659 11.1999 26.4992 11.1999C27.6326 11.1999 28.7659 11.3999 29.8992 11.7999C32.8326 13.3999 34.7992 15.8666 35.7992 19.1999C36.7992 22.4666 37.2992 26.1999 37.2992 30.3999C40.3659 25.9332 43.1992 22.1999 45.7992 19.1999C47.1992 17.1999 48.9992 15.7666 51.1992 14.8999C51.7992 14.7666 52.3659 14.6999 52.8992 14.6999C55.0326 14.6999 56.8659 15.5999 58.3992 17.3999C59.9326 19.1999 60.6992 21.2999 60.6992 23.6999C60.6992 26.6332 59.8326 29.5332 58.0992 32.3999C55.4326 36.7999 51.8659 40.2332 47.3992 42.6999C48.7326 43.4332 49.9992 44.2666 51.1992 45.1999C56.0659 49.1332 59.3659 54.1666 61.0992 60.2999C61.6992 62.2332 61.9992 64.1999 61.9992 66.1999C61.9992 70.4666 60.4992 73.7666 57.4992 76.0999C56.2992 76.9666 54.9992 77.4666 53.5992 77.5999ZM90.9461 70.9999C82.6128 70.9332 75.6128 68.2999 69.9461 63.0999C64.2794 57.8332 61.3461 50.9666 61.1461 42.4999C61.5461 32.6999 65.2461 24.7999 72.2461 18.7999C78.0461 13.9332 84.4461 11.4999 91.4461 11.4999C92.9794 11.4999 94.5128 11.5999 96.0461 11.7999C102.379 13.0666 107.779 15.9999 112.246 20.5999C116.779 25.1332 119.379 30.8999 120.046 37.8999V39.6999C120.046 47.6999 117.379 54.8332 112.046 61.0999C106.713 67.2999 99.6794 70.5999 90.9461 70.9999ZM90.4461 53.5999C94.7794 53.5999 98.2461 51.9666 100.846 48.6999C102.913 46.0999 103.946 43.0666 103.946 39.5999V38.6999C103.546 35.2999 102.213 32.6666 99.9461 30.7999C97.6794 28.9332 94.9461 27.8332 91.7461 27.4999H91.2461C87.6461 27.4999 84.5128 28.8332 81.8461 31.4999C79.2461 34.0999 77.8461 37.4999 77.6461 41.6999C77.7794 45.8332 79.2461 48.9332 82.0461 50.9999C84.4461 52.7332 87.2461 53.5999 90.4461 53.5999ZM138.212 77.0999L136.312 76.9999C131.778 76.3999 128.278 74.2666 125.812 70.5999C124.745 68.7332 124.045 66.7666 123.712 64.6999C123.378 62.5666 123.178 60.4332 123.112 58.2999L121.912 33.2999L121.812 30.3999C121.812 29.3999 121.845 28.1999 121.912 26.7999C122.045 25.3332 122.578 23.7666 123.512 22.0999C125.578 18.6332 128.812 16.8999 133.212 16.8999C134.945 16.8999 136.712 17.2666 138.512 17.9999C140.378 18.6666 141.778 20.1332 142.712 22.3999C143.578 25.1999 144.012 28.0332 144.012 30.8999C144.012 31.9666 143.945 32.9999 143.812 33.9999C143.812 40.0666 143.478 47.0999 142.812 55.0999L144.512 54.2999C146.112 53.4999 147.478 53.0999 148.612 53.0999C149.345 53.0999 150.045 53.1999 150.712 53.3999C153.645 54.5332 155.512 56.6332 156.312 59.6999C156.445 60.4999 156.512 61.2999 156.512 62.0999C156.512 64.2332 155.945 66.2666 154.812 68.1999C153.212 70.7332 151.112 72.7332 148.512 74.1999C145.312 76.1332 141.878 77.0999 138.212 77.0999ZM172.123 80.3999C169.457 80.2666 166.99 79.4332 164.723 77.8999C160.99 75.0332 158.857 70.1999 158.323 63.3999C158.257 62.1999 158.223 60.9666 158.223 59.6999C158.223 56.8999 158.39 54.0666 158.723 51.1999V50.8999C158.923 46.4332 159.59 42.0332 160.723 37.6999C161.79 33.6332 163.723 30.0666 166.523 26.9999C169.79 23.6666 173.723 21.6999 178.323 21.0999L180.123 20.9999C182.19 20.9999 184.19 21.4332 186.123 22.2999C188.657 23.5666 190.223 25.5666 190.823 28.2999L190.923 29.4999C190.923 30.8332 190.523 32.1999 189.723 33.5999C188.99 34.9999 187.89 36.1999 186.423 37.1999C183.357 38.9999 180.023 39.9666 176.423 40.0999L176.023 40.1999C172.623 40.1999 170.59 41.2666 169.923 43.3999L169.823 43.9999C169.823 44.8666 170.157 45.5999 170.823 46.1999C171.49 46.7332 172.157 46.9999 172.823 46.9999C173.757 46.9999 174.623 46.8666 175.423 46.5999C176.29 46.3332 177.123 46.1999 177.923 46.1999C178.657 46.2666 179.357 46.4666 180.023 46.7999C181.157 47.4666 181.723 48.3666 181.723 49.4999C181.723 50.6999 181.19 51.7999 180.123 52.7999C179.123 53.7332 177.857 54.4332 176.323 54.8999C172.723 56.2332 170.923 58.0666 170.923 60.3999C170.923 60.7332 170.99 61.0999 171.123 61.4999C171.857 62.8332 172.99 63.4999 174.523 63.4999C175.057 63.4999 175.59 63.3999 176.123 63.1999C177.923 62.4666 179.357 61.2332 180.423 59.4999L181.023 58.6999C181.89 57.2999 182.923 56.0666 184.123 54.9999C185.523 53.9999 187.057 53.4999 188.723 53.4999C190.523 53.4999 192.09 53.9666 193.423 54.8999C195.623 56.4999 196.723 58.6332 196.723 61.2999C196.723 62.0999 196.59 62.8999 196.323 63.6999C195.523 65.6999 194.323 67.4666 192.723 68.9999C189.99 72.0666 186.89 74.7332 183.423 76.9999C180.023 79.2666 176.257 80.3999 172.123 80.3999ZM234.053 73.3999H233.653C232.52 73.3999 231.453 73.0999 230.453 72.4999C228.72 71.0999 227.486 69.2332 226.753 66.8999C224.22 60.6999 222.153 54.3666 220.553 47.8999L220.053 45.9999C219.186 52.4666 217.453 58.6666 214.853 64.5999C213.986 66.6666 212.82 68.4332 211.353 69.8999C210.086 71.0999 208.686 71.6999 207.153 71.6999C206.686 71.6999 206.22 71.6332 205.753 71.4999C203.086 70.6332 201.386 67.8999 200.653 63.2999C199.72 57.8999 199.253 52.4999 199.253 47.0999C199.253 39.8999 200.086 32.6999 201.753 25.4999V25.1999C202.153 22.9999 202.72 20.7999 203.453 18.5999C204.253 16.3999 205.553 14.5999 207.353 13.1999C208.886 12.1332 210.453 11.5999 212.053 11.5999C213.186 11.5999 214.353 11.8666 215.553 12.3999C218.086 13.9999 219.786 16.3666 220.653 19.4999C221.186 21.7666 221.453 24.0666 221.453 26.3999L221.353 29.6999L223.053 27.4999C225.186 24.8332 227.386 22.2999 229.653 19.8999C231.053 18.0999 232.753 16.8666 234.753 16.1999L236.053 16.0999C238.12 16.0999 239.786 16.9666 241.053 18.6999C242.386 20.3666 243.053 22.2332 243.053 24.2999L242.953 25.6999C242.553 28.1666 241.653 30.4332 240.253 32.4999C237.653 36.3666 234.22 39.3332 229.953 41.3999C231.153 42.1332 232.286 42.9666 233.353 43.8999C237.62 47.6999 240.386 52.4332 241.653 58.0999C242.053 59.5666 242.253 60.9999 242.253 62.3999C242.253 66.8666 240.72 70.1666 237.653 72.2999C236.52 73.0332 235.32 73.3999 234.053 73.3999ZM259.054 79.1999C257.521 79.1999 255.721 79.0332 253.654 78.6999C251.654 78.2999 249.721 77.2999 247.854 75.6999C245.121 73.2999 243.754 70.2332 243.754 66.4999C243.754 64.6332 244.187 62.8332 245.054 61.0999C246.387 58.6332 248.054 57.3999 250.054 57.3999C251.121 57.4666 252.087 57.8332 252.954 58.4999C253.821 59.1666 254.654 59.8999 255.454 60.6999L255.554 60.7999C257.487 62.9332 259.787 64.4999 262.454 65.4999C263.187 65.6999 263.954 65.7999 264.754 65.7999C265.354 65.7999 266.154 65.6999 267.154 65.4999C268.221 65.2332 269.154 64.5666 269.954 63.4999C270.821 62.3666 271.254 61.1999 271.254 59.9999C271.254 59.7332 271.187 59.1332 271.054 58.1999C270.987 57.2666 270.487 56.1666 269.554 54.8999C267.287 52.3666 264.387 50.4999 260.854 49.2999C258.321 48.2999 256.021 47.0332 253.954 45.4999C251.754 43.5666 250.254 41.1999 249.454 38.3999C249.054 36.9332 248.854 35.4999 248.854 34.0999C248.854 32.6999 249.054 31.2999 249.454 29.8999C251.454 24.0999 255.387 20.1666 261.254 18.0999C263.521 17.4332 265.754 17.0999 267.954 17.0999C271.354 17.0999 274.687 17.8666 277.954 19.3999C280.221 20.3999 282.121 21.8332 283.654 23.6999C284.987 25.3666 285.654 27.1999 285.654 29.1999C285.654 30.9999 285.121 32.4999 284.054 33.6999C282.987 34.8332 281.721 35.3999 280.254 35.3999C278.587 35.3999 276.921 34.9999 275.254 34.1999L273.854 33.5999C272.854 33.1999 271.587 32.9999 270.054 32.9999C268.854 32.9999 267.821 33.3666 266.954 34.0999C266.554 34.6332 266.354 35.2332 266.354 35.8999C266.354 36.3666 266.521 37.0666 266.854 37.9999C267.254 38.8666 267.787 39.6666 268.454 40.3999C270.121 42.0666 272.054 43.3999 274.254 44.3999L274.954 44.7999C276.887 45.5999 278.687 46.6332 280.354 47.8999C283.621 50.9666 285.254 54.6332 285.254 58.8999C285.254 59.8332 285.154 60.8332 284.954 61.8999C283.754 67.1666 280.887 71.3332 276.354 74.3999C271.287 77.5999 265.521 79.1999 259.054 79.1999ZM295.332 77.9999H294.832C292.299 77.3999 290.532 75.8666 289.532 73.3999C288.732 71.0666 288.332 68.3332 288.332 65.1999C288.132 60.7999 288.032 56.4332 288.032 52.0999C288.032 40.8999 288.632 31.8999 289.832 25.0999C290.699 21.3666 292.699 18.6332 295.832 16.8999C296.965 16.2999 298.032 15.9999 299.032 15.9999C300.965 15.9999 302.765 17.0332 304.432 19.0999C305.699 21.2999 306.399 23.7332 306.532 26.3999C307.132 31.1999 307.432 35.9666 307.432 40.6999C307.432 50.0332 306.299 59.2666 304.032 68.3999C303.499 70.8666 302.532 73.0999 301.132 75.0999C299.599 77.0332 297.665 77.9999 295.332 77.9999ZM369.434 79.0999H367.834C364.634 79.0999 361.467 78.7666 358.334 78.0999C351.867 76.6332 347.334 73.9332 344.734 69.9999C342.867 66.4666 341.934 62.5666 341.934 58.2999V57.8999C341.734 54.8332 341.634 51.7999 341.634 48.7999V43.4999C341.634 38.8332 341.967 33.9666 342.634 28.8999C343.367 23.8332 345.367 19.4332 348.634 15.6999C352.5 11.8999 356.934 9.9999 361.934 9.9999C362.8 9.9999 363.7 10.0666 364.634 10.1999C370.367 11.3999 375.367 14.2666 379.634 18.7999C384.9 23.9999 388.867 30.0999 391.534 37.0999C393.134 41.4332 393.934 45.7999 393.934 50.1999C393.934 53.1999 393.567 56.1999 392.834 59.1999C390.7 66.8666 386.434 72.5666 380.034 76.2999C376.7 78.0332 373.167 78.9666 369.434 79.0999ZM366.234 63.6999C367.9 63.6999 369.5 63.3332 371.034 62.5999C375.1 59.9999 377.134 55.5666 377.134 49.2999C377.134 46.2999 376.567 43.3999 375.434 40.5999C373.9 36.7999 371.934 33.3666 369.534 30.2999C367 26.6332 364.367 24.7999 361.634 24.7999H360.034C358.367 24.9332 357.534 27.9999 357.534 33.9999C357.534 35.6666 357.567 36.8999 357.634 37.6999C357.767 43.2999 358.1 48.8999 358.634 54.4999C358.767 58.0332 359.6 60.5999 361.134 62.1999C362.4 63.1999 364.1 63.6999 366.234 63.6999ZM424.345 70.9999C416.011 70.9332 409.011 68.2999 403.345 63.0999C397.678 57.8332 394.745 50.9666 394.545 42.4999C394.945 32.6999 398.645 24.7999 405.645 18.7999C411.445 13.9332 417.845 11.4999 424.845 11.4999C426.378 11.4999 427.911 11.5999 429.445 11.7999C435.778 13.0666 441.178 15.9999 445.645 20.5999C450.178 25.1332 452.778 30.8999 453.445 37.8999V39.6999C453.445 47.6999 450.778 54.8332 445.445 61.0999C440.111 67.2999 433.078 70.5999 424.345 70.9999ZM423.845 53.5999C428.178 53.5999 431.645 51.9666 434.245 48.6999C436.311 46.0999 437.345 43.0666 437.345 39.5999V38.6999C436.945 35.2999 435.611 32.6666 433.345 30.7999C431.078 28.9332 428.345 27.8332 425.145 27.4999H424.645C421.045 27.4999 417.911 28.8332 415.245 31.4999C412.645 34.0999 411.245 37.4999 411.045 41.6999C411.178 45.8332 412.645 48.9332 415.445 50.9999C417.845 52.7332 420.645 53.5999 423.845 53.5999ZM461.81 68.1999C460.877 68.1999 459.91 68.0332 458.91 67.6999C457.043 66.8332 455.81 65.5332 455.21 63.7999C454.743 62.3999 454.51 60.7332 454.51 58.7999C454.51 50.8666 455.943 42.9332 458.81 34.9999C461.143 28.3332 464.577 22.1999 469.11 16.5999C471.977 13.0666 475.11 11.2332 478.51 11.0999C482.243 11.2332 485.543 13.2999 488.41 17.2999C492.943 23.4332 495.977 30.0666 497.51 37.1999C498.91 43.7332 499.61 50.8666 499.61 58.5999C499.61 60.3332 499.443 61.8999 499.11 63.2999C498.777 64.6999 497.91 65.8999 496.51 66.8999C495.377 67.6332 493.91 67.9999 492.11 67.9999C490.777 67.9999 489.543 67.7332 488.41 67.1999C486.01 65.7332 484.377 63.7666 483.51 61.2999C482.643 58.7666 482.21 56.1332 482.21 53.3999L482.11 47.3999C480.977 47.5999 479.81 47.6999 478.61 47.6999C477.677 47.6999 476.743 47.6332 475.81 47.4999C475.543 52.6999 473.91 57.5999 470.91 62.1999C469.777 64.1332 468.177 65.7332 466.11 66.9999C464.71 67.7999 463.277 68.1999 461.81 68.1999ZM479.21 36.9999C479.677 36.9999 480.21 36.7666 480.81 36.2999C481.41 35.7666 481.777 35.0332 481.91 34.0999L482.01 32.7999C482.01 30.9332 481.677 29.3332 481.01 27.9999C480.61 27.0666 479.91 26.4332 478.91 26.0999L478.51 25.9999C478.11 25.9999 477.677 26.5332 477.21 27.5999L477.11 27.8999C476.643 29.1666 476.41 30.4666 476.41 31.7999C476.41 33.3999 476.71 34.7332 477.31 35.7999C477.71 36.5999 478.343 36.9999 479.21 36.9999Z" fill="#F7C93E"/>
<path d="M53.5992 77.5999V87.5999H54.0743L54.5473 87.5549L53.5992 77.5999ZM49.5992 76.6999L43.5554 84.6668L44.1004 85.0803L44.6966 85.4157L49.5992 76.6999ZM45.2992 70.7999L54.6521 67.261L54.4991 66.8566L54.3117 66.467L45.2992 70.7999ZM40.7992 60.0999L50.1972 56.6825L50.1491 56.5502L50.0973 56.4194L40.7992 60.0999ZM37.3992 50.3999L27.784 53.1471L27.8098 53.2373L27.8372 53.327L37.3992 50.3999ZM36.7992 48.2999L46.4145 45.5527L26.8344 47.4617L36.7992 48.2999ZM32.0992 68.9999L22.7514 65.4477L22.709 65.5592L22.6693 65.6717L32.0992 68.9999ZM28.6992 74.7999L35.9256 81.7121L35.999 81.6354L36.0708 81.5572L28.6992 74.7999ZM23.7992 77.0999L22.9688 87.0654L23.3833 87.0999H23.7992V77.0999ZM22.5992 76.9999L19.7583 86.5879L20.7441 86.88L21.7688 86.9654L22.5992 76.9999ZM18.4992 73.6999L9.69451 78.4409L9.73373 78.5137L9.77416 78.5859L18.4992 73.6999ZM16.4992 68.2999L26.2772 66.2046L26.2741 66.1901L26.271 66.1756L16.4992 68.2999ZM15.4992 26.8999L6.01238 23.7376L5.76143 24.4905L5.63236 25.2735L15.4992 26.8999ZM15.5992 26.5999L25.0861 29.7622L25.4258 28.7429L25.5413 27.6747L15.5992 26.5999ZM17.0992 19.2999L26.6627 22.2221L26.6738 22.1859L26.6846 22.1496L17.0992 19.2999ZM20.8992 13.3999L14.5825 5.64755H14.5825L20.8992 13.3999ZM29.8992 11.7999L34.6877 3.02094L33.9837 2.63691L33.2274 2.36999L29.8992 11.7999ZM35.7992 19.1999L26.221 22.0734L26.229 22.1002L26.2372 22.127L35.7992 19.1999ZM37.2992 30.3999H27.2992V62.6327L45.5432 36.06L37.2992 30.3999ZM45.7992 19.1999L53.3561 25.7492L53.6949 25.3583L53.9915 24.9345L45.7992 19.1999ZM51.1992 14.8999L49.0299 5.13802L48.264 5.30823L47.534 5.59582L51.1992 14.8999ZM58.3992 17.3999L50.7868 23.8846L50.7868 23.8846L58.3992 17.3999ZM58.0992 32.3999L66.6512 37.5829L66.6565 37.5741L58.0992 32.3999ZM47.3992 42.6999L42.565 33.946L26.6812 42.7177L42.58 51.4621L47.3992 42.6999ZM51.1992 45.1999L57.4851 37.4225L57.4124 37.3638L57.3386 37.3064L51.1992 45.1999ZM61.0992 60.2999L51.4761 63.0195L51.5108 63.1421L51.5486 63.2639L61.0992 60.2999ZM57.4992 76.0999L63.3541 84.2067L63.4983 84.1026L63.6386 83.9934L57.4992 76.0999ZM53.5992 77.5999V67.5999H52.9992V77.5999V87.5999H53.5992V77.5999ZM52.9992 77.5999V67.5999C53.2425 67.5999 53.5202 67.6316 53.8081 67.7078C54.095 67.7838 54.3298 67.8874 54.5018 67.9841L49.5992 76.6999L44.6966 85.4157C47.229 86.8401 50.0465 87.5999 52.9992 87.5999V77.5999ZM49.5992 76.6999L55.6431 68.733C55.3364 68.5003 54.9803 68.1285 54.6521 67.261L45.2992 70.7999L35.9464 74.3388C37.4848 78.4046 39.9954 81.9662 43.5554 84.6668L49.5992 76.6999ZM45.2992 70.7999L54.3117 66.467C52.7907 63.3031 51.4189 60.0422 50.1972 56.6825L40.7992 60.0999L31.4013 63.5173C32.8462 67.4909 34.4744 71.3633 36.2867 75.1328L45.2992 70.7999ZM40.7992 60.0999L50.0973 56.4194C48.9279 53.4651 47.8827 50.483 46.9612 47.4728L37.3992 50.3999L27.8372 53.327C28.9157 56.8501 30.1372 60.3347 31.5012 63.7804L40.7992 60.0999ZM37.3992 50.3999L47.0145 47.6527L46.4145 45.5527L36.7992 48.2999L27.184 51.0471L27.784 53.1471L37.3992 50.3999ZM36.7992 48.2999L26.8344 47.4617C26.3123 53.6696 24.9523 59.6559 22.7514 65.4477L32.0992 68.9999L41.4471 72.5521C44.3128 65.0106 46.0862 57.1969 46.764 49.1381L36.7992 48.2999ZM32.0992 68.9999L22.6693 65.6717C22.2692 66.8053 21.7911 67.5371 21.3277 68.0427L28.6992 74.7999L36.0708 81.5572C38.5407 78.8627 40.3292 75.7278 41.5291 72.3281L32.0992 68.9999ZM28.6992 74.7999L21.4728 67.8877C21.4444 67.9173 21.6483 67.6964 22.1251 67.4725C22.6348 67.2333 23.2268 67.0999 23.7992 67.0999V77.0999V87.0999C28.8157 87.0999 32.9381 84.8355 35.9256 81.7121L28.6992 74.7999ZM23.7992 77.0999L24.6297 67.1344L23.4297 67.0344L22.5992 76.9999L21.7688 86.9654L22.9688 87.0654L23.7992 77.0999ZM22.5992 76.9999L25.4401 67.4119C25.7008 67.4892 26.0931 67.6618 26.4943 67.9848C26.8928 68.3055 27.1217 68.6307 27.2243 68.8139L18.4992 73.6999L9.77416 78.5859C11.9562 82.4824 15.4106 85.2997 19.7583 86.5879L22.5992 76.9999ZM18.4992 73.6999L27.3039 68.9589C26.8043 68.0309 26.4732 67.1192 26.2772 66.2046L16.4992 68.2999L6.72119 70.3952C7.3252 73.2139 8.32751 75.9022 9.69451 78.4409L18.4992 73.6999ZM16.4992 68.2999L26.271 66.1756C24.7551 59.2027 23.9992 52.1815 23.9992 45.0999H13.9992H3.99922C3.99922 53.6183 4.90996 62.0637 6.72746 70.4242L16.4992 68.2999ZM13.9992 45.0999H23.9992C23.9992 39.5854 24.4535 34.0626 25.3661 28.5263L15.4992 26.8999L5.63236 25.2735C4.54495 31.8705 3.99922 38.4811 3.99922 45.0999H13.9992ZM15.4992 26.8999L24.9861 30.0622L25.0861 29.7622L15.5992 26.5999L6.11238 23.4376L6.01238 23.7376L15.4992 26.8999ZM15.5992 26.5999L25.5413 27.6747C25.7395 25.8416 26.1114 24.0265 26.6627 22.2221L17.0992 19.2999L7.5357 16.3777C6.6204 19.3733 5.9923 22.4249 5.65715 25.5251L15.5992 26.5999ZM17.0992 19.2999L26.6846 22.1496C26.9101 21.3911 27.1401 21.2141 27.216 21.1522L20.8992 13.3999L14.5825 5.64755C11.0584 8.51905 8.75502 12.2754 7.51386 16.4502L17.0992 19.2999ZM20.8992 13.3999L27.216 21.1522C27.4385 20.9709 27.4721 20.9921 27.3057 21.0574C27.2228 21.09 27.1047 21.1276 26.9566 21.1562C26.8077 21.185 26.6524 21.1999 26.4992 21.1999V11.1999V1.1999C21.8258 1.1999 17.7941 3.03065 14.5825 5.64755L20.8992 13.3999ZM26.4992 11.1999V21.1999C26.488 21.1999 26.4781 21.1994 26.4703 21.1987C26.4625 21.198 26.4593 21.1974 26.4614 21.1977C26.464 21.1982 26.4993 21.2045 26.571 21.2298L29.8992 11.7999L33.2274 2.36999C31.0901 1.61564 28.8332 1.1999 26.4992 1.1999V11.1999ZM29.8992 11.7999L25.1107 20.5788C25.6274 20.8607 25.9427 21.1458 26.221 22.0734L35.7992 19.1999L45.3775 16.3264C43.6558 10.5873 40.0377 5.93911 34.6877 3.02094L29.8992 11.7999ZM35.7992 19.1999L26.2372 22.127C26.8892 24.2569 27.2992 26.9737 27.2992 30.3999H37.2992H47.2992C47.2992 25.4261 46.7092 20.6763 45.3612 16.2728L35.7992 19.1999ZM37.2992 30.3999L45.5432 36.06C48.4684 31.7994 51.0717 28.3851 53.3561 25.7492L45.7992 19.1999L38.2423 12.6506C35.3267 16.0147 32.2634 20.0671 29.0552 24.7398L37.2992 30.3999ZM45.7992 19.1999L53.9915 24.9345C54.3043 24.4877 54.553 24.3267 54.8645 24.204L51.1992 14.8999L47.534 5.59582C43.4455 7.20644 40.0941 9.91212 37.6069 13.4653L45.7992 19.1999ZM51.1992 14.8999L53.3685 24.6618C53.3617 24.6633 53.1961 24.6999 52.8992 24.6999V14.6999V4.6999C51.5357 4.6999 50.2368 4.86984 49.0299 5.13802L51.1992 14.8999ZM52.8992 14.6999V24.6999C52.5081 24.6999 51.9838 24.605 51.4675 24.3516C50.9779 24.1112 50.7683 23.8628 50.7868 23.8846L58.3992 17.3999L66.0117 10.9152C62.8102 7.15699 58.3021 4.6999 52.8992 4.6999V14.6999ZM58.3992 17.3999L50.7868 23.8846C50.8131 23.9154 50.8096 23.9162 50.7918 23.886C50.7735 23.8549 50.7507 23.8093 50.7306 23.7543C50.7106 23.6994 50.7011 23.6568 50.6975 23.6357C50.6941 23.6157 50.6992 23.634 50.6992 23.6999H60.6992H70.6992C70.6992 18.9624 69.1113 14.5539 66.0116 10.9152L58.3992 17.3999ZM60.6992 23.6999H50.6992C50.6992 24.5618 50.4682 25.6937 49.5419 27.2257L58.0992 32.3999L66.6565 37.5741C69.1969 33.3728 70.6992 28.7046 70.6992 23.6999H60.6992ZM58.0992 32.3999L49.5472 27.2169C47.7785 30.1352 45.4883 32.3317 42.565 33.946L47.3992 42.6999L52.2334 51.4538C58.2435 48.1348 63.0866 43.4646 66.6512 37.5829L58.0992 32.3999ZM47.3992 42.6999L42.58 51.4621C43.4515 51.9414 44.2767 52.4843 45.0598 53.0934L51.1992 45.1999L57.3386 37.3064C55.7218 36.0488 54.0136 34.9251 52.2184 33.9377L47.3992 42.6999ZM51.1992 45.1999L44.9134 52.9773C48.1396 55.5848 50.2942 58.8371 51.4761 63.0195L61.0992 60.2999L70.7223 57.5803C68.4376 49.496 63.9921 42.6816 57.4851 37.4225L51.1992 45.1999ZM61.0992 60.2999L51.5486 63.2639C51.8544 64.2492 51.9992 65.2172 51.9992 66.1999H61.9992H71.9992C71.9992 63.1826 71.5441 60.2172 70.6499 57.3359L61.0992 60.2999ZM61.9992 66.1999H51.9992C51.9992 67.1558 51.8345 67.5963 51.7706 67.7369C51.7229 67.8416 51.6463 67.9835 51.3598 68.2064L57.4992 76.0999L63.6386 83.9934C69.3959 79.5156 71.9992 73.1211 71.9992 66.1999H61.9992ZM57.4992 76.0999L51.6443 67.9931C51.6996 67.9532 51.8308 67.8698 52.0344 67.7914C52.2409 67.712 52.4553 67.6636 52.6511 67.6449L53.5992 77.5999L54.5473 87.5549C57.8126 87.2439 60.7909 86.0579 63.3541 84.2067L57.4992 76.0999ZM90.9461 70.9999L90.8661 80.9996L91.135 81.0017L91.4036 80.9894L90.9461 70.9999ZM69.9461 63.0999L63.1383 70.4248L63.1615 70.4464L63.1849 70.4678L69.9461 63.0999ZM61.1461 42.4999L51.1544 42.0921L51.1413 42.414L51.1489 42.7361L61.1461 42.4999ZM72.2461 18.7999L65.8183 11.1394L65.7781 11.1731L65.7382 11.2073L72.2461 18.7999ZM96.0461 11.7999L98.0073 1.99409L97.6752 1.92768L97.3395 1.88389L96.0461 11.7999ZM112.246 20.5999L105.072 27.5662L105.123 27.619L105.175 27.671L112.246 20.5999ZM120.046 37.8999H130.046V37.4248L130.001 36.9518L120.046 37.8999ZM112.046 61.0999L119.627 67.6212L119.644 67.6012L119.661 67.5811L112.046 61.0999ZM100.846 48.6999L108.67 54.9274L108.674 54.9223L100.846 48.6999ZM103.946 38.6999H113.946V38.1137L113.878 37.5315L103.946 38.6999ZM99.9461 30.7999L93.589 38.5192V38.5192L99.9461 30.7999ZM91.7461 27.4999L92.7822 17.5537L92.2655 17.4999H91.7461V27.4999ZM81.8461 31.4999L88.9172 38.571V38.571L81.8461 31.4999ZM77.6461 41.6999L67.6574 41.2243L67.6384 41.6232L67.6513 42.0223L77.6461 41.6999ZM82.0461 50.9999L76.1076 59.0456L76.1492 59.0764L76.1912 59.1067L82.0461 50.9999ZM90.9461 70.9999L91.0261 61.0002C84.9441 60.9516 80.3904 59.1118 76.7073 55.732L69.9461 63.0999L63.1849 70.4678C70.8351 77.488 80.2815 80.9149 90.8661 80.9996L90.9461 70.9999ZM69.9461 63.0999L76.7539 55.775C73.2604 52.5281 71.2863 48.3162 71.1433 42.2637L61.1461 42.4999L51.1489 42.7361C51.4059 53.6169 55.2985 63.1383 63.1383 70.4248L69.9461 63.0999ZM61.1461 42.4999L71.1378 42.9077C71.4326 35.6837 74.0089 30.4597 78.754 26.3925L72.2461 18.7999L65.7382 11.2073C56.4833 19.1401 51.6596 29.7161 51.1544 42.0921L61.1461 42.4999ZM72.2461 18.7999L78.6739 26.4604C82.831 22.9722 86.9956 21.4999 91.4461 21.4999V11.4999V1.4999C81.8966 1.4999 73.2612 4.89423 65.8183 11.1394L72.2461 18.7999ZM91.4461 11.4999V21.4999C92.5433 21.4999 93.6446 21.5714 94.7527 21.7159L96.0461 11.7999L97.3395 1.88389C95.3809 1.62843 93.4156 1.4999 91.4461 1.4999V11.4999ZM96.0461 11.7999L94.0849 21.6057C98.4488 22.4785 102.026 24.4299 105.072 27.5662L112.246 20.5999L119.42 13.6336C113.532 7.56989 106.31 3.65466 98.0073 1.99409L96.0461 11.7999ZM112.246 20.5999L105.175 27.671C107.902 30.3981 109.622 33.9226 110.091 38.848L120.046 37.8999L130.001 36.9518C129.137 27.8772 125.657 19.8684 119.317 13.5288L112.246 20.5999ZM120.046 37.8999H110.046V39.6999H120.046H130.046V37.8999H120.046ZM120.046 39.6999H110.046C110.046 45.2517 108.273 50.1042 104.431 54.6187L112.046 61.0999L119.661 67.5811C126.486 59.5623 130.046 50.1481 130.046 39.6999H120.046ZM112.046 61.0999L104.465 54.5786C101.061 58.5353 96.6833 60.7266 90.4886 61.0104L90.9461 70.9999L91.4036 80.9894C102.676 80.4732 112.364 76.0645 119.627 67.6212L112.046 61.0999ZM90.4461 53.5999V63.5999C97.692 63.5999 104.091 60.6807 108.67 54.9274L100.846 48.6999L93.0219 42.4724C92.401 43.2525 91.8668 43.5999 90.4461 43.5999V53.5999ZM100.846 48.6999L108.674 54.9223C112.212 50.4715 113.946 45.2199 113.946 39.5999H103.946H93.9461C93.9461 40.9133 93.6133 41.7284 93.0179 42.4775L100.846 48.6999ZM103.946 39.5999H113.946V38.6999H103.946H93.9461V39.5999H103.946ZM103.946 38.6999L113.878 37.5315C113.23 32.0247 110.89 26.8584 106.303 23.0806L99.9461 30.7999L93.589 38.5192C93.6497 38.5692 93.6789 38.602 93.7245 38.6922C93.783 38.8076 93.9303 39.1519 94.0146 39.8683L103.946 38.6999ZM99.9461 30.7999L106.303 23.0806C102.376 19.8462 97.7413 18.0703 92.7822 17.5537L91.7461 27.4999L90.71 37.4461C92.1509 37.5962 92.9832 38.0203 93.589 38.5192L99.9461 30.7999ZM91.7461 27.4999V17.4999H91.2461V27.4999V37.4999H91.7461V27.4999ZM91.2461 27.4999V17.4999C84.8567 17.4999 79.2177 19.9861 74.775 24.4288L81.8461 31.4999L88.9172 38.571C89.8078 37.6803 90.4355 37.4999 91.2461 37.4999V27.4999ZM81.8461 31.4999L74.775 24.4288C70.1631 29.0407 67.9576 34.9213 67.6574 41.2243L77.6461 41.6999L87.6348 42.1755C87.7346 40.0785 88.3291 39.1591 88.9172 38.571L81.8461 31.4999ZM77.6461 41.6999L67.6513 42.0223C67.8626 48.5715 70.3691 54.8101 76.1076 59.0456L82.0461 50.9999L87.9846 42.9542C87.9162 42.9036 87.9003 42.8808 87.9068 42.8886C87.9137 42.897 87.906 42.8917 87.8855 42.8482C87.8458 42.7644 87.6723 42.3507 87.6409 41.3775L77.6461 41.6999ZM82.0461 50.9999L76.1912 59.1067C80.4354 62.1719 85.3236 63.5999 90.4461 63.5999V53.5999V43.5999C89.1686 43.5999 88.4568 43.2945 87.901 42.8931L82.0461 50.9999ZM138.212 77.0999L137.686 87.0861L137.949 87.0999H138.212V77.0999ZM136.312 76.9999L135 86.9135L135.391 86.9653L135.786 86.9861L136.312 76.9999ZM125.812 70.5999L117.129 75.5613L117.311 75.8785L117.514 76.1817L125.812 70.5999ZM123.712 64.6999L113.832 66.2437L113.835 66.268L113.839 66.2922L123.712 64.6999ZM123.112 58.2999L133.107 57.9876L133.104 57.904L133.1 57.8205L123.112 58.2999ZM121.912 33.2999L111.918 33.6445L111.92 33.712L111.923 33.7793L121.912 33.2999ZM121.812 30.3999H111.812V30.5723L111.818 30.7445L121.812 30.3999ZM121.912 26.7999L111.953 25.8945L111.933 26.1091L111.923 26.3242L121.912 26.7999ZM123.512 22.0999L114.922 16.9793L114.853 17.0956L114.787 17.2139L123.512 22.0999ZM138.512 17.9999L134.739 27.2608L134.942 27.3436L135.148 27.4173L138.512 17.9999ZM142.712 22.3999L152.265 19.4431L152.131 19.0108L151.958 18.5924L142.712 22.3999ZM143.812 33.9999L133.899 32.6783L133.812 33.3362V33.9999H143.812ZM142.812 55.0999L132.846 54.2694L131.409 71.5179L147.07 64.1481L142.812 55.0999ZM144.512 54.2999L148.77 63.3481L148.877 63.2974L148.984 63.2442L144.512 54.2999ZM150.712 53.3999L154.316 44.0719L153.955 43.9327L153.585 43.8216L150.712 53.3999ZM156.312 59.6999L166.176 58.0559L166.102 57.6116L165.988 57.1757L156.312 59.6999ZM154.812 68.1999L163.267 73.5398L163.355 73.3999L163.439 73.2571L154.812 68.1999ZM148.512 74.1999L143.599 65.4901L143.468 65.5635L143.341 65.6407L148.512 74.1999ZM138.212 77.0999L138.737 67.1137L136.837 67.0137L136.312 76.9999L135.786 86.9861L137.686 87.0861L138.212 77.0999ZM136.312 76.9999L137.624 67.0864C135.819 66.8475 134.913 66.2138 134.109 65.0181L125.812 70.5999L117.514 76.1817C121.643 82.3193 127.737 85.9523 135 86.9135L136.312 76.9999ZM125.812 70.5999L134.494 65.6385C134.007 64.7857 133.721 63.9567 133.584 63.1076L123.712 64.6999L113.839 66.2922C114.369 69.5764 115.483 72.6808 117.129 75.5613L125.812 70.5999ZM123.712 64.6999L133.592 63.1561C133.321 61.4258 133.16 59.7037 133.107 57.9876L123.112 58.2999L113.117 58.6123C113.196 61.1628 113.435 63.7074 113.832 66.2437L123.712 64.6999ZM123.112 58.2999L133.1 57.8205L131.9 32.8205L121.912 33.2999L111.923 33.7793L113.123 58.7794L123.112 58.2999ZM121.912 33.2999L131.906 32.9553L131.806 30.0553L121.812 30.3999L111.818 30.7445L111.918 33.6445L121.912 33.2999ZM121.812 30.3999H131.812C131.812 29.6071 131.839 28.5746 131.9 27.2756L121.912 26.7999L111.923 26.3242C111.852 27.8252 111.812 29.1926 111.812 30.3999H121.812ZM121.912 26.7999L131.871 27.7053C131.845 27.9872 131.794 27.7759 132.237 26.9859L123.512 22.0999L114.787 17.2139C113.362 19.7573 112.245 22.6793 111.953 25.8945L121.912 26.7999ZM123.512 22.0999L132.101 27.2205C132.16 27.1226 132.206 27.0579 132.236 27.0191C132.266 26.9806 132.283 26.9642 132.284 26.963C132.285 26.9621 132.276 26.9703 132.259 26.9829C132.242 26.9955 132.225 27.0061 132.211 27.0133C132.112 27.0667 132.333 26.8999 133.212 26.8999V16.8999V6.89989C125.673 6.89989 118.981 10.1709 114.922 16.9793L123.512 22.0999ZM133.212 16.8999V26.8999C133.504 26.8999 133.992 26.9565 134.739 27.2608L138.512 17.9999L142.285 8.73898C139.432 7.57664 136.387 6.89989 133.212 6.89989V16.8999ZM138.512 17.9999L135.148 27.4173C134.579 27.2139 134.079 26.8723 133.728 26.5047C133.412 26.1734 133.375 25.989 133.465 26.2074L142.712 22.3999L151.958 18.5924C150.222 14.3751 147.021 10.4203 141.875 8.58248L138.512 17.9999ZM142.712 22.3999L133.159 25.3567C133.736 27.2209 134.012 29.0582 134.012 30.8999H144.012H154.012C154.012 27.0083 153.421 23.1789 152.265 19.4431L142.712 22.3999ZM144.012 30.8999H134.012C134.012 31.5496 133.971 32.1405 133.899 32.6783L143.812 33.9999L153.724 35.3215C153.919 33.8593 154.012 32.3835 154.012 30.8999H144.012ZM143.812 33.9999H133.812C133.812 39.7175 133.497 46.4633 132.846 54.2694L142.812 55.0999L152.777 55.9304C153.46 47.7365 153.812 40.4156 153.812 33.9999H143.812ZM142.812 55.0999L147.07 64.1481L148.77 63.3481L144.512 54.2999L140.254 45.2517L138.554 46.0517L142.812 55.0999ZM144.512 54.2999L148.984 63.2442C149.175 63.1488 149.318 63.0854 149.418 63.0452C149.518 63.0048 149.559 62.9934 149.546 62.9973C149.533 63.001 149.448 63.0253 149.298 63.0493C149.148 63.0734 148.915 63.0999 148.612 63.0999V53.0999V43.0999C145.283 43.0999 142.308 44.2217 140.04 45.3556L144.512 54.2999ZM148.612 53.0999V63.0999C148.424 63.0999 148.153 63.0725 147.838 62.9782L150.712 53.3999L153.585 43.8216C151.938 43.3273 150.266 43.0999 148.612 43.0999V53.0999ZM150.712 53.3999L147.108 62.7279C147.203 62.7648 147.196 62.7729 147.125 62.725C147.05 62.6745 146.945 62.5891 146.838 62.4685C146.731 62.3481 146.662 62.2379 146.626 62.1676C146.591 62.1014 146.605 62.1083 146.636 62.2241L156.312 59.6999L165.988 57.1757C164.383 51.0255 160.277 46.3753 154.316 44.0719L150.712 53.3999ZM156.312 59.6999L146.448 61.3439C146.492 61.6081 146.512 61.8583 146.512 62.0999H156.512H166.512C166.512 60.7415 166.398 59.3917 166.176 58.0559L156.312 59.6999ZM156.512 62.0999H146.512C146.512 62.3642 146.466 62.6624 146.185 63.1427L154.812 68.1999L163.439 73.2571C165.424 69.8707 166.512 66.1023 166.512 62.0999H156.512ZM154.812 68.1999L146.357 62.86C145.637 63.9998 144.752 64.8396 143.599 65.4901L148.512 74.1999L153.425 82.9097C157.472 80.6269 160.786 77.4667 163.267 73.5398L154.812 68.1999ZM148.512 74.1999L143.341 65.6407C141.668 66.651 140.018 67.0999 138.212 67.0999V77.0999V87.0999C143.739 87.0999 148.955 85.6155 153.683 82.7591L148.512 74.1999ZM172.123 80.3999L171.624 90.3874L171.874 90.3999H172.123V80.3999ZM164.723 77.8999L158.633 85.8314L158.871 86.0144L159.12 86.1827L164.723 77.8999ZM158.323 63.3999L148.339 63.9546L148.345 64.0683L148.354 64.1818L158.323 63.3999ZM158.723 51.1999L168.657 52.3549L168.723 51.7793V51.1999H158.723ZM158.723 50.8999L148.733 50.4526L148.723 50.6761V50.8999H158.723ZM160.723 37.6999L151.051 35.1628L151.049 35.1696L160.723 37.6999ZM166.523 26.9999L159.381 20.0006L159.258 20.1268L159.139 20.2572L166.523 26.9999ZM178.323 21.0999L177.769 11.1153L177.398 11.1359L177.03 11.1839L178.323 21.0999ZM180.123 20.9999V10.9999H179.846L179.569 11.0153L180.123 20.9999ZM186.123 22.2999L190.596 13.3556L190.407 13.2612L190.214 13.1748L186.123 22.2999ZM190.823 28.2999L200.789 27.4694L200.734 26.806L200.591 26.1558L190.823 28.2999ZM190.923 29.4999H200.923V29.084L200.889 28.6694L190.923 29.4999ZM189.723 33.5999L181.041 28.6385L180.95 28.7976L180.865 28.9598L189.723 33.5999ZM186.423 37.1999L191.485 45.8241L191.777 45.6528L192.057 45.4622L186.423 37.1999ZM176.423 40.0999L176.053 30.1068L175.01 30.1454L173.998 30.3985L176.423 40.0999ZM176.023 40.1999V50.1999H177.255L178.449 49.9013L176.023 40.1999ZM169.923 43.3999L160.379 40.4172L160.173 41.0755L160.059 41.7559L169.923 43.3999ZM169.823 43.9999L159.96 42.3559L159.823 43.1723V43.9999H169.823ZM170.823 46.1999L164.134 53.6328L164.35 53.8271L164.576 54.0086L170.823 46.1999ZM175.423 46.5999L172.483 37.0421L172.371 37.0763L172.261 37.1131L175.423 46.5999ZM177.923 46.1999L178.829 36.241L178.377 36.1999H177.923V46.1999ZM180.023 46.7999L185.094 38.1806L184.8 38.0079L184.496 37.8556L180.023 46.7999ZM180.123 52.7999L186.947 60.1104L186.955 60.1029L186.963 60.0953L180.123 52.7999ZM176.323 54.8999L173.412 45.3332L173.128 45.4195L172.85 45.5224L176.323 54.8999ZM171.123 61.4999L161.637 64.6622L161.924 65.5235L162.361 66.3191L171.123 61.4999ZM176.123 63.1999L179.635 72.5632L179.766 72.5138L179.896 72.4608L176.123 63.1999ZM180.423 59.4999L172.423 53.4999L172.148 53.8675L171.907 54.2589L180.423 59.4999ZM181.023 58.6999L189.023 64.6999L189.291 64.3429L189.526 63.9634L181.023 58.6999ZM184.123 54.9999L178.311 46.8626L177.878 47.1721L177.48 47.5258L184.123 54.9999ZM193.423 54.8999L199.305 46.8125L199.232 46.7594L199.158 46.7076L193.423 54.8999ZM196.323 63.6999L205.608 67.4138L205.717 67.141L205.81 66.8622L196.323 63.6999ZM192.723 68.9999L185.804 61.78L185.52 62.0524L185.258 62.3462L192.723 68.9999ZM183.423 76.9999L177.951 68.6302L177.914 68.6546L177.876 68.6794L183.423 76.9999ZM172.123 80.3999L172.623 70.4124C171.828 70.3727 171.119 70.1534 170.327 69.6171L164.723 77.8999L159.12 86.1827C162.861 88.7131 167.085 90.1605 171.624 90.3874L172.123 80.3999ZM164.723 77.8999L170.814 69.9684C170.184 69.4847 168.706 67.8851 168.293 62.618L158.323 63.3999L148.354 64.1818C149.008 72.5147 151.796 80.5818 158.633 85.8314L164.723 77.8999ZM158.323 63.3999L168.308 62.8452C168.252 61.8395 168.223 60.7914 168.223 59.6999H158.223H148.223C148.223 61.1417 148.261 62.5603 148.339 63.9546L158.323 63.3999ZM158.223 59.6999H168.223C168.223 57.2975 168.366 54.8499 168.657 52.3549L158.723 51.1999L148.79 50.0449C148.414 53.2832 148.223 56.5023 148.223 59.6999H158.223ZM158.723 51.1999H168.723V50.8999H158.723H148.723V51.1999H158.723ZM158.723 50.8999L168.713 51.3472C168.882 47.5853 169.443 43.8835 170.398 40.2302L160.723 37.6999L151.049 35.1696C149.738 40.183 148.965 45.2812 148.733 50.4526L158.723 50.8999ZM160.723 37.6999L170.396 40.237C171.057 37.7165 172.214 35.598 173.908 33.7426L166.523 26.9999L159.139 20.2572C155.233 24.5352 152.523 29.55 151.051 35.1628L160.723 37.6999ZM166.523 26.9999L173.666 33.9992C175.375 32.2552 177.253 31.3243 179.617 31.0159L178.323 21.0999L177.03 11.1839C170.194 12.0755 164.205 15.078 159.381 20.0006L166.523 26.9999ZM178.323 21.0999L178.878 31.0845L180.678 30.9845L180.123 20.9999L179.569 11.0153L177.769 11.1153L178.323 21.0999ZM180.123 20.9999V30.9999C180.744 30.9999 181.353 31.1202 182.033 31.425L186.123 22.2999L190.214 13.1748C187.027 11.7463 183.636 10.9999 180.123 10.9999V20.9999ZM186.123 22.2999L181.651 31.2442C181.71 31.2737 181.686 31.2682 181.611 31.2085C181.533 31.1466 181.43 31.0493 181.326 30.9165C181.222 30.7835 181.147 30.654 181.1 30.5495C181.053 30.448 181.047 30.4037 181.056 30.444L190.823 28.2999L200.591 26.1558C199.334 20.431 195.792 15.954 190.596 13.3556L186.123 22.2999ZM190.823 28.2999L180.858 29.1304L180.958 30.3304L190.923 29.4999L200.889 28.6694L200.789 27.4694L190.823 28.2999ZM190.923 29.4999H180.923C180.923 29.1534 180.977 28.8831 181.026 28.7159C181.073 28.5572 181.103 28.5299 181.041 28.6385L189.723 33.5999L198.406 38.5613C199.889 35.9659 200.923 32.9041 200.923 29.4999H190.923ZM189.723 33.5999L180.865 28.9598C180.887 28.9184 180.91 28.8811 180.932 28.8497C180.954 28.8184 180.971 28.7994 180.977 28.7927C180.983 28.7861 180.975 28.7958 180.947 28.8198C180.918 28.8441 180.868 28.8843 180.79 28.9376L186.423 37.1999L192.057 45.4622C194.71 43.6532 196.997 41.2651 198.582 38.24L189.723 33.5999ZM186.423 37.1999L181.361 28.5757C179.741 29.527 178.023 30.0338 176.053 30.1068L176.423 40.0999L176.794 50.093C182.024 49.8993 186.973 48.4728 191.485 45.8241L186.423 37.1999ZM176.423 40.0999L173.998 30.3985L173.598 30.4985L176.023 40.1999L178.449 49.9013L178.849 49.8013L176.423 40.0999ZM176.023 40.1999V30.1999C173.423 30.1999 170.276 30.5845 167.303 32.1444C164.011 33.8712 161.526 36.7448 160.379 40.4172L169.923 43.3999L179.468 46.3826C179.265 47.0326 178.9 47.7639 178.323 48.4486C177.749 49.1289 177.12 49.5796 176.594 49.8554C175.654 50.3486 175.223 50.1999 176.023 50.1999V40.1999ZM169.923 43.3999L160.059 41.7559L159.96 42.3559L169.823 43.9999L179.687 45.6439L179.787 45.0439L169.923 43.3999ZM169.823 43.9999H159.823C159.823 47.8119 161.444 51.2116 164.134 53.6328L170.823 46.1999L177.513 38.767C178.086 39.2827 178.713 40.0407 179.177 41.0619C179.645 42.0913 179.823 43.1157 179.823 43.9999H169.823ZM170.823 46.1999L164.576 54.0086C166.511 55.5564 169.314 56.9999 172.823 56.9999V46.9999V36.9999C174.999 36.9999 176.469 37.9101 177.07 38.3912L170.823 46.1999ZM172.823 46.9999V56.9999C174.718 56.9999 176.663 56.7275 178.586 56.0867L175.423 46.5999L172.261 37.1131C172.584 37.0056 172.796 36.9999 172.823 36.9999V46.9999ZM175.423 46.5999L178.364 56.1577C178.403 56.1457 178.243 56.1999 177.923 56.1999V46.1999V36.1999C176.004 36.1999 174.177 36.5207 172.483 37.0421L175.423 46.5999ZM177.923 46.1999L177.018 56.1588C176.494 56.1112 175.986 55.9615 175.551 55.7442L180.023 46.7999L184.496 37.8556C182.728 36.9716 180.819 36.4219 178.829 36.241L177.923 46.1999ZM180.023 46.7999L174.953 55.4192C174.462 55.1305 173.582 54.488 172.836 53.303C172.048 52.0515 171.723 50.6895 171.723 49.4999H181.723H191.723C191.723 44.1962 188.7 40.3017 185.094 38.1806L180.023 46.7999ZM181.723 49.4999H171.723C171.723 48.5596 171.945 47.6457 172.325 46.8622C172.686 46.1181 173.095 45.6816 173.284 45.5045L180.123 52.7999L186.963 60.0953C189.572 57.6492 191.723 54.0528 191.723 49.4999H181.723ZM180.123 52.7999L173.3 45.4894C173.434 45.3642 173.543 45.2968 173.587 45.2725C173.626 45.2507 173.581 45.2818 173.412 45.3332L176.323 54.8999L179.235 64.4666C181.978 63.6319 184.656 62.2486 186.947 60.1104L180.123 52.7999ZM176.323 54.8999L172.85 45.5224C168.186 47.2499 160.923 51.4933 160.923 60.3999H170.923H180.923C180.923 61.1412 180.772 61.9425 180.441 62.7094C180.117 63.4585 179.709 63.9755 179.409 64.2808C178.896 64.8033 178.754 64.6635 179.797 64.2774L176.323 54.8999ZM170.923 60.3999H160.923C160.923 62.0494 161.249 63.4999 161.637 64.6622L171.123 61.4999L180.61 58.3376C180.731 58.6999 180.923 59.4171 180.923 60.3999H170.923ZM171.123 61.4999L162.361 66.3191C163.456 68.3099 165.107 70.2389 167.453 71.6192C169.796 72.9973 172.273 73.4999 174.523 73.4999V63.4999V53.4999C175.24 53.4999 176.384 53.6692 177.594 54.3806C178.807 55.0942 179.524 56.0233 179.886 56.6807L171.123 61.4999ZM174.523 63.4999V73.4999C176.335 73.4999 178.055 73.1554 179.635 72.5632L176.123 63.1999L172.612 53.8366C173.125 53.6444 173.778 53.4999 174.523 53.4999V63.4999ZM176.123 63.1999L179.896 72.4608C183.761 70.8862 186.815 68.1932 188.94 64.7409L180.423 59.4999L171.907 54.2589C171.873 54.3147 171.904 54.2498 172.026 54.1448C172.152 54.0366 172.277 53.9687 172.35 53.939L176.123 63.1999ZM180.423 59.4999L188.423 65.4999L189.023 64.6999L181.023 58.6999L173.023 52.6999L172.423 53.4999L180.423 59.4999ZM181.023 58.6999L189.526 63.9634C189.896 63.3652 190.309 62.8813 190.767 62.474L184.123 54.9999L177.48 47.5258C175.538 49.2518 173.884 51.2346 172.521 53.4364L181.023 58.6999ZM184.123 54.9999L189.936 63.1372C189.862 63.1898 189.688 63.2959 189.424 63.3822C189.156 63.4695 188.907 63.4999 188.723 63.4999V53.4999V43.4999C184.902 43.4999 181.349 44.6929 178.311 46.8626L184.123 54.9999ZM188.723 53.4999V63.4999C188.754 63.4999 188.625 63.5027 188.394 63.4338C188.153 63.3621 187.905 63.2437 187.689 63.0922L193.423 54.8999L199.158 46.7076C195.967 44.4737 192.348 43.4999 188.723 43.4999V53.4999ZM193.423 54.8999L187.542 62.9873C187.549 62.9929 187.266 62.7778 187.01 62.2828C186.752 61.7808 186.723 61.3814 186.723 61.2999H196.723H206.723C206.723 55.3584 204.031 50.2495 199.305 46.8125L193.423 54.8999ZM196.723 61.2999H186.723C186.723 60.9681 186.782 60.7018 186.837 60.5376L196.323 63.6999L205.81 66.8622C206.398 65.098 206.723 63.2317 206.723 61.2999H196.723ZM196.323 63.6999L187.039 59.986C186.784 60.6234 186.405 61.2041 185.804 61.78L192.723 68.9999L199.642 76.2198C202.242 73.729 204.263 70.7764 205.608 67.4138L196.323 63.6999ZM192.723 68.9999L185.258 62.3462C183.116 64.7502 180.687 66.8413 177.951 68.6302L183.423 76.9999L188.896 85.3696C193.093 82.6252 196.865 79.383 200.189 75.6536L192.723 68.9999ZM183.423 76.9999L177.876 68.6794C176.139 69.8376 174.307 70.3999 172.123 70.3999V80.3999V90.3999C178.207 90.3999 183.908 88.6955 188.97 85.3204L183.423 76.9999ZM230.453 72.4999L224.17 80.2793L224.711 80.7167L225.308 81.0748L230.453 72.4999ZM226.753 66.8999L236.293 63.9016L236.168 63.5036L236.01 63.1174L226.753 66.8999ZM220.553 47.8999L230.26 45.4981L230.243 45.4264L230.224 45.355L220.553 47.8999ZM220.053 45.9999L229.724 43.455L210.142 44.6716L220.053 45.9999ZM214.853 64.5999L205.694 60.5863L205.662 60.6592L205.631 60.7326L214.853 64.5999ZM211.353 69.8999L218.231 77.1594L218.329 77.0665L218.424 76.971L211.353 69.8999ZM205.753 71.4999L202.662 81.0102L202.833 81.0658L203.006 81.1151L205.753 71.4999ZM200.653 63.2999L210.528 61.7256L210.518 61.6611L210.507 61.5968L200.653 63.2999ZM201.753 25.4999L211.496 27.7551L211.753 26.6422V25.4999H201.753ZM201.753 25.1999L191.914 23.411L191.753 24.2982V25.1999H201.753ZM203.453 18.5999L194.055 15.1825L194.009 15.3094L193.966 15.4376L203.453 18.5999ZM207.353 13.1999L201.642 4.99084L201.424 5.1429L201.214 5.30638L207.353 13.1999ZM215.553 12.3999L220.893 3.94501L220.279 3.55694L219.615 3.26179L215.553 12.3999ZM220.653 19.4999L230.387 17.2095L230.343 17.0208L230.291 16.834L220.653 19.4999ZM221.453 26.3999L231.449 26.7028L231.453 26.5514V26.3999H221.453ZM221.353 29.6999L211.358 29.397L210.424 60.1977L229.266 35.8144L221.353 29.6999ZM223.053 27.4999L215.244 21.2529L215.192 21.3187L215.14 21.3854L223.053 27.4999ZM229.653 19.8999L236.923 26.7661L237.252 26.4177L237.547 26.0393L229.653 19.8999ZM234.753 16.1999L233.986 6.22935L232.759 6.32377L231.591 6.71307L234.753 16.1999ZM236.053 16.0999V6.0999H235.669L235.286 6.12936L236.053 16.0999ZM241.053 18.6999L232.979 24.6001L233.108 24.7764L233.244 24.9468L241.053 18.6999ZM243.053 24.2999L253.028 25.0124L253.053 24.6566V24.2999H243.053ZM242.953 25.6999L252.824 27.3006L252.896 26.8588L252.928 26.4124L242.953 25.6999ZM240.253 32.4999L231.974 26.8914L231.964 26.9056L231.955 26.9199L240.253 32.4999ZM229.953 41.3999L225.594 32.4001L209.112 40.3833L224.739 49.9327L229.953 41.3999ZM233.353 43.8999L240.004 36.4322L239.971 36.403L239.938 36.3741L233.353 43.8999ZM241.653 58.0999L231.894 60.2814L231.945 60.5075L232.005 60.7311L241.653 58.0999ZM237.653 72.2999L243.086 80.6956L243.226 80.6046L243.364 80.509L237.653 72.2999ZM234.053 73.3999V63.3999H233.653V73.3999V83.3999H234.053V73.3999ZM233.653 73.3999V63.3999C233.981 63.3999 234.343 63.4449 234.711 63.5484C235.077 63.6513 235.376 63.7917 235.598 63.925L230.453 72.4999L225.308 81.0748C227.815 82.5789 230.653 83.3999 233.653 83.3999V73.3999ZM230.453 72.4999L236.736 64.7205C236.685 64.6789 236.496 64.5466 236.293 63.9016L226.753 66.8999L217.213 69.8982C218.477 73.9199 220.755 77.5209 224.17 80.2793L230.453 72.4999ZM226.753 66.8999L236.01 63.1174C233.659 57.3637 231.743 51.4917 230.26 45.4981L220.553 47.8999L210.846 50.3017C212.563 57.2414 214.78 64.0361 217.496 70.6824L226.753 66.8999ZM220.553 47.8999L230.224 45.355L229.724 43.455L220.053 45.9999L210.382 48.5448L210.882 50.4448L220.553 47.8999ZM220.053 45.9999L210.142 44.6716C209.398 50.2191 207.916 55.5147 205.694 60.5863L214.853 64.5999L224.012 68.6135C226.99 61.8184 228.975 54.714 229.965 47.3282L220.053 45.9999ZM214.853 64.5999L205.631 60.7326C205.226 61.699 204.759 62.352 204.282 62.8288L211.353 69.8999L218.424 76.971C220.881 74.5145 222.747 71.6342 224.075 68.4672L214.853 64.5999ZM211.353 69.8999L204.476 62.6404C204.577 62.5446 204.882 62.2863 205.414 62.0585C205.967 61.8213 206.575 61.6999 207.153 61.6999V71.6999V81.6999C211.602 81.6999 215.383 79.8573 218.231 77.1594L211.353 69.8999ZM207.153 71.6999V61.6999C207.652 61.6999 208.109 61.773 208.5 61.8847L205.753 71.4999L203.006 81.1151C204.33 81.4935 205.721 81.6999 207.153 81.6999V71.6999ZM205.753 71.4999L208.844 61.9896C209.381 62.1642 209.883 62.4435 210.296 62.784C210.694 63.1122 210.899 63.405 210.97 63.5185C211.034 63.6214 210.979 63.5634 210.876 63.2506C210.772 62.9395 210.643 62.4459 210.528 61.7256L200.653 63.2999L190.778 64.8742C191.687 70.5761 194.464 78.3458 202.662 81.0102L205.753 71.4999ZM200.653 63.2999L210.507 61.5968C209.669 56.7509 209.253 51.9206 209.253 47.0999H199.253H189.253C189.253 53.0792 189.77 59.0489 190.799 65.003L200.653 63.2999ZM199.253 47.0999H209.253C209.253 40.6788 209.995 34.2352 211.496 27.7551L201.753 25.4999L192.011 23.2447C190.177 31.1646 189.253 39.121 189.253 47.0999H199.253ZM201.753 25.4999H211.753V25.1999H201.753H191.753V25.4999H201.753ZM201.753 25.1999L211.592 26.9888C211.904 25.2712 212.351 23.5298 212.94 21.7622L203.453 18.5999L193.966 15.4376C193.089 18.07 192.402 20.7286 191.914 23.411L201.753 25.1999ZM203.453 18.5999L212.851 22.0173C213.026 21.5367 213.219 21.3058 213.493 21.0934L207.353 13.1999L201.214 5.30638C197.887 7.89396 195.48 11.2631 194.055 15.1825L203.453 18.5999ZM207.353 13.1999L213.064 21.409C213.161 21.3415 213.107 21.3963 212.901 21.4664C212.682 21.5407 212.387 21.5999 212.053 21.5999V11.5999V1.5999C208.086 1.5999 204.563 2.95892 201.642 4.99084L207.353 13.1999ZM212.053 11.5999V21.5999C211.829 21.5999 211.657 21.5729 211.55 21.5485C211.446 21.5248 211.425 21.5085 211.492 21.538L215.553 12.3999L219.615 3.26179C217.337 2.24971 214.79 1.5999 212.053 1.5999V11.5999ZM215.553 12.3999L210.213 20.8548C210.457 21.0089 210.75 21.208 211.015 22.1658L220.653 19.4999L230.291 16.834C228.823 11.5252 225.716 6.99088 220.893 3.94501L215.553 12.3999ZM220.653 19.4999L210.919 21.7903C211.275 23.3047 211.453 24.8361 211.453 26.3999H221.453H231.453C231.453 23.297 231.098 20.2284 230.387 17.2095L220.653 19.4999ZM221.453 26.3999L211.458 26.097L211.358 29.397L221.353 29.6999L231.349 30.0028L231.449 26.7028L221.453 26.3999ZM221.353 29.6999L229.266 35.8144L230.966 33.6144L223.053 27.4999L215.14 21.3854L213.44 23.5854L221.353 29.6999ZM223.053 27.4999L230.862 33.7469C232.83 31.2866 234.851 28.9605 236.923 26.7661L229.653 19.8999L222.383 13.0337C219.922 15.6393 217.543 18.3799 215.244 21.2529L223.053 27.4999ZM229.653 19.8999L237.547 26.0393C237.718 25.8195 237.825 25.7374 237.85 25.7191C237.87 25.7047 237.881 25.6982 237.915 25.6867L234.753 16.1999L231.591 6.71307C227.564 8.05534 224.268 10.5353 221.76 13.7605L229.653 19.8999ZM234.753 16.1999L235.52 26.1704L236.82 26.0704L236.053 16.0999L235.286 6.12936L233.986 6.22935L234.753 16.1999ZM236.053 16.0999V26.0999C235.644 26.0999 234.97 26.0018 234.24 25.6221C233.523 25.2492 233.125 24.7991 232.979 24.6001L241.053 18.6999L249.127 12.7997C246.063 8.6075 241.454 6.0999 236.053 6.0999V16.0999ZM241.053 18.6999L233.244 24.9468C233.272 24.9813 233.203 24.901 233.136 24.7133C233.067 24.5216 233.053 24.3633 233.053 24.2999H243.053H253.053C253.053 19.8833 251.563 15.8299 248.862 12.4529L241.053 18.6999ZM243.053 24.2999L233.079 23.5874L232.979 24.9874L242.953 25.6999L252.928 26.4124L253.028 25.0124L243.053 24.2999ZM242.953 25.6999L233.082 24.0992C232.915 25.1317 232.557 26.0303 231.974 26.8914L240.253 32.4999L248.532 38.1084C250.749 34.8361 252.192 31.2015 252.824 27.3006L242.953 25.6999ZM240.253 32.4999L231.955 26.9199C230.36 29.2915 228.297 31.0906 225.594 32.4001L229.953 41.3999L234.312 50.3997C240.142 47.5758 244.946 43.4416 248.552 38.0799L240.253 32.4999ZM229.953 41.3999L224.739 49.9327C225.45 50.3676 226.125 50.8634 226.768 51.4257L233.353 43.8999L239.938 36.3741C238.447 35.0697 236.856 33.8989 235.168 32.8671L229.953 41.3999ZM233.353 43.8999L226.702 51.3676C229.378 53.7504 231.076 56.6231 231.894 60.2814L241.653 58.0999L251.412 55.9184C249.697 48.2434 245.862 41.6494 240.004 36.4322L233.353 43.8999ZM241.653 58.0999L232.005 60.7311C232.192 61.4133 232.253 61.9614 232.253 62.3999H242.253H252.253C252.253 60.0384 251.915 57.7199 251.301 55.4687L241.653 58.0999ZM242.253 62.3999H232.253C232.253 63.5014 232.064 63.9463 232.034 64.0111C232.019 64.0442 232.019 64.0373 232.034 64.0196C232.047 64.0032 232.031 64.0294 231.942 64.0909L237.653 72.2999L243.364 80.509C249.666 76.1245 252.253 69.4091 252.253 62.3999H242.253ZM237.653 72.2999L232.221 63.9042C232.374 63.8051 232.63 63.6688 232.981 63.5614C233.337 63.4526 233.706 63.3999 234.053 63.3999V73.3999V83.3999C237.376 83.3999 240.445 82.404 243.086 80.6956L237.653 72.2999ZM253.654 78.6999L251.693 88.5057L251.877 88.5425L252.062 88.5723L253.654 78.6999ZM247.854 75.6999L241.256 83.2143L241.301 83.2537L241.346 83.2925L247.854 75.6999ZM245.054 61.0999L236.257 56.3447L236.181 56.4851L236.11 56.6278L245.054 61.0999ZM250.054 57.3999L250.678 47.4194L250.366 47.3999H250.054V57.3999ZM252.954 58.4999L259.051 50.5737L259.051 50.5737L252.954 58.4999ZM255.454 60.6999L248.383 67.771L248.383 67.771L255.454 60.6999ZM255.554 60.7999L262.964 54.0847L262.799 53.9026L262.625 53.7288L255.554 60.7999ZM262.454 65.4999L258.943 74.8632L259.376 75.0257L259.823 75.1475L262.454 65.4999ZM267.154 65.4999L269.115 75.3057L269.348 75.259L269.579 75.2013L267.154 65.4999ZM269.954 63.4999L262.01 57.4254L261.982 57.4625L261.954 57.4999L269.954 63.4999ZM271.054 58.1999L261.079 58.9124L261.104 59.2646L261.154 59.6141L271.054 58.1999ZM269.554 54.8999L277.604 48.9679L277.323 48.5857L277.006 48.232L269.554 54.8999ZM260.854 49.2999L257.182 58.6015L257.408 58.6906L257.638 58.7687L260.854 49.2999ZM253.954 45.4999L247.353 53.0116L247.663 53.2845L247.995 53.5309L253.954 45.4999ZM249.454 38.3999L239.806 41.0311L239.822 41.0892L239.839 41.1471L249.454 38.3999ZM249.454 29.8999L240 26.64L239.913 26.8942L239.839 27.1527L249.454 29.8999ZM261.254 18.0999L258.432 8.50624L258.18 8.58054L257.931 8.66802L261.254 18.0999ZM277.954 19.3999L273.705 28.4523L273.811 28.5019L273.918 28.5491L277.954 19.3999ZM283.654 23.6999L291.463 17.453L291.422 17.4025L291.381 17.3525L283.654 23.6999ZM284.054 33.6999L291.336 40.5536L291.433 40.4499L291.528 40.3435L284.054 33.6999ZM275.254 34.1999L279.581 25.1847L279.389 25.0924L279.193 25.0085L275.254 34.1999ZM273.854 33.5999L277.793 24.4085L277.681 24.3604L277.568 24.3151L273.854 33.5999ZM266.954 34.0999L260.494 26.466L259.632 27.1959L258.954 28.0999L266.954 34.0999ZM266.854 37.9999L257.436 41.3633L257.587 41.7844L257.774 42.1905L266.854 37.9999ZM268.454 40.3999L261.055 47.1266L261.215 47.3027L261.383 47.471L268.454 40.3999ZM274.254 44.3999L279.215 35.7175L278.813 35.4878L278.392 35.2962L274.254 44.3999ZM274.954 44.7999L269.993 53.4823L270.544 53.7973L271.13 54.0401L274.954 44.7999ZM280.354 47.8999L287.198 40.6092L286.819 40.2531L286.405 39.9383L280.354 47.8999ZM284.954 61.8999L294.704 64.1214L294.747 63.9329L294.783 63.7428L284.954 61.8999ZM276.354 74.3999L281.694 82.8548L281.827 82.7708L281.957 82.6827L276.354 74.3999ZM259.054 79.1999V69.1999C258.207 69.1999 256.962 69.1043 255.246 68.8275L253.654 78.6999L252.062 88.5723C254.479 88.9622 256.835 89.1999 259.054 89.1999V79.1999ZM253.654 78.6999L255.615 68.8941C255.609 68.8928 255.194 68.8206 254.362 68.1073L247.854 75.6999L241.346 83.2925C244.247 85.7792 247.699 87.707 251.693 88.5057L253.654 78.6999ZM247.854 75.6999L254.452 68.1855C253.945 67.7406 253.754 67.4424 253.754 66.4999H243.754H233.754C233.754 73.0241 236.296 78.8592 241.256 83.2143L247.854 75.6999ZM243.754 66.4999H253.754C253.754 66.2457 253.798 65.9715 253.998 65.572L245.054 61.0999L236.11 56.6278C234.576 59.695 233.754 63.0208 233.754 66.4999H243.754ZM245.054 61.0999L253.851 65.8551C254.053 65.4812 253.936 65.8571 253.252 66.3633C252.89 66.6314 252.405 66.9075 251.805 67.1093C251.201 67.3124 250.601 67.3999 250.054 67.3999V57.3999V47.3999C242.968 47.3999 238.543 52.1158 236.257 56.3447L245.054 61.0999ZM250.054 57.3999L249.43 67.3804C248.997 67.3534 248.518 67.2589 248.032 67.0749C247.549 66.8916 247.155 66.6552 246.857 66.4261L252.954 58.4999L259.051 50.5737C256.644 48.7221 253.781 47.6133 250.678 47.4194L250.054 57.3999ZM252.954 58.4999L246.857 66.4261C247.369 66.8202 247.878 67.2662 248.383 67.771L255.454 60.6999L262.525 53.6288C261.43 52.5336 260.272 51.513 259.051 50.5737L252.954 58.4999ZM255.454 60.6999L248.383 67.771L248.483 67.871L255.554 60.7999L262.625 53.7288L262.525 53.6288L255.454 60.6999ZM255.554 60.7999L248.144 67.5151C251.135 70.8157 254.767 73.2974 258.943 74.8632L262.454 65.4999L265.965 56.1366C264.807 55.7024 263.839 55.0507 262.964 54.0847L255.554 60.7999ZM262.454 65.4999L259.823 75.1475C261.457 75.5934 263.112 75.7999 264.754 75.7999V65.7999V55.7999C264.796 55.7999 264.917 55.8064 265.085 55.8523L262.454 65.4999ZM264.754 65.7999V75.7999C266.312 75.7999 267.85 75.5587 269.115 75.3057L267.154 65.4999L265.193 55.6941C264.872 55.7582 264.669 55.789 264.564 55.8021C264.514 55.8083 264.504 55.8083 264.529 55.8066C264.552 55.8049 264.63 55.7999 264.754 55.7999V65.7999ZM267.154 65.4999L269.579 75.2013C273.32 74.2662 276.079 71.9993 277.954 69.4999L269.954 63.4999L261.954 57.4999C262.072 57.343 262.351 57.013 262.842 56.6626C263.351 56.2987 263.992 55.9825 264.729 55.7985L267.154 65.4999ZM269.954 63.4999L277.897 69.5744C279.837 67.0376 281.254 63.789 281.254 59.9999H271.254H261.254C261.254 59.3674 261.373 58.782 261.555 58.293C261.73 57.8213 261.927 57.5341 262.01 57.4254L269.954 63.4999ZM271.254 59.9999H281.254C281.254 58.8777 281.058 57.5154 280.953 56.7857L271.054 58.1999L261.154 59.6141C261.214 60.0279 261.248 60.2981 261.265 60.4542C261.274 60.5315 261.274 60.5424 261.271 60.5044C261.269 60.4835 261.266 60.4331 261.262 60.3599C261.259 60.2912 261.254 60.1653 261.254 59.9999H271.254ZM271.054 58.1999L281.029 57.4874C280.764 53.7801 278.979 50.8332 277.604 48.9679L269.554 54.8999L261.503 60.8319C261.674 61.0633 261.634 61.0524 261.525 60.8129C261.42 60.5812 261.151 59.919 261.079 58.9124L271.054 58.1999ZM269.554 54.8999L277.006 48.232C273.482 44.2933 269.069 41.5291 264.07 39.8311L260.854 49.2999L257.638 58.7687C259.705 59.4707 261.092 60.4399 262.102 61.5678L269.554 54.8999ZM260.854 49.2999L264.526 39.9983C262.759 39.3012 261.236 38.4509 259.912 37.4689L253.954 45.4999L247.995 53.5309C250.805 55.6156 253.882 57.2986 257.182 58.6015L260.854 49.2999ZM253.954 45.4999L260.555 37.9883C259.787 37.3134 259.339 36.5971 259.069 35.6527L249.454 38.3999L239.839 41.1471C241.169 45.8027 243.721 49.8197 247.353 53.0116L253.954 45.4999ZM249.454 38.3999L259.102 35.7687C258.915 35.0865 258.854 34.5384 258.854 34.0999H248.854H238.854C238.854 36.4614 239.192 38.7799 239.806 41.0311L249.454 38.3999ZM248.854 34.0999H258.854C258.854 33.6657 258.914 33.1896 259.069 32.6471L249.454 29.8999L239.839 27.1527C239.194 29.4102 238.854 31.7341 238.854 34.0999H248.854ZM249.454 29.8999L258.908 33.1598C259.897 30.2912 261.542 28.6008 264.577 27.5318L261.254 18.0999L257.931 8.66802C249.233 11.7323 243.011 17.9086 240 26.64L249.454 29.8999ZM261.254 18.0999L264.076 27.6936C265.493 27.2765 266.777 27.0999 267.954 27.0999V17.0999V7.0999C264.731 7.0999 261.548 7.58994 258.432 8.50624L261.254 18.0999ZM267.954 17.0999V27.0999C269.796 27.0999 271.684 27.5039 273.705 28.4523L277.954 19.3999L282.203 10.3475C277.69 8.22922 272.912 7.0999 267.954 7.0999V17.0999ZM277.954 19.3999L273.918 28.5491C274.789 28.9338 275.413 29.4223 275.927 30.0473L283.654 23.6999L291.381 17.3525C288.828 14.2442 285.652 11.8661 281.99 10.2507L277.954 19.3999ZM283.654 23.6999L275.845 29.9468C275.895 30.0096 275.828 29.9408 275.756 29.7423C275.681 29.5359 275.654 29.3355 275.654 29.1999H285.654H295.654C295.654 24.7707 294.112 20.7649 291.463 17.453L283.654 23.6999ZM285.654 29.1999H275.654C275.654 29.1059 275.67 28.781 275.832 28.3248C276 27.8512 276.265 27.4101 276.58 27.0563L284.054 33.6999L291.528 40.3435C294.422 37.0882 295.654 33.1306 295.654 29.1999H285.654ZM284.054 33.6999L276.772 26.8463C277.034 26.5677 277.509 26.1647 278.22 25.8467C278.944 25.5229 279.662 25.3999 280.254 25.3999V35.3999V45.3999C284.661 45.3999 288.509 43.5572 291.336 40.5536L284.054 33.6999ZM280.254 35.3999V25.3999C280.242 25.3999 280.046 25.408 279.581 25.1847L275.254 34.1999L270.927 43.2151C273.795 44.5918 276.932 45.3999 280.254 45.3999V35.3999ZM275.254 34.1999L279.193 25.0085L277.793 24.4085L273.854 33.5999L269.915 42.7913L271.315 43.3913L275.254 34.1999ZM273.854 33.5999L277.568 24.3151C275 23.2878 272.363 22.9999 270.054 22.9999V32.9999V42.9999C270.221 42.9999 270.349 43.0054 270.441 43.012C270.534 43.0186 270.583 43.0258 270.594 43.0275C270.605 43.0293 270.57 43.0243 270.495 43.0045C270.42 42.9846 270.298 42.948 270.14 42.8847L273.854 33.5999ZM270.054 32.9999V22.9999C266.635 22.9999 263.275 24.1131 260.494 26.466L266.954 34.0999L273.413 41.7338C272.958 42.119 272.385 42.4644 271.723 42.6992C271.069 42.9312 270.486 42.9999 270.054 42.9999V32.9999ZM266.954 34.0999L258.954 28.0999C257.256 30.3642 256.354 33.0695 256.354 35.8999H266.354H276.354C276.354 37.3969 275.852 38.9023 274.954 40.0999L266.954 34.0999ZM266.354 35.8999H256.354C256.354 38.2031 257.052 40.2854 257.436 41.3633L266.854 37.9999L276.271 34.6365C276.185 34.3952 276.181 34.3504 276.207 34.4587C276.221 34.5192 276.254 34.6647 276.285 34.8794C276.314 35.0865 276.354 35.4395 276.354 35.8999H266.354ZM266.854 37.9999L257.774 42.1905C258.618 44.0184 259.728 45.6677 261.055 47.1266L268.454 40.3999L275.853 33.6732C275.846 33.6649 275.856 33.6746 275.874 33.7029C275.893 33.7315 275.914 33.7681 275.934 33.8093L266.854 37.9999ZM268.454 40.3999L261.383 47.471C263.919 50.0071 266.852 52.0201 270.116 53.5036L274.254 44.3999L278.392 35.2962C277.255 34.7797 276.322 34.126 275.525 33.3288L268.454 40.3999ZM274.254 44.3999L269.293 53.0823L269.993 53.4823L274.954 44.7999L279.915 36.1175L279.215 35.7175L274.254 44.3999ZM274.954 44.7999L271.13 54.0401C272.269 54.5112 273.32 55.1147 274.303 55.8615L280.354 47.8999L286.405 39.9383C284.054 38.1517 281.505 36.6886 278.777 35.5597L274.954 44.7999ZM280.354 47.8999L273.51 55.1906C274.876 56.4736 275.254 57.5469 275.254 58.8999H285.254H295.254C295.254 51.7196 292.365 45.4595 287.198 40.6092L280.354 47.8999ZM285.254 58.8999H275.254C275.254 59.1248 275.229 59.5025 275.125 60.057L284.954 61.8999L294.783 63.7428C295.079 62.164 295.254 60.5416 295.254 58.8999H285.254ZM284.954 61.8999L275.204 59.6784C274.576 62.4356 273.214 64.4508 270.751 66.1171L276.354 74.3999L281.957 82.6827C288.56 78.2157 292.932 71.8976 294.704 64.1214L284.954 61.8999ZM276.354 74.3999L271.014 65.945C267.672 68.0556 263.786 69.1999 259.054 69.1999V79.1999V89.1999C267.255 89.1999 274.902 87.1442 281.694 82.8548L276.354 74.3999ZM294.832 77.9999L292.527 87.7307L293.664 87.9999H294.832V77.9999ZM289.532 73.3999L280.073 76.6431L280.162 76.9027L280.265 77.157L289.532 73.3999ZM288.332 65.1999H298.332V64.9727L298.322 64.7458L288.332 65.1999ZM289.832 25.0999L280.091 22.8386L280.031 23.0989L279.984 23.362L289.832 25.0999ZM295.832 16.8999L291.153 8.06202L291.072 8.10504L290.991 8.14956L295.832 16.8999ZM304.432 19.0999L313.098 14.1103L312.708 13.4318L312.216 12.8224L304.432 19.0999ZM306.532 26.3999L296.544 26.8993L296.563 27.271L296.609 27.6402L306.532 26.3999ZM304.032 68.3999L294.326 65.9912L294.29 66.1384L294.258 66.2866L304.032 68.3999ZM301.132 75.0999L308.967 81.3139L309.153 81.0795L309.324 80.8345L301.132 75.0999ZM295.332 77.9999V67.9999H294.832V77.9999V87.9999H295.332V77.9999ZM294.832 77.9999L297.137 68.2691C297.262 68.2987 297.693 68.4405 298.162 68.8477C298.377 69.0346 298.539 69.225 298.65 69.3864C298.704 69.4642 298.741 69.5283 298.766 69.5736C298.79 69.6186 298.8 69.6433 298.799 69.6429L289.532 73.3999L280.265 77.157C282.449 82.545 286.76 86.3647 292.527 87.7307L294.832 77.9999ZM289.532 73.3999L298.991 70.1567C298.631 69.1057 298.332 67.5138 298.332 65.1999H288.332H278.332C278.332 69.1526 278.833 73.0274 280.073 76.6431L289.532 73.3999ZM288.332 65.1999L298.322 64.7458C298.128 60.4946 298.032 56.2794 298.032 52.0999H288.032H278.032C278.032 56.5871 278.136 61.1052 278.342 65.654L288.332 65.1999ZM288.032 52.0999H298.032C298.032 41.1716 298.624 32.8228 299.68 26.8377L289.832 25.0999L279.984 23.362C278.64 30.977 278.032 40.6282 278.032 52.0999H288.032ZM289.832 25.0999L299.573 27.3612C299.85 26.1688 300.208 25.9073 300.673 25.6502L295.832 16.8999L290.991 8.14956C285.19 11.3591 281.548 16.5643 280.091 22.8386L289.832 25.0999ZM295.832 16.8999L300.511 25.7378C300.599 25.6913 300.059 25.9999 299.032 25.9999V15.9999V5.99989C296.005 5.99989 293.332 6.9085 291.153 8.06202L295.832 16.8999ZM299.032 15.9999V25.9999C298.124 25.9999 297.353 25.7344 296.853 25.4474C296.424 25.2009 296.385 25.0519 296.648 25.3774L304.432 19.0999L312.216 12.8224C309.402 9.33233 305.011 5.99989 299.032 5.99989V15.9999ZM304.432 19.0999L295.766 24.0895C296.202 24.8471 296.486 25.7286 296.544 26.8993L306.532 26.3999L316.52 25.9005C316.311 21.7379 315.195 17.7527 313.098 14.1103L304.432 19.0999ZM306.532 26.3999L296.609 27.6402C297.159 32.0378 297.432 36.3902 297.432 40.6999H307.432H317.432C317.432 35.5429 317.105 30.362 316.455 25.1596L306.532 26.3999ZM307.432 40.6999H297.432C297.432 49.2146 296.399 57.6393 294.326 65.9912L304.032 68.3999L313.738 70.8086C316.198 60.8939 317.432 50.8518 317.432 40.6999H307.432ZM304.032 68.3999L294.258 66.2866C293.996 67.4978 293.551 68.4921 292.94 69.3653L301.132 75.0999L309.324 80.8345C311.513 77.7077 313.001 74.2354 313.806 70.5132L304.032 68.3999ZM301.132 75.0999L293.297 68.886C293.31 68.8699 293.546 68.5874 294.06 68.3306C294.59 68.0655 295.072 67.9999 295.332 67.9999V77.9999V87.9999C300.915 87.9999 305.663 85.48 308.967 81.3139L301.132 75.0999ZM369.434 79.0999V89.0999H369.612L369.791 89.0935L369.434 79.0999ZM358.334 78.0999L356.122 87.8522L356.187 87.867L356.253 87.881L358.334 78.0999ZM344.734 69.9999L335.892 74.6711L336.121 75.1049L336.391 75.5142L344.734 69.9999ZM341.934 57.8999H351.934V57.5742L351.912 57.2491L341.934 57.8999ZM342.634 28.8999L332.737 27.4675L332.727 27.5313L332.719 27.5954L342.634 28.8999ZM348.634 15.6999L341.624 8.56762L341.356 8.83151L341.108 9.11485L348.634 15.6999ZM364.634 10.1999L366.682 0.411995L366.367 0.345978L366.048 0.300407L364.634 10.1999ZM379.634 18.7999L372.352 25.6535L372.477 25.7871L372.608 25.9159L379.634 18.7999ZM391.534 37.0999L400.915 33.6362L400.897 33.588L400.878 33.5399L391.534 37.0999ZM392.834 59.1999L402.468 61.8807L402.51 61.7282L402.548 61.5744L392.834 59.1999ZM380.034 76.2999L384.647 85.1721L384.863 85.06L385.072 84.9377L380.034 76.2999ZM371.034 62.5999L375.348 71.6212L375.902 71.3561L376.42 71.0251L371.034 62.5999ZM375.434 40.5999L366.16 44.3418L366.164 44.3518L375.434 40.5999ZM369.534 30.2999L361.306 35.9842L361.475 36.2288L361.659 36.463L369.534 30.2999ZM360.034 24.7999V14.7999H359.634L359.236 14.8317L360.034 24.7999ZM357.634 37.6999L367.631 37.4619L367.624 37.1652L367.599 36.8694L357.634 37.6999ZM358.634 54.4999L368.626 54.1228L368.616 53.8368L368.589 53.5518L358.634 54.4999ZM361.134 62.1999L353.914 69.119L354.393 69.6193L354.937 70.0487L361.134 62.1999ZM369.434 79.0999V69.0999H367.834V79.0999V89.0999H369.434V79.0999ZM367.834 79.0999V69.0999C365.334 69.0999 362.865 68.8401 360.415 68.3188L358.334 78.0999L356.253 87.881C360.069 88.693 363.933 89.0999 367.834 89.0999V79.0999ZM358.334 78.0999L360.545 68.3476C355.564 67.2178 353.764 65.5266 353.076 64.4856L344.734 69.9999L336.391 75.5142C340.903 82.3399 348.17 86.0487 356.122 87.8522L358.334 78.0999ZM344.734 69.9999L353.576 65.3287C352.521 63.3319 351.934 61.0518 351.934 58.2999H341.934H331.934C331.934 64.0814 333.213 69.6012 335.892 74.6711L344.734 69.9999ZM341.934 58.2999H351.934V57.8999H341.934H331.934V58.2999H341.934ZM341.934 57.8999L351.912 57.2491C351.726 54.3938 351.634 51.5776 351.634 48.7999H341.634H331.634C331.634 52.0222 331.741 55.2726 331.955 58.5507L341.934 57.8999ZM341.634 48.7999H351.634V43.4999H341.634H331.634V48.7999H341.634ZM341.634 43.4999H351.634C351.634 39.3083 351.933 34.8789 352.548 30.2044L342.634 28.8999L332.719 27.5954C332.001 33.0543 331.634 38.3582 331.634 43.4999H341.634ZM342.634 28.8999L352.53 30.3323C352.997 27.1115 354.206 24.5172 356.159 22.2849L348.634 15.6999L341.108 9.11485C336.528 14.3492 333.737 20.555 332.737 27.4675L342.634 28.8999ZM348.634 15.6999L355.643 22.8322C357.813 20.6997 359.789 19.9999 361.934 19.9999V9.99989V-0.000106812C354.078 -0.000106812 347.188 3.10013 341.624 8.56762L348.634 15.6999ZM361.934 9.99989V19.9999C362.288 19.9999 362.714 20.0272 363.219 20.0994L364.634 10.1999L366.048 0.300407C364.686 0.105927 363.313 -0.000106812 361.934 -0.000106812V9.99989ZM364.634 10.1999L362.585 19.9878C366.186 20.7414 369.395 22.512 372.352 25.6535L379.634 18.7999L386.916 11.9463C381.339 6.02115 374.548 2.05836 366.682 0.411995L364.634 10.1999ZM379.634 18.7999L372.608 25.9159C376.843 30.0977 380.025 34.9808 382.189 40.6599L391.534 37.0999L400.878 33.5399C397.709 25.219 392.957 17.9021 386.659 11.6839L379.634 18.7999ZM391.534 37.0999L382.153 40.5636C383.364 43.8439 383.934 47.0401 383.934 50.1999H393.934H403.934C403.934 44.5597 402.903 39.0225 400.915 33.6362L391.534 37.0999ZM393.934 50.1999H383.934C383.934 52.3765 383.669 54.5796 383.12 56.8254L392.834 59.1999L402.548 61.5744C403.465 57.8202 403.934 54.0233 403.934 50.1999H393.934ZM392.834 59.1999L383.2 56.5191C381.707 61.8822 378.969 65.3438 374.995 67.6621L380.034 76.2999L385.072 84.9377C393.898 79.7893 399.693 71.851 402.468 61.8807L392.834 59.1999ZM380.034 76.2999L375.42 67.4277C373.397 68.4798 371.317 69.0263 369.077 69.1063L369.434 79.0999L369.791 89.0935C375.017 88.9069 380.004 87.5867 384.647 85.1721L380.034 76.2999ZM366.234 63.6999V73.6999C369.424 73.6999 372.495 72.9856 375.348 71.6212L371.034 62.5999L366.719 53.5786C366.505 53.6808 366.377 53.6999 366.234 53.6999V63.6999ZM371.034 62.5999L376.42 71.0251C384.21 66.0446 387.134 57.8305 387.134 49.2999H377.134H367.134C367.134 53.3026 365.99 53.9552 365.647 54.1747L371.034 62.5999ZM377.134 49.2999H387.134C387.134 45.0049 386.315 40.8316 384.703 36.848L375.434 40.5999L366.164 44.3518C366.818 45.9682 367.134 47.5949 367.134 49.2999H377.134ZM375.434 40.5999L384.707 36.858C382.842 32.2349 380.415 27.9787 377.409 24.1368L369.534 30.2999L361.659 36.463C363.452 38.7544 364.959 41.3649 366.16 44.3418L375.434 40.5999ZM369.534 30.2999L377.761 24.6156C374.555 19.9762 369.306 14.7999 361.634 14.7999V24.7999V34.7999C361.176 34.7999 360.763 34.7196 360.432 34.6067C360.115 34.4982 359.952 34.387 359.945 34.3818C359.943 34.3806 360.076 34.4739 360.326 34.7404C360.576 35.0063 360.907 35.4066 361.306 35.9842L369.534 30.2999ZM361.634 24.7999V14.7999H360.034V24.7999V34.7999H361.634V24.7999ZM360.034 24.7999L359.236 14.8317C355.442 15.1353 352.696 17.1987 351.06 19.2935C349.597 21.1653 348.89 23.1734 348.509 24.5776C347.737 27.4161 347.534 30.7504 347.534 33.9999H357.534H367.534C367.534 32.7157 367.579 31.7163 367.648 30.9652C367.682 30.5942 367.719 30.313 367.753 30.1103C367.786 29.9042 367.81 29.8162 367.809 29.8222C367.807 29.828 367.796 29.8689 367.771 29.9394C367.747 30.0094 367.706 30.1205 367.642 30.2639C367.522 30.5323 367.273 31.0268 366.82 31.6063C366.359 32.1967 365.629 32.9466 364.556 33.5839C363.445 34.2443 362.169 34.661 360.831 34.7681L360.034 24.7999ZM357.534 33.9999H347.534C347.534 35.7156 347.565 37.2945 347.668 38.5304L357.634 37.6999L367.599 36.8694C367.569 36.5053 367.534 35.6175 367.534 33.9999H357.534ZM357.634 37.6999L347.636 37.9379C347.775 43.776 348.123 49.6129 348.679 55.448L358.634 54.4999L368.589 53.5518C368.078 48.1869 367.758 42.8238 367.631 37.4619L357.634 37.6999ZM358.634 54.4999L348.641 54.877C348.814 59.4769 349.927 64.9591 353.914 69.119L361.134 62.1999L368.353 55.2808C368.832 55.7799 368.921 56.1435 368.87 55.9868C368.81 55.8036 368.668 55.2359 368.626 54.1228L358.634 54.4999ZM361.134 62.1999L354.937 70.0487C358.464 72.8334 362.577 73.6999 366.234 73.6999V63.6999V53.6999C365.934 53.6999 365.95 53.6634 366.18 53.7312C366.436 53.8064 366.866 53.9849 367.33 54.3511L361.134 62.1999ZM424.345 70.9999L424.265 80.9996L424.533 81.0017L424.802 80.9894L424.345 70.9999ZM403.345 63.0999L396.537 70.4248L396.56 70.4464L396.583 70.4678L403.345 63.0999ZM394.545 42.4999L384.553 42.0921L384.54 42.414L384.547 42.7361L394.545 42.4999ZM405.645 18.7999L399.217 11.1394L399.177 11.1731L399.137 11.2073L405.645 18.7999ZM429.445 11.7999L431.406 1.99409L431.074 1.92768L430.738 1.88389L429.445 11.7999ZM445.645 20.5999L438.47 27.5662L438.521 27.619L438.573 27.671L445.645 20.5999ZM453.445 37.8999H463.445V37.4248L463.399 36.9518L453.445 37.8999ZM445.445 61.0999L453.026 67.6212L453.043 67.6012L453.06 67.5811L445.445 61.0999ZM434.245 48.6999L442.069 54.9274L442.073 54.9223L434.245 48.6999ZM437.345 38.6999H447.345V38.1137L447.276 37.5315L437.345 38.6999ZM433.345 30.7999L426.987 38.5192V38.5192L433.345 30.7999ZM425.145 27.4999L426.181 17.5537L425.664 17.4999H425.145V27.4999ZM415.245 31.4999L422.316 38.571V38.571L415.245 31.4999ZM411.045 41.6999L401.056 41.2243L401.037 41.6232L401.05 42.0223L411.045 41.6999ZM415.445 50.9999L409.506 59.0456L409.548 59.0764L409.59 59.1067L415.445 50.9999ZM424.345 70.9999L424.425 61.0002C418.342 60.9516 413.789 59.1118 410.106 55.732L403.345 63.0999L396.583 70.4678C404.234 77.488 413.68 80.9149 424.265 80.9996L424.345 70.9999ZM403.345 63.0999L410.152 55.775C406.659 52.5281 404.685 48.3162 404.542 42.2637L394.545 42.4999L384.547 42.7361C384.804 53.6169 388.697 63.1383 396.537 70.4248L403.345 63.0999ZM394.545 42.4999L404.536 42.9077C404.831 35.6837 407.407 30.4597 412.152 26.3925L405.645 18.7999L399.137 11.2073C389.882 19.1401 385.058 29.7161 384.553 42.0921L394.545 42.4999ZM405.645 18.7999L412.072 26.4604C416.229 22.9722 420.394 21.4999 424.845 21.4999V11.4999V1.4999C415.295 1.4999 406.66 4.89423 399.217 11.1394L405.645 18.7999ZM424.845 11.4999V21.4999C425.942 21.4999 427.043 21.5714 428.151 21.7159L429.445 11.7999L430.738 1.88389C428.779 1.62843 426.814 1.4999 424.845 1.4999V11.4999ZM429.445 11.7999L427.483 21.6057C431.847 22.4785 435.425 24.4299 438.47 27.5662L445.645 20.5999L452.819 13.6336C446.931 7.56989 439.709 3.65466 431.406 1.99409L429.445 11.7999ZM445.645 20.5999L438.573 27.671C441.301 30.3981 443.021 33.9226 443.49 38.848L453.445 37.8999L463.399 36.9518C462.535 27.8772 459.055 19.8684 452.716 13.5288L445.645 20.5999ZM453.445 37.8999H443.445V39.6999H453.445H463.445V37.8999H453.445ZM453.445 39.6999H443.445C443.445 45.2517 441.671 50.1042 437.829 54.6187L445.445 61.0999L453.06 67.5811C459.884 59.5623 463.445 50.1481 463.445 39.6999H453.445ZM445.445 61.0999L437.863 54.5786C434.46 58.5353 430.082 60.7266 423.887 61.0104L424.345 70.9999L424.802 80.9894C436.074 80.4732 445.763 76.0645 453.026 67.6212L445.445 61.0999ZM423.845 53.5999V63.5999C431.09 63.5999 437.49 60.6807 442.069 54.9274L434.245 48.6999L426.42 42.4724C425.799 43.2525 425.265 43.5999 423.845 43.5999V53.5999ZM434.245 48.6999L442.073 54.9223C445.611 50.4715 447.345 45.2199 447.345 39.5999H437.345H427.345C427.345 40.9133 427.012 41.7284 426.416 42.4775L434.245 48.6999ZM437.345 39.5999H447.345V38.6999H437.345H427.345V39.5999H437.345ZM437.345 38.6999L447.276 37.5315C446.628 32.0247 444.289 26.8584 439.702 23.0806L433.345 30.7999L426.987 38.5192C427.048 38.5692 427.077 38.602 427.123 38.6922C427.181 38.8076 427.329 39.1519 427.413 39.8683L437.345 38.6999ZM433.345 30.7999L439.702 23.0806C435.774 19.8462 431.14 18.0703 426.181 17.5537L425.145 27.4999L424.108 37.4461C425.549 37.5962 426.382 38.0203 426.987 38.5192L433.345 30.7999ZM425.145 27.4999V17.4999H424.645V27.4999V37.4999H425.145V27.4999ZM424.645 27.4999V17.4999C418.255 17.4999 412.616 19.9861 408.173 24.4288L415.245 31.4999L422.316 38.571C423.206 37.6803 423.834 37.4999 424.645 37.4999V27.4999ZM415.245 31.4999L408.173 24.4288C403.562 29.0407 401.356 34.9213 401.056 41.2243L411.045 41.6999L421.033 42.1755C421.133 40.0785 421.727 39.1591 422.316 38.571L415.245 31.4999ZM411.045 41.6999L401.05 42.0223C401.261 48.5715 403.768 54.8101 409.506 59.0456L415.445 50.9999L421.383 42.9542C421.315 42.9036 421.299 42.8808 421.305 42.8886C421.312 42.897 421.304 42.8917 421.284 42.8482C421.244 42.7644 421.071 42.3507 421.039 41.3775L411.045 41.6999ZM415.445 50.9999L409.59 59.1067C413.834 62.1719 418.722 63.5999 423.845 63.5999V53.5999V43.5999C422.567 43.5999 421.855 43.2945 421.299 42.8931L415.445 50.9999ZM458.91 67.6999L454.699 76.77L455.212 77.008L455.748 77.1867L458.91 67.6999ZM455.21 63.7999L445.723 66.9622L445.741 67.0167L445.76 67.071L455.21 63.7999ZM458.81 34.9999L468.215 38.3983L468.232 38.3509L468.249 38.3034L458.81 34.9999ZM469.11 16.5999L461.345 10.2995L461.338 10.3079L469.11 16.5999ZM478.51 11.0999L478.867 1.10627L478.493 1.0929L478.118 1.10758L478.51 11.0999ZM488.41 17.2999L480.282 23.1251L480.325 23.1848L480.368 23.2438L488.41 17.2999ZM497.51 37.1999L507.288 35.1046L507.287 35.0984L497.51 37.1999ZM496.51 66.8999L501.943 75.2956L502.136 75.1708L502.323 75.0372L496.51 66.8999ZM488.41 67.1999L483.196 75.7327L483.66 76.0164L484.152 76.2481L488.41 67.1999ZM483.51 61.2999L474.049 64.5368L474.062 64.5758L474.076 64.6148L483.51 61.2999ZM482.21 53.3999H492.21V53.3166L492.209 53.2333L482.21 53.3999ZM482.11 47.3999L492.109 47.2333L491.913 35.5154L480.372 37.5521L482.11 47.3999ZM475.81 47.4999L477.224 37.6004L466.384 36.0518L465.823 46.9878L475.81 47.4999ZM470.91 62.1999L462.534 56.7372L462.404 56.937L462.283 57.1427L470.91 62.1999ZM466.11 66.9999L471.072 75.6823L471.205 75.6062L471.336 75.5259L466.11 66.9999ZM480.81 36.2999L486.95 44.1934L487.209 43.992L487.454 43.774L480.81 36.2999ZM481.91 34.0999L491.81 35.5141L491.856 35.1916L491.881 34.8669L481.91 34.0999ZM482.01 32.7999L491.981 33.5669L492.01 33.184V32.7999H482.01ZM481.01 27.9999L471.819 31.9391L471.934 32.2092L472.066 32.472L481.01 27.9999ZM478.91 26.0999L482.072 16.6131L481.708 16.4916L481.335 16.3985L478.91 26.0999ZM478.51 25.9999L480.935 16.2985L479.741 15.9999H478.51V25.9999ZM477.21 27.5999L468.049 23.5917L467.867 24.0073L467.723 24.4376L477.21 27.5999ZM477.11 27.8999L486.494 31.357L486.548 31.2104L486.597 31.0622L477.11 27.8999ZM477.31 35.7999L486.254 31.3278L486.145 31.1097L486.026 30.8973L477.31 35.7999ZM461.81 68.1999V58.1999C462.081 58.1999 462.183 58.2499 462.072 58.2131L458.91 67.6999L455.748 77.1867C457.637 77.8166 459.673 78.1999 461.81 78.1999V68.1999ZM458.91 67.6999L463.121 58.6298C463.163 58.6493 463.47 58.8025 463.84 59.1923C464.227 59.6008 464.505 60.0817 464.66 60.5288L455.21 63.7999L445.76 67.071C447.36 71.6923 450.702 74.9141 454.699 76.77L458.91 67.6999ZM455.21 63.7999L464.697 60.6376C464.657 60.5176 464.51 59.9723 464.51 58.7999H454.51H444.51C444.51 61.4941 444.83 64.2822 445.723 66.9622L455.21 63.7999ZM454.51 58.7999H464.51C464.51 52.0969 465.717 45.3113 468.215 38.3983L458.81 34.9999L449.405 31.6015C446.17 40.5552 444.51 49.6363 444.51 58.7999H454.51ZM458.81 34.9999L468.249 38.3034C470.195 32.7431 473.057 27.6171 476.883 22.8919L469.11 16.5999L461.338 10.3079C456.096 16.7827 452.092 23.9233 449.372 31.6964L458.81 34.9999ZM469.11 16.5999L476.876 22.9003C477.736 21.8403 478.357 21.3833 478.66 21.206C478.805 21.1216 478.88 21.098 478.893 21.0942C478.902 21.0913 478.899 21.0924 478.902 21.0922L478.51 11.0999L478.118 1.10758C470.96 1.38831 465.38 5.32607 461.345 10.2995L469.11 16.5999ZM478.51 11.0999L478.153 21.0935C478.189 21.0948 478.25 21.0827 478.477 21.2251C478.774 21.411 479.415 21.915 480.282 23.1251L488.41 17.2999L496.538 11.4747C492.487 5.82227 486.625 1.38334 478.867 1.10627L478.51 11.0999ZM488.41 17.2999L480.368 23.2438C484.096 28.2872 486.512 33.6206 487.733 39.3014L497.51 37.1999L507.287 35.0984C505.441 26.5125 501.791 18.5793 496.452 11.356L488.41 17.2999ZM497.51 37.1999L487.732 39.2952C488.964 45.0422 489.61 51.4635 489.61 58.5999H499.61H509.61C509.61 50.2697 508.857 42.4242 507.288 35.1046L497.51 37.1999ZM499.61 58.5999H489.61C489.61 59.7061 489.502 60.4781 489.382 60.9837L499.11 63.2999L508.838 65.6161C509.385 63.3217 509.61 60.9603 509.61 58.5999H499.61ZM499.11 63.2999L489.382 60.9837C489.528 60.3726 489.792 59.826 490.103 59.395C490.4 58.9849 490.655 58.7935 490.698 58.7626L496.51 66.8999L502.323 75.0372C505.285 72.9215 507.84 69.8068 508.838 65.6161L499.11 63.2999ZM496.51 66.8999L491.078 58.5042C492.02 57.8947 492.611 57.9999 492.11 57.9999V67.9999V77.9999C495.21 77.9999 498.734 77.3718 501.943 75.2956L496.51 66.8999ZM492.11 67.9999V57.9999C492.11 57.9999 492.11 57.9999 492.11 57.9999C492.11 57.9999 492.11 57.9999 492.11 57.9999C492.111 57.9999 492.111 57.9999 492.111 57.9999C492.112 57.9999 492.112 57.9999 492.114 58C492.116 58 492.119 58.0001 492.124 58.0004C492.133 58.0008 492.146 58.0017 492.162 58.0034C492.196 58.007 492.242 58.0136 492.298 58.0258C492.416 58.0512 492.545 58.0936 492.668 58.1517L488.41 67.1999L484.152 76.2481C486.702 77.4482 489.402 77.9999 492.11 77.9999V67.9999ZM488.41 67.1999L493.625 58.6671C493.03 58.304 492.988 58.1077 492.945 57.985L483.51 61.2999L474.076 64.6148C475.766 69.4254 478.99 73.1625 483.196 75.7327L488.41 67.1999ZM483.51 61.2999L492.972 58.063C492.469 56.5935 492.21 55.0553 492.21 53.3999H482.21H472.21C472.21 57.2112 472.818 60.9396 474.049 64.5368L483.51 61.2999ZM482.21 53.3999L492.209 53.2333L492.109 47.2333L482.11 47.3999L472.112 47.5665L472.212 53.5665L482.21 53.3999ZM482.11 47.3999L480.372 37.5521C479.837 37.6466 479.252 37.6999 478.61 37.6999V47.6999V57.6999C480.368 57.6999 482.117 57.5532 483.848 57.2477L482.11 47.3999ZM478.61 47.6999V37.6999C478.155 37.6999 477.694 37.6675 477.224 37.6004L475.81 47.4999L474.396 57.3994C475.793 57.599 477.199 57.6999 478.61 57.6999V47.6999ZM475.81 47.4999L465.823 46.9878C465.652 50.3266 464.624 53.5321 462.534 56.7372L470.91 62.1999L479.286 67.6626C483.196 61.6677 485.435 55.0732 485.797 48.0121L475.81 47.4999ZM470.91 62.1999L462.283 57.1427C462.048 57.5436 461.667 57.9944 460.885 58.4739L466.11 66.9999L471.336 75.5259C474.687 73.4721 477.505 70.7229 479.537 67.2571L470.91 62.1999ZM466.11 66.9999L461.149 58.3175C461.105 58.3423 461.157 58.3072 461.297 58.2679C461.443 58.2273 461.622 58.1999 461.81 58.1999V68.1999V78.1999C465.186 78.1999 468.315 77.2577 471.072 75.6823L466.11 66.9999ZM479.21 36.9999V46.9999C482.916 46.9999 485.613 45.2329 486.95 44.1934L480.81 36.2999L474.671 28.4064C474.838 28.276 475.268 27.9626 475.952 27.6633C476.646 27.3597 477.768 26.9999 479.21 26.9999V36.9999ZM480.81 36.2999L487.454 43.774C490.121 41.4033 491.403 38.3594 491.81 35.5141L481.91 34.0999L472.011 32.6857C472.074 32.2449 472.228 31.6044 472.591 30.8778C472.964 30.1314 473.495 29.4226 474.167 28.8258L480.81 36.2999ZM481.91 34.0999L491.881 34.8669L491.981 33.5669L482.01 32.7999L472.04 32.0329L471.94 33.3329L481.91 34.0999ZM482.01 32.7999H492.01C492.01 29.7631 491.468 26.5553 489.954 23.5278L481.01 27.9999L472.066 32.472C471.885 32.1111 472.01 32.1034 472.01 32.7999H482.01ZM481.01 27.9999L490.202 24.0607C488.629 20.3903 485.665 17.8105 482.072 16.6131L478.91 26.0999L475.748 35.5867C475.089 35.367 474.266 34.9548 473.476 34.2403C472.679 33.5188 472.142 32.6946 471.819 31.9391L481.01 27.9999ZM478.91 26.0999L481.335 16.3985L480.935 16.2985L478.51 25.9999L476.085 35.7013L476.485 35.8013L478.91 26.0999ZM478.51 25.9999V15.9999C473.699 15.9999 470.925 19.108 470.124 20.094C469.081 21.3781 468.43 22.7195 468.049 23.5917L477.21 27.5999L486.372 31.6081C486.457 31.4137 486.256 31.955 485.646 32.7058C485.279 33.1585 482.921 35.9999 478.51 35.9999V25.9999ZM477.21 27.5999L467.723 24.4376L467.623 24.7376L477.11 27.8999L486.597 31.0622L486.697 30.7622L477.21 27.5999ZM477.11 27.8999L467.727 24.4428C466.857 26.8024 466.41 29.272 466.41 31.7999H476.41H486.41C486.41 31.6611 486.43 31.5307 486.494 31.357L477.11 27.8999ZM476.41 31.7999H466.41C466.41 34.6046 466.932 37.748 468.594 40.7025L477.31 35.7999L486.026 30.8973C486.488 31.7185 486.41 32.1952 486.41 31.7999H476.41ZM477.31 35.7999L468.366 40.272C469.222 41.9848 470.611 43.8066 472.745 45.1548C474.898 46.5145 477.189 46.9999 479.21 46.9999V36.9999V26.9999C480.364 26.9999 481.905 27.2853 483.425 28.245C484.926 29.1932 485.798 30.415 486.254 31.3278L477.31 35.7999Z" fill="white" mask="url(#path-1-outside-1_3026_169)"/>
</g>
<defs>
<filter id="filter0_d_3026_169" x="0" y="0" width="513.609" height="98.3999" filterUnits="userSpaceOnUse" color-interpolation-filters="sRGB">
<feFlood flood-opacity="0" result="BackgroundImageFix"/>
<feColorMatrix in="SourceAlpha" type="matrix" values="0 0 0 0 0 0 0 0 0 0 0 0 0 0 0 0 0 0 127 0" result="hardAlpha"/>
<feOffset dy="4"/>
<feGaussianBlur stdDeviation="2"/>
<feComposite in2="hardAlpha" operator="out"/>
<feColorMatrix type="matrix" values="0 0 0 0 0 0 0 0 0 0 0 0 0 0 0 0 0 0 0.25 0"/>
<feBlend mode="normal" in2="BackgroundImageFix" result="effect1_dropShadow_3026_169"/>
<feBlend mode="normal" in="SourceGraphic" in2="effect1_dropShadow_3026_169" result="shape"/>
</filter>
</defs>
</svg>
