<svg width="173" height="55" viewBox="0 0 173 55" fill="none" xmlns="http://www.w3.org/2000/svg">
<path d="M30.4456 47.1726H20.8564L11.2193 32.1656V47.1726H2.63702V13.6105H11.2193V27.7066L20.377 13.6105H29.9661L19.3222 29.9121L30.4456 47.1726ZM47.3195 23.1997H55.2785V47.1726H47.3195V44.9671C45.6894 46.8849 43.4199 47.8438 40.5112 47.8438C37.3148 47.8438 34.6299 46.6452 32.4563 44.2479C30.3147 41.8187 29.2439 38.7981 29.2439 35.1862C29.2439 31.5742 30.3147 28.5696 32.4563 26.1723C34.6299 23.7431 37.3148 22.5285 40.5112 22.5285C43.4199 22.5285 45.6894 23.4874 47.3195 25.4052V23.1997ZM38.6413 38.9739C39.5683 39.9328 40.7829 40.4122 42.2852 40.4122C43.7875 40.4122 45.0021 39.9328 45.9291 38.9739C46.856 38.015 47.3195 36.7524 47.3195 35.1862C47.3195 33.6199 46.856 32.3574 45.9291 31.3984C45.0021 30.4395 43.7875 29.9601 42.2852 29.9601C40.7829 29.9601 39.5683 30.4395 38.6413 31.3984C37.7144 32.3574 37.2509 33.6199 37.2509 35.1862C37.2509 36.7524 37.7144 38.015 38.6413 38.9739ZM67.8516 27.6587C68.299 26.0924 69.194 24.8778 70.5365 24.0148C71.879 23.1518 73.3813 22.7202 75.0434 22.7202V31.5423C73.2215 31.2546 71.5594 31.5902 70.0571 32.5491C68.5867 33.5081 67.8516 35.0743 67.8516 37.2478V47.1726H59.8926V23.1997H67.8516V27.6587Z" fill="white"/>
<path d="M86.3974 38.1108C87.1965 40.0606 88.9865 41.0355 91.7673 41.0355C93.4934 41.0355 94.9477 40.4762 96.1304 39.3574L101.884 43.3849C99.5185 46.3575 96.0824 47.8438 91.5755 47.8438C87.5161 47.8438 84.2558 46.6612 81.7946 44.2959C79.3653 41.8986 78.1507 38.878 78.1507 35.2341C78.1507 31.6222 79.3493 28.6016 81.7466 26.1723C84.1439 23.7431 87.1965 22.5285 90.9043 22.5285C94.4842 22.5285 97.4409 23.7271 99.7743 26.1244C102.108 28.5217 103.274 31.5263 103.274 35.1382C103.274 36.193 103.162 37.1839 102.939 38.1108H86.3974ZM86.3015 32.5971H95.5071C94.8678 30.3596 93.3655 29.2409 91.0002 29.2409C88.539 29.2409 86.9727 30.3596 86.3015 32.5971ZM113.695 38.1108C114.494 40.0606 116.284 41.0355 119.065 41.0355C120.791 41.0355 122.245 40.4762 123.428 39.3574L129.181 43.3849C126.816 46.3575 123.38 47.8438 118.873 47.8438C114.813 47.8438 111.553 46.6612 109.092 44.2959C106.663 41.8986 105.448 38.878 105.448 35.2341C105.448 31.6222 106.647 28.6016 109.044 26.1723C111.441 23.7431 114.494 22.5285 118.202 22.5285C121.782 22.5285 124.738 23.7271 127.072 26.1244C129.405 28.5217 130.572 31.5263 130.572 35.1382C130.572 36.193 130.46 37.1839 130.236 38.1108H113.695ZM113.599 32.5971H122.804C122.165 30.3596 120.663 29.2409 118.297 29.2409C115.836 29.2409 114.27 30.3596 113.599 32.5971ZM161.51 22.5285C164.291 22.5285 166.481 23.4235 168.079 25.2134C169.709 26.9714 170.524 29.4007 170.524 32.5012V47.1726H162.517V33.4122C162.517 31.1747 161.526 30.056 159.545 30.056C158.458 30.056 157.627 30.4235 157.052 31.1587C156.508 31.8619 156.236 32.8368 156.236 34.0834V47.1726H148.277V33.4122C148.277 31.1747 147.271 30.056 145.257 30.056C144.17 30.056 143.339 30.4235 142.764 31.1587C142.22 31.8619 141.949 32.8368 141.949 34.0834V47.1726H133.99V23.1997H141.949V25.4532C143.419 23.5034 145.576 22.5285 148.421 22.5285C151.17 22.5285 153.216 23.5513 154.558 25.597C156.22 23.5513 158.538 22.5285 161.51 22.5285Z" fill="#EEFEFF"/>
<rect x="135" y="12" width="35" height="8" fill="white"/>
<path d="M151.5 0L158.007 3.36606L164.339 6.90983L162.028 12.5339L159.435 18.0902L151.5 18.2L143.565 18.0902L140.972 12.5339L138.661 6.90983L144.993 3.36606L151.5 0Z" fill="white"/>
</svg>
