<svg width="88" height="89" viewBox="0 0 88 89" fill="none" xmlns="http://www.w3.org/2000/svg">
<g filter="url(#filter0_d_3041_111)">
<rect x="3.22852" width="80.7007" height="82.3147" rx="19.3682" fill="#F55E50"/>
<rect x="8.07056" y="4.84204" width="71.0166" height="72.6306" rx="14.5261" stroke="#F71F1F" stroke-width="9.68408"/>
</g>
<path d="M53.0323 41.0805C53.0323 43.4208 52.8574 45.5055 52.5077 47.3348C52.158 49.164 51.5931 50.7242 50.813 52.0154C50.0598 53.2797 49.0645 54.2481 47.8271 54.9206C46.6166 55.5931 45.1505 55.9294 43.4289 55.9294C41.2769 55.9294 39.488 55.3376 38.0623 54.154C36.6635 52.9704 35.6144 51.2756 34.915 49.0698C34.2425 46.8371 33.9062 44.174 33.9062 41.0805C33.9062 37.96 34.2156 35.2969 34.8343 33.0911C35.4799 30.8853 36.5021 29.204 37.9009 28.0473C39.2997 26.8637 41.1424 26.2719 43.4289 26.2719C45.5809 26.2719 47.3698 26.8637 48.7955 28.0473C50.2212 29.204 51.2838 30.8853 51.9832 33.0911C52.6826 35.2969 53.0323 37.96 53.0323 41.0805ZM37.4571 41.0805C37.4571 43.7167 37.6454 45.909 38.022 47.6576C38.4255 49.4061 39.0576 50.7242 39.9184 51.6119C40.8061 52.4727 41.9763 52.9031 43.4289 52.9031C44.8815 52.9031 46.0382 52.4727 46.899 51.6119C47.7867 50.7511 48.4323 49.4464 48.8358 47.6979C49.2393 45.9225 49.4411 43.7167 49.4411 41.0805C49.4411 38.4442 49.2393 36.2653 48.8358 34.5437C48.4323 32.7952 47.7867 31.4905 46.899 30.6297C46.0382 29.742 44.8815 29.2982 43.4289 29.2982C41.9763 29.2982 40.8061 29.742 39.9184 30.6297C39.0576 31.4905 38.4255 32.7952 38.022 34.5437C37.6454 36.2653 37.4571 38.4442 37.4571 41.0805Z" fill="white"/>
<defs>
<filter id="filter0_d_3041_111" x="0.000489235" y="0" width="87.1572" height="88.7708" filterUnits="userSpaceOnUse" color-interpolation-filters="sRGB">
<feFlood flood-opacity="0" result="BackgroundImageFix"/>
<feColorMatrix in="SourceAlpha" type="matrix" values="0 0 0 0 0 0 0 0 0 0 0 0 0 0 0 0 0 0 127 0" result="hardAlpha"/>
<feOffset dy="3.22803"/>
<feGaussianBlur stdDeviation="1.61401"/>
<feComposite in2="hardAlpha" operator="out"/>
<feColorMatrix type="matrix" values="0 0 0 0 0 0 0 0 0 0 0 0 0 0 0 0 0 0 0.25 0"/>
<feBlend mode="normal" in2="BackgroundImageFix" result="effect1_dropShadow_3041_111"/>
<feBlend mode="normal" in="SourceGraphic" in2="effect1_dropShadow_3041_111" result="shape"/>
</filter>
</defs>
</svg>
